<?xml version="1.0" standalone="no"?>
<!DOCTYPE svg PUBLIC "-//W3C//DTD SVG 1.1//EN" "http://www.w3.org/Graphics/SVG/1.1/DTD/svg11.dtd" >
<svg>
<metadata>
Created by FontForge 20090914 at Sun May  5 19:51:15 2013
 By www-data
Copyright (c) 2012 by Luke Ferrand. All rights reserved.
</metadata>
<defs>
<font id="BrixtonBook" horiz-adv-x="520" >
  <font-face 
    font-family="Brixton"
    font-weight="400"
    font-stretch="normal"
    units-per-em="1000"
    panose-1="2 11 0 0 0 0 0 0 0 0"
    ascent="750"
    descent="-250"
    x-height="500"
    cap-height="700"
    bbox="-171.999 -256.997 1080 928"
    underline-thickness="50"
    underline-position="-50"
    unicode-range="U+0020-U+FB03"
  />
<missing-glyph horiz-adv-x="250" 
 />
    <glyph glyph-name="ff" unicode="ff" horiz-adv-x="507" 
d="M446 661c-12 -1.33301 -21.3311 -4.83496 -27.998 -10.502s-11.834 -12.667 -15.501 -21s-6 -17.333 -7 -27s-1.5 -19.167 -1.5 -28.5v-73h97v-72h-97v-429h-72v429h-174v-429h-71v429h-61v72h61v73c0 105.333 44 158 132 158c21.333 0 41 -6.66699 59 -20
s33 -28.666 45 -45.999l-55 -33c-9.33301 10.667 -18.5 18 -27.5 22s-19.167 6 -30.5 6c-12 -1.33301 -21.333 -4.83301 -28 -10.5s-11.834 -12.667 -15.501 -21s-6 -17.333 -7 -27s-1.5 -19.167 -1.5 -28.5v-73h174v73c0 105.333 44.333 158 133 158
c21.333 0 40.833 -6.66699 58.5 -20s32.834 -28.666 45.501 -45.999l-55 -33c-10 10.667 -19.333 18 -28 22s-18.334 6 -29.001 6h-1z" />
    <glyph glyph-name="fi" unicode="fi" horiz-adv-x="438" 
d="M387 500v-500h-72v500h72zM91 0l-0.00195312 429h-59v72h59v73c0 52.667 14 92 42 118s64.667 39 110 39c22 0 41.333 -4 58 -12s30.834 -18.5 42.501 -31.5s21 -27.5 28 -43.5s11.833 -31.667 14.5 -47c-8 0 -14.5 -0.166992 -19.5 -0.5s-10.833 -0.5 -17.5 -0.5h-35
c-1.33301 6 -3.33301 12.833 -6 20.5s-6.66699 14.667 -12 21s-12.166 11.833 -20.499 16.5s-18.5 7 -30.5 7c-14.667 0 -27.167 -2.33301 -37.5 -7s-18.833 -11 -25.5 -19s-11.5 -17.333 -14.5 -28s-4.5 -21.667 -4.5 -33v-73h97v-72h-97v-429h-72z" />
    <glyph glyph-name="fl" unicode="fl" horiz-adv-x="480" 
d="M385 141c0 -7.33301 1.49902 -15.168 4.49902 -23.501s7.5 -16.166 13.5 -23.499s13.5 -13.833 22.5 -19.5s19.5 -9.5 31.5 -11.5v-71c-26 2 -48 7.66699 -66 17s-32.667 21 -44 35s-19.666 29.5 -24.999 46.5s-8 33.833 -8 50.5v608h71v-608zM159.999 518.998
l101 0.000976562v-76h-101v-443h-78v443h-60v76h60v77c0 108 46.667 162 140 162c12 0 25 -2.33301 39 -7v-80c-5.33301 2 -10.666 4.33301 -15.999 7c-4.66699 1.33301 -9.33398 2.83301 -14.001 4.5s-8.66699 2.5 -12 2.5c-13.333 0 -24 -2.83301 -32 -8.5
s-14 -12.834 -18 -21.501s-6.5 -18.167 -7.5 -28.5s-1.5 -20.5 -1.5 -30.5v-77z" />
    <glyph glyph-name="ffi" unicode="ffi" horiz-adv-x="638" 
d="M467 731c22 0 41.333 -4.00098 58 -12.001s31 -18.5 43 -31.5s21.5 -27.5 28.5 -43.5s11.5 -31.667 13.5 -47c-8 0 -14.5 -0.166992 -19.5 -0.5s-10.833 -0.5 -17.5 -0.5h-35c-1.33301 6 -3.33301 12.833 -6 20.5s-6.66699 14.667 -12 21s-12.166 11.833 -20.499 16.5
s-18.5 7 -30.5 7c-14.667 0 -27.167 -2.33301 -37.5 -7s-18.833 -11 -25.5 -19s-11.5 -17.333 -14.5 -28s-4.5 -21.667 -4.5 -33v-73h97v-72h-97v-429h-72v429h-174v-429h-72v429h-60v72h60v73c0 105.333 44.333 158 133 158c21.333 0 41 -6.66699 59 -20
s33 -28.666 45 -45.999l-55 -33c-9.33301 10.667 -18.5 18 -27.5 22s-19.167 6 -30.5 6c-12 -1.33301 -21.333 -4.83301 -28 -10.5s-11.834 -12.667 -15.501 -21s-6 -17.333 -7 -27s-1.5 -19.167 -1.5 -28.5v-73h174v73c0 52.667 14 92 42 118s64.667 39 110 39z
M539 499.999h72v-500h-72v500z" />
    <glyph glyph-name=".notdef" horiz-adv-x="250" 
 />
    <glyph glyph-name="space" unicode=" " horiz-adv-x="212" 
 />
    <glyph glyph-name="space" unicode="&#xa0;" horiz-adv-x="212" 
 />
    <glyph glyph-name="exclam" unicode="!" horiz-adv-x="190" 
d="M79 159c-2 28.667 -4.33301 55.5 -7 80.5s-5 51.167 -7 78.5l-4 52.5l-4 52.5v282h72v-282l-11 -134c-2 -22 -3.83301 -43.667 -5.5 -65s-3.16699 -43 -4.5 -65h-29zM46 80h95v-91h-95v91z" />
    <glyph glyph-name="quotedbl" unicode="&#x22;" horiz-adv-x="262" 
d="M163 799h44l13 -142h-70zM46 799h43c2 -23.333 4.33301 -47 7 -71s5 -47.667 7 -71h-72zM163 799h44l13 -142h-70zM45 799h44c2 -23.333 4.33301 -47 7 -71s5 -47.667 7 -71h-72z" />
    <glyph glyph-name="numbersign" unicode="#" horiz-adv-x="833" 
d="M556 273v-70h-538v70h538zM556 529v-71h-538v71h538zM294 745l-167 -756h-75l169 756h73zM520 745l-169 -756h-65c10.667 60 23.167 122.833 37.5 188.5l41.5 185.5l42.5 189c13.667 62.667 26.167 127 37.5 193h75z" />
    <glyph glyph-name="dollar" unicode="$" horiz-adv-x="529" 
d="M426 333c26 -16.667 46.999 -38.501 62.999 -65.501s24 -55.5 24 -85.5c0 -32.667 -7.16699 -61 -21.5 -85s-32.833 -43.667 -55.5 -59s-48 -26.833 -76 -34.5s-55.667 -11.834 -83 -12.501c-24.667 0 -47.667 1.33301 -69 4s-42 7.33398 -62 14.001s-40 15 -60 25
s-41 22.667 -63 38v86c40.667 -26 81.5 -48.5 122.5 -67.5s85.167 -28.5 132.5 -28.5c54 0 93.667 11.167 119 33.5s38 51.5 38 87.5c0 17.333 -3.5 32.333 -10.5 45s-16.833 24.167 -29.5 34.5s-27.667 19.833 -45 28.5l-56 27v-1l-12 7l-23 11l-24 11
c-24 10 -47.167 20.333 -69.5 31s-42.166 23.334 -59.499 38.001s-31.166 32 -41.499 52s-15.5 44 -15.5 72c0 26 5.16699 49.5 15.5 70.5s25 39.167 44 54.5s41.5 27.166 67.5 35.499s54.667 12.5 86 12.5c44.667 0 86 -5.33301 124 -16s72 -23.667 102 -39v-86
c-38 22.667 -76.167 39.834 -114.5 51.501s-75.5 17.5 -111.5 17.5c-16 0 -32.333 -2.5 -49 -7.5s-31.834 -12 -45.501 -21s-24.834 -20.167 -33.501 -33.5s-13 -28 -13 -44c0 -18.667 3.83301 -34.5 11.5 -47.5s17.834 -24 30.501 -33s27 -16.833 43 -23.5
s32.333 -13 49 -19v1l16 -6c7.33301 -3.33301 14.5 -6 21.5 -8s15.167 -5.33301 24.5 -10c19.333 -8 38 -16.333 56 -25s35.667 -18.667 53 -30zM296.999 825.999v-961h-60v961h60z" />
    <glyph glyph-name="percent" unicode="%" horiz-adv-x="701" 
d="M319 539c0 -23.333 -4.5 -45 -13.5 -65s-21.167 -37.667 -36.5 -53s-33 -27.333 -53 -36s-41.333 -13 -64 -13c-23.333 0 -45 4.33301 -65 13s-37.667 20.667 -53 36s-27.333 33 -36 53s-13 41.667 -13 65c0 22.667 4.33301 44.334 13 65.001s20.667 38.5 36 53.5
s33 27 53 36s41.667 13.5 65 13.5c22.667 0 44 -4.5 64 -13.5s37.667 -21 53 -36s27.5 -32.833 36.5 -53.5s13.5 -42.334 13.5 -65.001zM34 539c0 -16 3 -31 9 -45s14.333 -26.333 25 -37s23.167 -19.167 37.5 -25.5s29.833 -9.5 46.5 -9.5c16 0 31.167 3.16699 45.5 9.5
s26.833 14.833 37.5 25.5s19.167 23 25.5 37s9.5 29 9.5 45c0 16.667 -3.16699 32.167 -9.5 46.5s-14.833 26.833 -25.5 37.5s-23.167 19.167 -37.5 25.5s-29.5 9.5 -45.5 9.5c-16.667 0 -32.167 -3.16699 -46.5 -9.5s-26.833 -14.833 -37.5 -25.5s-19 -23.167 -25 -37.5
s-9 -29.833 -9 -46.5zM553 336c22.667 0 44.167 -4.5 64.5 -13.5s38.166 -21.333 53.499 -37s27.5 -33.667 36.5 -54s13.5 -41.833 13.5 -64.5c0 -23.333 -4.5 -45.166 -13.5 -65.499s-21.167 -38 -36.5 -53s-33.166 -26.833 -53.499 -35.5s-41.833 -13 -64.5 -13
s-44.167 4.33301 -64.5 13s-38 20.5 -53 35.5s-27 32.667 -36 53s-13.5 42.166 -13.5 65.499c0 22.667 4.5 44.167 13.5 64.5s21 38.333 36 54s32.667 28 53 37s41.833 13.5 64.5 13.5zM553 50c16.667 0 32.334 3 47.001 9s27.334 14.333 38.001 25s19 23.167 25 37.5
s9 29.5 9 45.5s-3 31.167 -9 45.5s-14.333 26.833 -25 37.5s-23.334 19.167 -38.001 25.5s-30.334 9.5 -47.001 9.5c-16 0 -31.167 -3.16699 -45.5 -9.5s-26.666 -14.833 -36.999 -25.5s-18.666 -23.167 -24.999 -37.5s-9.5 -29.5 -9.5 -45.5s3.16699 -31.167 9.5 -45.5
s14.666 -26.833 24.999 -37.5s22.666 -19 36.999 -25s29.5 -9 45.5 -9zM635 706l-110 -157l-110 -157l-136.5 -194l-137.5 -198h-72l151.5 217l149.5 213l194 276h71z" />
    <glyph glyph-name="ampersand" unicode="&#x26;" horiz-adv-x="654" 
d="M633 0l-87.0039 -0.00195312l-99 112c-81.333 -78 -156.333 -117 -225 -117c-25.333 0 -48.833 4.16699 -70.5 12.5s-40.5 19.833 -56.5 34.5s-28.5 31.834 -37.5 51.501s-13.5 40.834 -13.5 63.501c0 23.333 4.66699 45.166 14 65.499s22 39.5 38 57.5
s34.333 34.667 55 50s42.334 29.666 65.001 42.999c-26 30 -46 60.5 -60 91.5s-21 58.5 -21 82.5c0 24.667 4.83301 46.834 14.5 66.501s22.334 36.334 38.001 50.001s33.667 24.167 54 31.5s41.166 11 62.499 11c22.667 0 43.834 -4 63.501 -12s36.834 -19 51.501 -33
s26.167 -30.5 34.5 -49.5s12.5 -39.5 12.5 -61.5c0 -19.333 -4.33301 -37.833 -13 -55.5s-20 -34.5 -34 -50.5s-29.667 -31.333 -47 -46s-34.666 -28 -51.999 -40c8.66699 -9.33301 18.5 -20.666 29.5 -33.999l27.5 -33l70 -81c22.667 28 39.667 51.333 51 70
s21.666 37 30.999 55c1.33301 3.33301 3 6.33301 5 9s3.66699 5.66699 5 9h74c-16.667 -35.333 -35.167 -69.333 -55.5 -102s-42.166 -63.334 -65.499 -92.001zM303.996 638.998c-7.33301 0 -16.666 -1.33203 -27.999 -3.99902s-22.333 -7.5 -33 -14.5s-20 -16.333 -28 -28
s-12 -26.834 -12 -45.501c0 -39.333 23.333 -86 70 -140c18 12 34.667 24.167 50 36.5s28.666 24.666 39.999 36.999s20.333 24.333 27 36s10 22.834 10 33.501c0 16.667 -3.5 30.667 -10.5 42s-15.5 20.5 -25.5 27.5s-20.5 12 -31.5 15s-20.5 4.5 -28.5 4.5z
M277.996 72.999c14.667 6.66699 32.667 17.165 54 31.498s44.666 33.5 69.999 57.5l-140 159l-35 -22c-16.667 -10.667 -32 -21 -46 -31s-26.167 -20.333 -36.5 -31s-18.333 -22.5 -24 -35.5s-8.5 -27.833 -8.5 -44.5c0 -18 3.66699 -33.167 11 -45.5
s16.333 -22.166 27 -29.499s22.334 -12.666 35.001 -15.999s24.334 -5 35.001 -5c21.333 0 40.666 4 57.999 12z" />
    <glyph glyph-name="quotesingle" unicode="'" horiz-adv-x="190" 
d="M74 799h42c2 -23.333 4.5 -47 7.5 -71s5.5 -47.667 7.5 -71h-72z" />
    <glyph glyph-name="parenleft" unicode="(" horiz-adv-x="248" 
d="M124 0c-15.333 36.667 -29.001 75.6719 -41.001 117.005c-10 35.333 -19.167 75.666 -27.5 120.999s-12.5 92.333 -12.5 141c0 53.333 3.5 101.666 10.5 144.999s15 81.166 24 113.499s18 58.666 27 78.999s15.167 33.833 18.5 40.5h74c-15.333 -38 -29 -78 -41 -120
c-10.667 -36 -20.167 -76.5 -28.5 -121.5s-12.5 -90.5 -12.5 -136.5s3.16699 -89.167 9.5 -129.5s13.833 -76.833 22.5 -109.5s17.834 -60.834 27.501 -84.501s17.5 -42.167 23.5 -55.5h-74z" />
    <glyph glyph-name="parenright" unicode=")" horiz-adv-x="250" 
d="M122 757c15.333 -36.667 29 -75.6689 41 -117.002c10 -35.333 19.333 -75.666 28 -120.999s13 -92 13 -140c0 -53.333 -3.5 -101.666 -10.5 -144.999s-15.167 -81.166 -24.5 -113.499s-18.5 -58.833 -27.5 -79.5s-15.167 -34.334 -18.5 -41.001h-73
c14.667 38 28 78 40 120c10 36 19.333 76.667 28 122s13 91 13 137c0 47.333 -3.16699 91.333 -9.5 132s-14 77.167 -23 109.5s-18 60 -27 83s-16.5 40.833 -22.5 53.5h73z" />
    <glyph glyph-name="asterisk" unicode="*" horiz-adv-x="415" 
d="M266 610l66.498 -43.5l35.5 -23.5c-6.66699 -8.66699 -12.667 -17.167 -18 -25.5s-11.333 -16.5 -18 -24.5l-82 64v-107h-60v107l-88 -64c-5.33301 7.33301 -11.166 16 -17.499 26s-12.166 18.667 -17.499 26l103 65l-51 34l-53 35c5.33301 8.66699 11.333 17 18 25
s12.667 16.667 18 26l84 -63v107h61v-107l85 64l37 -53z" />
    <glyph glyph-name="plus" unicode="+" horiz-adv-x="404" 
d="M165 226h-118v70h118v119h72v-119h120v-70h-120v-122h-72v122z" />
    <glyph glyph-name="comma" unicode="," horiz-adv-x="112" 
d="M30 56h71c-7.33301 -10.667 -13.5 -20.667 -18.5 -30l-16.5 -30l-23.5 -40l-23.5 -42h-46z" />
    <glyph glyph-name="hyphen" unicode="-" horiz-adv-x="368" 
d="M327 291v-71h-281v71h281z" />
    <glyph glyph-name="period" unicode="." horiz-adv-x="136" 
d="M33 68h71v-68h-71v68z" />
    <glyph glyph-name="slash" unicode="/" horiz-adv-x="364" 
d="M329 745l-57.5 -198l-57.5 -195l-52 -180.5l-53 -182.5h-74l98 340l120 416h76z" />
    <glyph glyph-name="zero" unicode="0" horiz-adv-x="616" 
d="M309 709c42.667 0 81.334 -9 116.001 -27s64 -43 88 -75s42.5 -69.667 55.5 -113s19.5 -90.333 19.5 -141s-6.5 -97.667 -19.5 -141s-31.5 -81 -55.5 -113s-53.333 -57 -88 -75s-73.334 -27 -116.001 -27s-81.167 9 -115.5 27s-63.5 43 -87.5 75s-42.5 69.667 -55.5 113
s-19.5 90.333 -19.5 141s6.5 97.667 19.5 141s31.5 81 55.5 113s53.167 57 87.5 75s72.833 27 115.5 27zM309 68c32 0 60.667 7.16699 86 21.5s47 34.333 65 60s31.833 55.834 41.5 90.501s14.5 72.334 14.5 113.001s-4.83301 78.334 -14.5 113.001
s-23.5 64.834 -41.5 90.501s-39.667 45.667 -65 60s-54 21.5 -86 21.5c-31.333 0 -59.833 -7.16699 -85.5 -21.5s-47.5 -34.333 -65.5 -60s-31.833 -55.834 -41.5 -90.501s-14.5 -72.334 -14.5 -113.001s4.83301 -78.334 14.5 -113.001s23.5 -64.834 41.5 -90.501
s39.833 -45.667 65.5 -60s54.167 -21.5 85.5 -21.5z" />
    <glyph glyph-name="one" unicode="1" horiz-adv-x="196" 
d="M134 704v-704h-72v704h72z" />
    <glyph glyph-name="two" unicode="2" horiz-adv-x="485" 
d="M463 68l-0.000976562 -68.0029h-453l170.5 188.5c46.333 53.667 83.833 100.5 112.5 140.5s49.334 74.333 62.001 103s19 53.667 19 75c0 22.667 -3.66699 42.834 -11 60.501s-16.833 32.5 -28.5 44.5s-25 21 -40 27s-30.167 9 -45.5 9
c-68.667 0 -111.667 -42.333 -129 -127h-69c4.66699 32 13.667 60 27 84s29.166 44 47.499 60s38.5 28 60.5 36s44 12 66 12c28 0 53.833 -5.16699 77.5 -15.5s44 -24.666 61 -42.999s30.333 -39.666 40 -63.999s14.5 -50.5 14.5 -78.5c0 -30 -7.16699 -61.833 -21.5 -95.5
s-34.166 -69 -59.499 -106s-55 -75.667 -89 -116l-109 -126.5h297z" />
    <glyph glyph-name="three" unicode="3" horiz-adv-x="460" 
d="M345 377c17.333 -13.333 33.002 -28.6641 47.002 -45.9971c11.333 -15.333 22 -33.833 32 -55.5s15 -46.5 15 -74.5s-5.5 -54.5 -16.5 -79.5s-25.833 -47 -44.5 -66s-40.5 -34 -65.5 -45s-51.5 -16.5 -79.5 -16.5c-26 0 -50.5 4.66699 -73.5 14s-43.5 22 -61.5 38
s-33.167 35.167 -45.5 57.5s-20.833 46.5 -25.5 72.5h71c8.66699 -32.667 25.167 -59.834 49.5 -81.501s52.833 -32.5 85.5 -32.5c19.333 0 37.5 3.5 54.5 10.5s31.667 16.833 44 29.5s22.166 27.5 29.499 44.5s11 35.167 11 54.5c0 18.667 -3.33301 36.167 -10 52.5
s-15.834 30.833 -27.501 43.5s-25.667 22.667 -42 30s-34.5 11.666 -54.5 12.999v67c17.333 0.666992 33 4.33398 47 11.001s25.833 15.5 35.5 26.5s17.167 23.5 22.5 37.5s8 29 8 45s-3.16699 31.167 -9.5 45.5s-14.833 26.833 -25.5 37.5s-23.167 19.167 -37.5 25.5
s-29.5 9.5 -45.5 9.5c-14.667 0 -28.5 -2.66699 -41.5 -8s-24.833 -12.833 -35.5 -22.5s-19.5 -20.834 -26.5 -33.501s-11.833 -26.334 -14.5 -41.001h-68c2.66699 24 9.5 46.667 20.5 68s24.833 39.666 41.5 54.999s35.667 27.5 57 36.5s43.666 13.5 66.999 13.5
c25.333 0 49.333 -4.83301 72 -14.5s42.5 -23 59.5 -40s30.333 -36.667 40 -59s14.5 -46.5 14.5 -72.5c0 -24 -3.83301 -45.167 -11.5 -63.5s-16.167 -34.166 -25.5 -47.499c-11.333 -15.333 -23.666 -28.333 -36.999 -39z" />
    <glyph glyph-name="four" unicode="4" horiz-adv-x="509" 
d="M409 1h-67v229h-309l188 242l188 243v-419h80v-66h-80v-229zM165 296h177v226z" />
    <glyph glyph-name="five" unicode="5" horiz-adv-x="480" 
d="M215 464c32 0 62.001 -5.99902 90.001 -17.999s53.667 -29 77 -51c22 -22.667 39.167 -48.334 51.5 -77.001s18.5 -59 18.5 -91s-6.5 -62.333 -19.5 -91s-30.333 -53.667 -52 -75s-46.834 -38.333 -75.501 -51s-58.667 -19 -90 -19c-34 0 -66.5 6.66699 -97.5 20
s-59.167 34 -84.5 62l32 27l10 8c3.33301 2.66699 6.66602 5.66699 9.99902 9c18 -18 38.5 -32.167 61.5 -42.5s45.833 -15.5 68.5 -15.5c23.333 0 45.333 4.33301 66 13s38.667 20.667 54 36s27.333 33.166 36 53.499s13 42.166 13 65.499s-4.5 45.333 -13.5 66
s-21.167 38.667 -36.5 54s-33.333 27.5 -54 36.5s-42.334 13.5 -65.001 13.5c-18 0 -38.667 -3.83301 -62 -11.5s-45.666 -20.167 -66.999 -37.5c-5.33301 4 -9 7 -11 9l-8 8c-3.33301 2.66699 -6.66602 5.83398 -9.99902 9.50098l-10 10.5v319h321v-67h-253v-194
c13.333 4.66699 29 9.33398 47 14.001s35.667 7 53 7z" />
    <glyph glyph-name="six" unicode="6" horiz-adv-x="514" 
d="M428 399c22.667 -22.667 39.999 -48.167 51.999 -76.5s18 -58.5 18 -90.5s-6.33301 -62.5 -19 -91.5s-29.834 -54.167 -51.501 -75.5s-46.834 -38.333 -75.501 -51s-59 -19 -91 -19c-34 0 -65.833 6.83301 -95.5 20.5s-55.5 32.5 -77.5 56.5s-39.167 52 -51.5 84
s-18.5 66.333 -18.5 103c0 40 5.33301 80.167 16 120.5s25.834 79.5 45.501 117.5s42.834 74.667 69.501 110s56 68.333 88 99l48 -47c-13.333 -12.667 -27.833 -27.667 -43.5 -45s-31.167 -36.666 -46.5 -57.999s-30 -44.333 -44 -69s-26.333 -51 -37 -79
c25.333 20 51.333 35 78 45s49.667 15 69 15c31.333 0 61.333 -5.83301 90 -17.5s54.334 -28.834 77.001 -51.501zM260.999 63c24 0 46.333 4.33301 67 13s38.667 20.667 54 36s27.333 33.333 36 54s13 42.667 13 66c0 24 -4.33301 46.333 -13 67s-20.667 38.667 -36 54
s-33.333 27.333 -54 36s-43 13 -67 13c-23.333 0 -45.333 -4.33301 -66 -13s-38.667 -20.667 -54 -36s-27.5 -33.333 -36.5 -54s-13.5 -43 -13.5 -67c0 -23.333 4.5 -45.333 13.5 -66s21.167 -38.667 36.5 -54s33.333 -27.333 54 -36s42.667 -13 66 -13z" />
    <glyph glyph-name="seven" unicode="7" horiz-adv-x="406" 
d="M99 -11c-11.333 4.66699 -21.667 9.16699 -31 13.5l-30 13.5l269 621h-302v67h403z" />
    <glyph glyph-name="eight" unicode="8" horiz-adv-x="435" 
d="M352 356l11.999 -10c19.333 -20 34 -42.333 44 -67s15 -50.667 15 -78c0 -28.667 -5.5 -55.667 -16.5 -81s-26 -47.333 -45 -66s-40.833 -33.334 -65.5 -44.001s-51 -16 -79 -16c-28.667 0 -55.5 5.33301 -80.5 16s-46.833 25.334 -65.5 44.001s-33.5 40.667 -44.5 66
s-16.5 52.333 -16.5 81c0 32 7.83301 63 23.5 93s39.5 57.667 71.5 83c-21.333 21.333 -39.166 45.333 -53.499 72s-21.5 52.667 -21.5 78s4.83301 49.166 14.5 71.499s23 41.833 40 58.5s36.833 29.834 59.5 39.501s47 14.5 73 14.5s50.167 -4.83301 72.5 -14.5
s42 -22.834 59 -39.501s30.333 -36.167 40 -58.5s14.5 -46.166 14.5 -71.499c0 -26.667 -6.83301 -53.167 -20.5 -79.5s-31.167 -49.833 -52.5 -70.5zM364.999 346h-1v1zM216.999 644c-16 0 -31.167 -3.16699 -45.5 -9.5s-26.833 -14.833 -37.5 -25.5s-19 -23 -25 -37
s-9 -29 -9 -45c0 -17.333 3 -33.333 9 -48s14.333 -27.334 25 -38.001s23.167 -19.167 37.5 -25.5s29.5 -9.5 45.5 -9.5c16.667 0 32.334 3.16699 47.001 9.5s27.334 14.833 38.001 25.5s19 23.334 25 38.001s9 30.667 9 48c0 16 -3 31 -9 45s-14.333 26.333 -25 37
s-23.334 19.167 -38.001 25.5s-30.334 9.5 -47.001 9.5zM216.999 61c18.667 0 36.5 3.66699 53.5 11s31.833 17.166 44.5 29.499s22.667 27 30 44s11 35.5 11 55.5c0 18.667 -3.66699 36.5 -11 53.5s-17.333 31.667 -30 44s-27.5 22.166 -44.5 29.499s-34.833 11 -53.5 11
c-19.333 0 -37.5 -3.66699 -54.5 -11s-31.833 -17.166 -44.5 -29.499s-22.667 -27 -30 -44s-11 -34.833 -11 -53.5c0 -20 3.66699 -38.5 11 -55.5s17.333 -31.667 30 -44s27.5 -22.166 44.5 -29.499s35.167 -11 54.5 -11z" />
    <glyph glyph-name="nine" unicode="9" horiz-adv-x="525" 
d="M95 308c-22.667 22.667 -39.998 48.333 -51.998 77s-18 59 -18 91s6.33301 62.333 19 91s30 53.667 52 75s47.333 38.333 76 51s59 19 91 19c34 0 65.667 -6.83301 95 -20.5s55 -32.5 77 -56.5s39.167 -52 51.5 -84s18.5 -66.333 18.5 -103
c0 -40 -5.33301 -80.167 -16 -120.5s-25.667 -79.5 -45 -117.5s-42.5 -74.667 -69.5 -110s-56.5 -68.333 -88.5 -99l-48 47c13.333 12.667 27.833 27.667 43.5 45s31.167 36.666 46.5 57.999s30.166 44.333 44.499 69s26.833 51 37.5 79c-25.333 -20 -51.5 -35 -78.5 -45
s-49.833 -15 -68.5 -15c-32 0 -62.333 5.83301 -91 17.5s-54.334 28.834 -77.001 51.501zM263.002 643.999c-24 0 -46.333 -4.33496 -67 -13.002s-38.667 -20.667 -54 -36s-27.5 -33.166 -36.5 -53.499s-13.5 -42.166 -13.5 -65.499c0 -24 4.5 -46.333 13.5 -67
s21.167 -38.667 36.5 -54s33.333 -27.5 54 -36.5s43 -13.5 67 -13.5c23.333 0 45.333 4.33301 66 13s38.5 20.834 53.5 36.501s27 33.834 36 54.501s13.5 43 13.5 67c0 23.333 -4.33301 45.166 -13 65.499s-20.667 38.166 -36 53.499s-33.333 27.333 -54 36
s-42.667 13 -66 13z" />
    <glyph glyph-name="colon" unicode=":" horiz-adv-x="185" 
d="M62 500h73v-68h-73v68zM62 500h73v-68h-73v68zM62 500h73v-68h-73v68zM62 68h73v-68h-73v68z" />
    <glyph glyph-name="semicolon" unicode=";" horiz-adv-x="188" 
d="M62 56h72c-7.33301 -13.333 -14.333 -25.5 -21 -36.5l-20 -33.5l-20.5 -35l-20.5 -37h-47zM64 500h71v-68h-71v68z" />
    <glyph glyph-name="less" unicode="&#x3c;" horiz-adv-x="505" 
d="M34 307l438 233v-83l-283 -150l70.5 -38l70.5 -38l71 -39.5l71 -38.5v-77z" />
    <glyph glyph-name="equal" unicode="=" horiz-adv-x="514" 
d="M471 245v-72h-425v72h425zM471 428v-71h-425v71h425z" />
    <glyph glyph-name="greater" unicode="&#x3e;" horiz-adv-x="531" 
d="M485 307l-436.001 -231v79l283 152l-137 74l-27 15l-59.5 31.5c-20.333 11 -40.166 21.167 -59.499 30.5v82z" />
    <glyph glyph-name="question" unicode="?" horiz-adv-x="442" 
d="M207 705c26 0 50.666 -4.83398 73.999 -14.501s43.666 -23 60.999 -40s31.166 -37.167 41.499 -60.5s15.5 -48.666 15.5 -75.999c0 -23.333 -4.33301 -44.666 -13 -63.999s-20.334 -37 -35.001 -53s-32 -30 -52 -42s-41 -22.333 -63 -31v-137h-72v182
c22.667 4.66699 43.834 11.834 63.501 21.501s36.834 21.167 51.501 34.5s26.167 27.666 34.5 42.999s12.5 30.666 12.5 45.999c0 9.33301 -1.33301 21 -4 35s-8.16699 27.333 -16.5 40s-20.333 23.5 -36 32.5s-36.5 13.5 -62.5 13.5
c-25.333 0 -47.166 -4.33301 -65.499 -13s-34.833 -19.667 -49.5 -33c-8 10 -15.667 19 -23 27s-14.666 17.333 -21.999 28c22.667 18.667 48 33.5 76 44.5s56 16.5 84 16.5zM163.999 67.999h72v-68h-72v68z" />
    <glyph glyph-name="at" unicode="@" horiz-adv-x="574" 
d="M533 121c-26.667 -46 -60.165 -77.8359 -100.498 -95.5029s-85.166 -26.5 -134.499 -26.5c-42.667 0 -80.334 5.83301 -113.001 17.5s-60.167 27.834 -82.5 48.501s-39.166 45.334 -50.499 74.001s-17 60 -17 94c0 42.667 7 80.667 21 114s33 61.5 57 84.5
s51.667 40.5 83 52.5s64 18 98 18c32 0 61.667 -5.16699 89 -15.5s51.166 -24.833 71.499 -43.5s36.166 -40.5 47.499 -65.5s17 -52.5 17 -82.5c0 -26.667 -8.33301 -55.167 -25 -85.5s-38.334 -59.166 -65.001 -86.499zM483.002 133.997
c-7.33301 -11.333 -14.8301 -20.834 -22.4971 -28.501s-14.167 -13.167 -19.5 -16.5l-34 -21c-15.333 -6 -31.833 -10.833 -49.5 -14.5s-37.167 -5.5 -58.5 -5.5c-66.667 0 -119.334 16.333 -158.001 49c-18 16.667 -31.833 37 -41.5 61s-14.5 50.667 -14.5 80
c0 30 5.16699 58 15.5 84s24.5 48.833 42.5 68.5s39.667 35 65 46s53 16.5 83 16.5c22.667 0 46.667 -5.66699 72 -17s52.333 -26.666 81 -45.999h-92l-7 -25c-13.333 9.33301 -26.5 17 -39.5 23s-24.5 9 -34.5 9c-17.333 0 -34.166 -4.5 -50.499 -13.5
s-31 -21.167 -44 -36.5s-23.5 -33.333 -31.5 -54s-12 -42.334 -12 -65.001c0 -17.333 2.5 -33.166 7.5 -47.499s12 -27 21 -38s19.5 -19.5 31.5 -25.5s25.333 -9 40 -9c9.33301 0 19.666 2.16699 30.999 6.5s24.333 11.833 39 22.5l18 -23c9.33301 -4.66699 22 -7 38 -7
c17.333 0 34.666 4.33301 51.999 13s33.666 20 48.999 34zM469.005 296.996c0 32.667 -18.333 71.333 -55 116l-46 -221l-3 -35c8.66699 2 19 7.33301 31 16s23.5 19.167 34.5 31.5s20.167 26.5 27.5 42.5s11 32.667 11 50zM300.005 193.995
c18.667 26 28.001 55.001 28.001 87.001c0 19.333 -5 35.333 -15 48s-23 19 -39 19c-11.333 0 -21.833 -3.66699 -31.5 -11s-18.334 -16.833 -26.001 -28.5s-13.667 -25 -18 -40s-6.5 -30.167 -6.5 -45.5c0 -18.667 4.5 -34.334 13.5 -47.001s20.5 -19 34.5 -19
c23.333 0 43.333 12.333 60 37z" />
    <glyph glyph-name="A" unicode="A" horiz-adv-x="630" 
d="M627 1h-75l-62 141h-348l-62 -141h-73c11.333 28 22.833 55 34.5 81l34.5 79l120.5 283.5l120.5 285.5zM460 212l-143 342l-34 -82.5l-36 -81.5l-18 -41l-20 -45.5l-19.5 -47l-18.5 -44.5h289z" />
    <glyph glyph-name="B" unicode="B" horiz-adv-x="447" 
d="M204 699c27.333 0 51.833 -5.3291 73.5 -15.9961s40.167 -24.334 55.5 -41.001s27.166 -35.334 35.499 -56.001s12.5 -41.334 12.5 -62.001c0 -22.667 -4.16699 -42.334 -12.5 -59.001s-17.166 -30.667 -26.499 -42c-12 -13.333 -25 -25 -39 -35
c24 -12.667 45.333 -28 64 -46c16 -15.333 30.667 -34.5 44 -57.5s20 -50.5 20 -82.5c0 -33.333 -6 -62.5 -18 -87.5s-27.667 -46 -47 -63s-41 -29.833 -65 -38.5s-47.667 -13 -71 -13h-206v699h180zM93 632.004l0.000976562 -220.999h117c10 0 21 2.33301 33 7
s23.333 11.667 34 21s19.667 21 27 35s11 30 11 48c0 14 -2.66699 27.667 -8 41s-12.833 25.166 -22.5 35.499s-21.334 18.5 -35.001 24.5s-28.5 9 -44.5 9h-112zM230.001 69.0049c20 0 37.832 4.00098 53.499 12.001s29.167 18.5 40.5 31.5s20 27.5 26 43.5s9 31.667 9 47
c0 19.333 -3.66699 37.666 -11 54.999s-17.166 32.5 -29.499 45.5s-26.5 23.333 -42.5 31s-32.333 11.5 -49 11.5h-134v-277h137z" />
    <glyph glyph-name="C" unicode="C" horiz-adv-x="639" 
d="M372 71c34.667 0 68.168 5.50293 100.501 16.5029s63.166 30.167 92.499 57.5l46 -47c-36 -34 -74.167 -59 -114.5 -75s-81.833 -24 -124.5 -24c-48 0 -93 9.16699 -135 27.5s-78.833 43.5 -110.5 75.5s-56.667 69.833 -75 113.5s-27.5 90.5 -27.5 140.5
c0 48 9.16699 93.167 27.5 135.5s43.333 79.166 75 110.499s68.5 56.166 110.5 74.499s87 27.5 135 27.5c42.667 0 84.167 -7.5 124.5 -22.5s78.5 -37.833 114.5 -68.5l-46 -47c-29.333 20.667 -60.333 36.834 -93 48.501s-66 17.5 -100 17.5
c-40.667 0 -78.167 -7.16699 -112.5 -21.5s-64.166 -34 -89.499 -59s-45.166 -54.333 -59.499 -88s-21.5 -69.5 -21.5 -107.5c0 -40.667 7.16699 -78.334 21.5 -113.001s34.166 -64.834 59.499 -90.501s55.166 -45.667 89.499 -60s71.833 -21.5 112.5 -21.5z" />
    <glyph glyph-name="D" unicode="D" horiz-adv-x="621" 
d="M220 700c22 0 46.6699 -1.6709 74.0029 -5.00391s54.833 -9.66602 82.5 -18.999s54.667 -22.166 81 -38.499s49.666 -37.666 69.999 -63.999s36.666 -58.166 48.999 -95.499s18.5 -81.666 18.5 -132.999c0 -54 -7.5 -100.167 -22.5 -138.5s-34.333 -70.333 -58 -96
s-50.167 -45.834 -79.5 -60.501s-58.333 -25.667 -87 -33s-55.334 -12 -80.001 -14s-44 -3 -58 -3h-186v700h196zM210.003 65.9961c46.667 0 89.002 6.66797 127.002 20.001s70.333 32.166 97 56.499s47.167 53.666 61.5 87.999s21.5 72.5 21.5 114.5
c0 44.667 -6.66699 84.834 -20 120.501s-32.833 66 -58.5 91s-56.834 44.167 -93.501 57.5s-78.334 20 -125.001 20h-123v-568h113z" />
    <glyph glyph-name="E" unicode="E" horiz-adv-x="418" 
d="M101 631v-242h243v-64h-243v-255h294v-70h-365v701h365v-70h-294z" />
    <glyph glyph-name="F" unicode="F" horiz-adv-x="422" 
d="M100 631v-242h243v-64h-243v-325h-71v701h365v-70h-294z" />
    <glyph glyph-name="G" unicode="G" horiz-adv-x="645" 
d="M344 350l280.999 -0.00195312v-258c-35.333 -31.333 -74 -55 -116 -71s-84.333 -24 -127 -24c-50 0 -96.833 9.16699 -140.5 27.5s-81.667 43.333 -114 75s-57.833 68.667 -76.5 111s-28 87.5 -28 135.5s9.33301 93.833 28 137.5s44.167 81.834 76.5 114.501
s70.333 58.667 114 78s90.5 29 140.5 29c42 0 83.333 -8.33301 124 -25s79.334 -42 116.001 -76l-46 -46c-29.333 28 -60.5 48.167 -93.5 60.5s-66.5 18.5 -100.5 18.5c-40.667 0 -78.667 -7.66699 -114 -23s-66 -36.166 -92 -62.499s-46.5 -57.166 -61.5 -92.499
s-22.5 -73 -22.5 -113c0 -38 7.5 -74 22.5 -108s35.5 -63.833 61.5 -89.5s56.667 -45.834 92 -60.501s73.333 -22 114 -22c30 0 58.833 4.5 86.5 13.5s56.5 23.167 86.5 42.5v167h-211v61z" />
    <glyph glyph-name="H" unicode="H" 
d="M499 700v-700h-71v325h-335v-325h-71v700h71v-309h335v309h71z" />
    <glyph glyph-name="I" unicode="I" horiz-adv-x="152" 
d="M109 700v-700h-71v700h71z" />
    <glyph glyph-name="J" unicode="J" horiz-adv-x="280" 
d="M126 -9c-22 0 -42 6.16797 -60 18.501s-32.667 27.166 -44 44.499c10 6 19.333 12 28 18l27 18c9.33301 -10.667 19.166 -18.334 29.499 -23.001s20.166 -7 29.499 -7c10.667 0.666992 19.334 5 26.001 13s12 17.667 16 29s6.66699 23.333 8 36s2 24.334 2 35.001v527h70
v-527c0 -62 -10.167 -107.833 -30.5 -137.5s-54.166 -44.5 -101.499 -44.5z" />
    <glyph glyph-name="K" unicode="K" horiz-adv-x="607" 
d="M32 700h71v-700h-71v700zM588 0h-92l-380 360l321 340h94l-320 -332z" />
    <glyph glyph-name="L" unicode="L" horiz-adv-x="491" 
d="M455 70v-70h-415v700h70v-630h345z" />
    <glyph glyph-name="M" unicode="M" horiz-adv-x="659" 
d="M30 0v716l302 -313l107 110l108 112l44.5 45.5l44.5 44.5v-715h-71v540l-233 -239l-232 241v-542h-70z" />
    <glyph glyph-name="N" unicode="N" horiz-adv-x="610" 
d="M572 -26l-459 570v-544h-65v730l461 -564v534h63v-726z" />
    <glyph glyph-name="O" unicode="O" horiz-adv-x="697" 
d="M352 -3c-50 0 -96.5 9.5 -139.5 28.5s-80.5 44.5 -112.5 76.5s-57 69.333 -75 112s-27 88 -27 136c0 50 9 96.667 27 140s43 80.833 75 112.5s69.5 56.5 112.5 74.5s89.5 27 139.5 27c47.333 0 92.5 -9 135.5 -27s80.667 -42.833 113 -74.5s58.166 -69.167 77.499 -112.5
s29 -90 29 -140c0 -48 -9.66699 -93.333 -29 -136s-45.166 -80 -77.499 -112s-70 -57.5 -113 -76.5s-88.167 -28.5 -135.5 -28.5zM352 633c-40 0 -77.167 -7.16699 -111.5 -21.5s-64 -34.166 -89 -59.499s-44.667 -55.166 -59 -89.499s-21.5 -71.833 -21.5 -112.5
c0 -38 7.16699 -74 21.5 -108s34 -63.833 59 -89.5s54.667 -46.167 89 -61.5s71.5 -23 111.5 -23c38 0 74 7.66699 108 23s64 35.833 90 61.5s46.5 55.5 61.5 89.5s22.5 70 22.5 108c0 40.667 -7.66699 78.167 -23 112.5s-36 64.166 -62 89.499s-56 45.166 -90 59.499
s-69.667 21.5 -107 21.5z" />
    <glyph glyph-name="P" unicode="P" horiz-adv-x="402" 
d="M97 308v-308.001h-66v700h185c24.667 0 48.667 -4.66699 72 -14s44.333 -22.5 63 -39.5s33.667 -37.667 45 -62s17 -51.833 17 -82.5c0 -19.333 -3.83301 -40.166 -11.5 -62.499s-19.5 -43.333 -35.5 -63s-36.167 -36 -60.5 -49s-52.833 -19.5 -85.5 -19.5h-123z
M219 380.999c18.667 0 35.501 3.66699 50.501 11s27.667 16.833 38 28.5s18.166 24.667 23.499 39s8 28.5 8 42.5c0 22.667 -4.33301 42.167 -13 58.5s-19.167 29.5 -31.5 39.5s-25.5 17.333 -39.5 22s-26 7 -36 7h-122v-248h122z" />
    <glyph glyph-name="Q" unicode="Q" horiz-adv-x="710" 
d="M358 -2c-50 0 -96.5 9.5 -139.5 28.5s-80.333 44.5 -112 76.5s-56.5 69.333 -74.5 112s-27 88 -27 136c0 50 9 96.667 27 140s42.833 80.833 74.5 112.5s69 56.5 112 74.5s89.5 27 139.5 27c47.333 0 92.5 -9 135.5 -27s80.667 -42.833 113 -74.5s58 -69.167 77 -112.5
s28.5 -90 28.5 -140c0 -48 -9.5 -93.333 -28.5 -136s-44.667 -80 -77 -112s-70 -57.5 -113 -76.5s-88.167 -28.5 -135.5 -28.5zM358 634c-40 0 -77.167 -7.16699 -111.5 -21.5s-64 -34 -89 -59s-44.667 -54.833 -59 -89.5s-21.5 -72.334 -21.5 -113.001
c0 -38 7.16699 -74 21.5 -108s34 -63.833 59 -89.5s54.667 -46.167 89 -61.5s71.5 -23 111.5 -23c38 0 74.167 7.66699 108.5 23s64.333 35.833 90 61.5s46.167 55.5 61.5 89.5s23 70 23 108c0 40.667 -7.83301 78.334 -23.5 113.001s-36.5 64.5 -62.5 89.5
s-56.167 44.667 -90.5 59s-69.833 21.5 -106.5 21.5zM692 53l-50.001 -51l-189 191c8.66699 9.33301 16.834 17.5 24.501 24.5l25.5 23.5z" />
    <glyph glyph-name="R" unicode="R" horiz-adv-x="489" 
d="M422 0l-200.001 308h-126v-308h-65v700h184c24.667 0 48.834 -4.66699 72.501 -14s44.834 -22.5 63.501 -39.5s33.667 -37.667 45 -62s17 -51.833 17 -82.5c0 -38 -10.833 -72.5 -32.5 -103.5s-49.834 -55.167 -84.501 -72.5l105 -163l105 -163h-84zM217.999 381
c18.667 0 35.5029 3.66699 50.5029 11s27.667 16.833 38 28.5s18.333 24.667 24 39s8.5 28.5 8.5 42.5c0 22.667 -4.33301 42.167 -13 58.5s-19.334 29.5 -32.001 39.5s-25.834 17.333 -39.501 22s-25.834 7 -36.501 7h-122v-248h122z" />
    <glyph glyph-name="S" unicode="S" horiz-adv-x="505" 
d="M256 -6c-34.667 0 -68 4.50293 -100 13.5029s-58.667 18.5 -80 28.5c-15.333 7.33301 -28.333 14 -39 20s-19.334 10.667 -26.001 14l31 57l33 -19c22.667 -11.333 49.834 -22 81.501 -32s65.167 -15 100.5 -15c50.667 0 90 11 118 33c24.667 22.667 37 52.667 37 90
c0 33.333 -17.667 62.666 -53 87.999c-16 11.333 -34 21.666 -54 30.999l-61 28l-76.5 34.5c-25.667 11.667 -48.167 25.5 -67.5 41.5c-23.333 18 -40.333 37.667 -51 59s-16 45 -16 71c0 24.667 5 47.667 15 69c4.66699 9.33301 10.834 18.5 18.501 27.5
s16.167 17.5 25.5 25.5c19.333 14.667 42.166 26.334 68.499 35.001s54.5 13 84.5 13s58.667 -3.16699 86 -9.5s50.666 -12.833 69.999 -19.5c5.33301 -1.33301 9.83301 -2.83301 13.5 -4.5s8.16699 -3.5 13.5 -5.5l-15 -31c-4.66699 -10 -9.66699 -19.667 -15 -29
c-19.333 7.33301 -42.166 14.333 -68.499 21s-54.5 10 -84.5 10c-10.667 0 -24.834 -1.33301 -42.501 -4s-35.167 -9 -52.5 -19h1c-32 -18 -48 -46 -48 -84c0 -14.667 4.16699 -27.667 12.5 -39s19.5 -22 33.5 -32s30.333 -19.333 49 -28s38.334 -17.334 59.001 -26.001
l82 -37.5c28.667 -13.667 53.667 -28.834 75 -45.501c50 -40 75 -87.333 75 -142c0 -60.667 -25.333 -107.667 -76 -141c-20 -14.667 -43.667 -26 -71 -34s-56 -12.333 -86 -13z" />
    <glyph glyph-name="T" unicode="T" horiz-adv-x="409" 
d="M423 700v-65h-185v-635h-65v635h-184v65h434z" />
    <glyph glyph-name="U" unicode="U" horiz-adv-x="549" 
d="M521 700l0.000976562 -453c0 -34 -6.33301 -66.333 -19 -97s-30 -57.5 -52 -80.5s-47.833 -41.167 -77.5 -54.5s-61.834 -20 -96.501 -20c-34 0 -66 6.66699 -96 20s-56.167 31.5 -78.5 54.5s-39.833 49.667 -52.5 80s-19 62.833 -19 97.5v453h71v-453
c0 -27.333 4.66699 -52.833 14 -76.5s22 -44.167 38 -61.5s34.5 -30.833 55.5 -40.5s43.5 -14.5 67.5 -14.5s46.667 4.83301 68 14.5s39.833 23.167 55.5 40.5s28.167 37.833 37.5 61.5s14 49.167 14 76.5v453h70z" />
    <glyph glyph-name="V" unicode="V" horiz-adv-x="768" 
d="M750 700l-363 -711l-199 385l-84 161l-84 165h82l285 -554l174 343l108 211h81z" />
    <glyph glyph-name="W" unicode="W" horiz-adv-x="902" 
d="M902 700l-149.5 -352.999l-149.5 -353l-151 343l-59 -135l-91 -209l-298 707h73l226 -520l62 140c0 0.666992 0.666992 2.16699 2 4.5s2.33301 4.16602 3 5.49902l45 100l-35.5 86.5l-35.5 86.5l-41 97h76l73 -181l75 181h74l-111 -271l112 -249l28.5 66l32 73.5l32 73.5
l29.5 68l104 239h74z" />
    <glyph glyph-name="X" unicode="X" horiz-adv-x="672" 
d="M384 362l274 -362h-89l-231 304l-231 -304h-86l273 362l-55.5 74.5l-59.5 77.5l-77 102l-31.5 42l-32.5 42h89l211 -279l110 143l103 136h88z" />
    <glyph glyph-name="Y" unicode="Y" horiz-adv-x="611" 
d="M353 365l-10.998 -14v-351h-71v351l-53 70l-70 92.5l-70 92.5l-70 94h86l213 -280l50 67.5l53 69.5l26 35c13.333 18.667 27.166 36.667 41.499 54s28.166 35.333 41.499 54h87z" />
    <glyph glyph-name="Z" unicode="Z" horiz-adv-x="578" 
d="M156 70h402v-70h-533l404 630h-393v70h522z" />
    <glyph glyph-name="bracketleft" unicode="[" horiz-adv-x="230" 
d="M103 635v-821h85v-69h-155v959h155v-69h-85z" />
    <glyph glyph-name="backslash" unicode="\" horiz-adv-x="373" 
d="M253 -11l-217 756h73l110 -378l110 -378h-76z" />
    <glyph glyph-name="bracketright" unicode="]" horiz-adv-x="228" 
d="M33 635v69h155v-959h-155v69h85v821h-85z" />
    <glyph glyph-name="asciicircum" unicode="^" horiz-adv-x="552" 
d="M504 382h-80l-150 261l-40 -68l-40 -68v1l-37 -64.5l-35 -61.5h-80l232 395z" />
    <glyph glyph-name="underscore" unicode="_" horiz-adv-x="545" 
d="M489 -62v-71h-443v71h443z" />
    <glyph glyph-name="grave" unicode="`" horiz-adv-x="248" 
d="M61 908h48l40 -71l40 -71h-71z" />
    <glyph glyph-name="a" unicode="a" horiz-adv-x="502" 
d="M453 85c2.66699 -3.33301 5.66699 -5.99512 9 -7.99512s6.66602 -3.66699 9.99902 -5s7 -2 11 -2v-70c-32 0 -55.833 8.66699 -71.5 26s-26.167 43 -31.5 77c-6 -10.667 -14.333 -22.167 -25 -34.5s-23.667 -23.666 -39 -33.999s-33.166 -19 -53.499 -26
s-43.166 -10.5 -68.499 -10.5c-22.667 0 -44.834 2.66699 -66.501 8s-41 13.666 -58 24.999s-30.667 25.666 -41 42.999s-15.5 38.333 -15.5 63c0 34 7.33301 62.833 22 86.5s33.667 43 57 58s49.5 25.833 78.5 32.5s58.167 10 87.5 10c17.333 0 35.666 -1 54.999 -3
s40 -5.66699 62 -11c0 23.333 -3.83301 43.166 -11.5 59.499s-17.5 29.5 -29.5 39.5s-25.833 17.333 -41.5 22s-31.5 7 -47.5 7c-26 0 -52.5 -5.66699 -79.5 -17s-52.167 -28 -75.5 -50c-11.333 17.333 -19.5 29.166 -24.5 35.499s-9.16699 12.166 -12.5 17.499
c30.667 25.333 62.834 44.5 96.501 57.5s66.5 19.5 98.5 19.5c36 0 66.667 -4.83301 92 -14.5s46 -23 62 -40s27.5 -37.167 34.5 -60.5s10.5 -49 10.5 -77c0 -22.667 -0.833008 -45.334 -2.5 -68.001s-2.5 -46.667 -2.5 -72c0 -18.667 0.666992 -35.5 2 -50.5
s4.33301 -26.167 9 -33.5zM194 57.0049c36 0 65.833 6.5 89.5 19.5s42.334 28.667 56.001 47s23.167 37 28.5 56s8 34.5 8 46.5v26l-50 6.5c-18 2.33301 -35.333 3.5 -52 3.5c-21.333 0 -43 -1.83301 -65 -5.5s-42.333 -9.83398 -61 -18.501s-33.834 -20.5 -45.501 -35.5
s-17.5 -33.833 -17.5 -56.5c0 -8 1.33301 -17 4 -27s7.83398 -19.667 15.501 -29s18.667 -17.166 33 -23.499s33.166 -9.5 56.499 -9.5z" />
    <glyph glyph-name="b" unicode="b" horiz-adv-x="536" 
d="M281 500c35.333 0 67.499 -6.83398 96.499 -20.501s53.667 -32 74 -55s36 -49.667 47 -80s16.5 -61.833 16.5 -94.5c0 -34 -5.5 -66.5 -16.5 -97.5s-26.667 -58.333 -47 -82s-45 -42.5 -74 -56.5s-61.167 -21 -96.5 -21c-34 0 -62.667 5 -86 15s-42.166 21 -56.499 33
s-24.833 23 -31.5 33l-10 15v-89h-73v756h73v-339c10 15.333 23.667 29 41 41c14.667 10.667 33.667 20.334 57 29.001s52 13 86 13zM280.999 57.999c28.667 0 53.167 6.16699 73.5 18.5s37 28 50 47s22.667 40 29 63s9.5 44.833 9.5 65.5c0 20 -3.5 40.667 -10.5 62
s-17.333 40.833 -31 58.5s-30.5 32.167 -50.5 43.5s-43.333 17 -70 17c-24 0 -47 -3.83301 -69 -11.5s-41.5 -19.167 -58.5 -34.5s-30.667 -34.333 -41 -57s-15.5 -49 -15.5 -79c0 -32 5.33301 -60 16 -84s24.667 -44.167 42 -60.5s37 -28.5 59 -36.5s44.333 -12 67 -12z
" />
    <glyph glyph-name="c" unicode="c" horiz-adv-x="461" 
d="M274 61c23.333 0 44.667 3.83105 64 11.498s39.333 18.834 60 33.501l49 -50c-28 -21.333 -56.167 -36.666 -84.5 -45.999s-57.833 -14 -88.5 -14c-36.667 0 -70.667 6.5 -102 19.5s-58.5 30.667 -81.5 53s-41 48.666 -54 78.999s-19.5 62.833 -19.5 97.5
c0 36.667 6.5 70.834 19.5 102.501s31 59.167 54 82.5s50.167 41.5 81.5 54.5s65.333 19.5 102 19.5c30.667 0 60.167 -4.66699 88.5 -14s56.5 -24.666 84.5 -45.999l-49 -50c-19.333 13.333 -39 24.166 -59 32.499s-41.667 12.5 -65 12.5c-26 0 -50.667 -5.16699 -74 -15.5
s-43.666 -24.333 -60.999 -42s-31.166 -38.167 -41.499 -61.5s-15.5 -48.333 -15.5 -75c0 -24 5.16699 -47.167 15.5 -69.5s24.166 -42 41.499 -59s37.666 -30.5 60.999 -40.5s48 -15 74 -15z" />
    <glyph glyph-name="d" unicode="d" horiz-adv-x="558" 
d="M266 500c34 0 62.666 -4.33203 85.999 -12.999s42.333 -18.334 57 -29.001c17.333 -12 31 -25.667 41 -41v339h73v-756h-73v89l-10 -15c-6.66699 -10 -17.167 -21 -31.5 -33s-33.166 -23 -56.499 -33s-52 -15 -86 -15c-35.333 0 -67.5 7 -96.5 21
s-53.667 32.833 -74 56.5s-36 51 -47 82s-16.5 63.5 -16.5 97.5c0 32.667 5.5 64.167 16.5 94.5s26.667 57 47 80s45 41.333 74 55s61.167 20.5 96.5 20.5zM265.999 58.001c22.667 0 45 4 67 12s41.667 20.167 59 36.5s31.333 36.5 42 60.5s16 52 16 84
c0 30 -5.16699 56.333 -15.5 79s-24 41.667 -41 57s-36.5 26.833 -58.5 34.5s-45 11.5 -69 11.5c-26.667 0 -50 -5.66699 -70 -17s-36.833 -25.833 -50.5 -43.5s-24 -37.167 -31 -58.5s-10.5 -42 -10.5 -62c0 -20.667 3.16699 -42.5 9.5 -65.5s16 -44 29 -63
s29.667 -34.667 50 -47s44.833 -18.5 73.5 -18.5z" />
    <glyph glyph-name="e" unicode="e" horiz-adv-x="511" 
d="M458 90c-25.333 -30.667 -54.667 -54.166 -88 -70.499s-70.333 -24.5 -111 -24.5c-39.333 0 -73.833 6.33301 -103.5 19s-54.5 30.167 -74.5 52.5s-35 48.833 -45 79.5s-15 64 -15 100c0 34 5 66.333 15 97s25 57.667 45 81s44.833 41.833 74.5 55.5
s64.167 20.5 103.5 20.5c35.333 0 67.333 -6.66699 96 -20s53.334 -32 74.001 -56s36.667 -52.333 48 -85s17 -68.334 17 -107.001h-403c0 -25.333 3.66699 -48.833 11 -70.5s18 -40.5 32 -56.5s31.5 -28.5 52.5 -37.5s45.167 -13.5 72.5 -13.5c22 0 41.833 3.33301 59.5 10
s33 14.5 46 23.5s23.667 18 32 27s14.166 15.833 17.499 20.5zM256.999 438.001c-23.333 0 -44.6689 -4.33105 -64.002 -12.998s-36.166 -19.834 -50.499 -33.501s-25.666 -29.334 -33.999 -47.001s-13.166 -35.5 -14.499 -53.5h323c-4 20.667 -10.667 40 -20 58
s-21 33.5 -35 46.5s-29.833 23.333 -47.5 31s-36.834 11.5 -57.501 11.5z" />
    <glyph glyph-name="f" unicode="f" horiz-adv-x="270" 
d="M79 0v428.999h-60v72h60v73c0 105.333 44.333 158 133 158c21.333 0 40.833 -6.66699 58.5 -20s32.834 -28.666 45.501 -45.999l-55 -33c-10 10.667 -19.5 18 -28.5 22s-19.167 6 -30.5 6c-12 -1.33301 -21.333 -4.83301 -28 -10.5s-11.834 -12.667 -15.501 -21
s-6 -17.333 -7 -27s-1.5 -19.167 -1.5 -28.5v-73h98v-72h-98v-429h-71z" />
    <glyph glyph-name="g" unicode="g" horiz-adv-x="469" 
d="M268 50c56.667 -14.667 98.001 -34.4961 124.001 -59.4961s39 -57.167 39 -96.5c0 -24 -5.66699 -45.5 -17 -64.5s-26.666 -34.833 -45.999 -47.5s-42.333 -22.334 -69 -29.001s-55 -10 -85 -10c-28 0 -54.667 3.33301 -80 10s-47.666 16.334 -66.999 29.001
s-34.666 28.5 -45.999 47.5s-17 40.5 -17 64.5c0 32 10.333 59 31 81s48 40.667 82 56l-10 4.5c-6.66699 3 -14.334 7.66699 -23.001 14s-16.334 14.5 -23.001 24.5s-10 22 -10 36c0 13.333 5.16699 26.666 15.5 39.999s24.166 23.666 41.499 30.999
c0 -0.666992 -3.66699 2 -11 8s-15.166 14.833 -23.499 26.5s-16.166 26.5 -23.499 44.5s-11 38.667 -11 62c0 24 4.66699 46.833 14 68.5s22.166 40.667 38.499 57s35.666 29.166 57.999 38.499s46.833 14 73.5 14h208v-60h-80l7.5 -9.5
c5 -6.33301 10.5 -14.833 16.5 -25.5s11.333 -23.167 16 -37.5s7 -29.5 7 -45.5c0 -32 -6.5 -60.333 -19.5 -85s-34.5 -45.334 -64.5 -62.001c-16 -9.33301 -35.333 -15.833 -58 -19.5l-64.5 -10.5c-20.333 -3.33301 -37.833 -7.5 -52.5 -12.5s-22 -13.167 -22 -24.5
c0 -7.33301 3.5 -13.5 10.5 -18.5s17.167 -9.5 30.5 -13.5s29.166 -8 47.499 -12zM223.001 435.004c-35.333 0 -63 -10.834 -83 -32.501s-30 -48.5 -30 -80.5c0 -14.667 2.66699 -28.667 8 -42s12.833 -25 22.5 -35s21.5 -18 35.5 -24s29.667 -9 47 -9
c14.667 0 28.667 2.66699 42 8s25.166 12.833 35.499 22.5s18.5 21.334 24.5 35.001s9 28.5 9 44.5s-3 30.833 -9 44.5s-14 25.5 -24 35.5s-21.667 18 -35 24s-27.666 9 -42.999 9zM214.001 -196.997c18.667 0 36.5 1.83301 53.5 5.5s31.667 9.33398 44 17.001
s22.166 17.167 29.499 28.5s11 24.666 11 39.999c0 14.667 -3.66699 28 -11 40s-17.166 22.333 -29.499 31s-27 15.167 -44 19.5s-34.833 6.5 -53.5 6.5c-17.333 0 -33.833 -2.16699 -49.5 -6.5s-29.667 -10.833 -42 -19.5s-22.166 -19 -29.499 -31s-11 -25.333 -11 -40
c0 -15.333 3.66699 -28.666 11 -39.999s17.166 -20.833 29.499 -28.5s26.333 -13.334 42 -17.001s32.167 -5.5 49.5 -5.5z" />
    <glyph glyph-name="h" unicode="h" horiz-adv-x="482" 
d="M107 0l-71.9971 0.000976562v755h72l1 -351l7.5 15c5 10 13 21 24 33s25.667 23 44 33s41.166 15 68.499 15c35.333 0 65.666 -6.83301 90.999 -20.5s46.166 -32 62.499 -55s28.333 -49.667 36 -80s11.5 -61.833 11.5 -94.5v-250h-73v252c0 20 -1.66699 40.667 -5 62
s-9.66602 40.833 -18.999 58.5s-22.333 32.167 -39 43.5s-38.334 17 -65.001 17c-24 0 -45 -4.83301 -63 -14.5s-33 -22.667 -45 -39s-21.167 -35.333 -27.5 -57s-9.5 -44.834 -9.5 -69.501v-253z" />
    <glyph glyph-name="i" unicode="i" horiz-adv-x="187" 
d="M57 501h72v-500h-72v500zM129 660v-68h-72v68h72z" />
    <glyph glyph-name="j" unicode="j" horiz-adv-x="234" 
d="M193 590h-71v68h71v-68zM194 500v-533.002c0 -18 -1.33301 -37.833 -4 -59.5s-8.66699 -41.667 -18 -60s-23.166 -33.666 -41.499 -45.999s-42.833 -18.5 -73.5 -18.5c-21.333 0 -42 6.33301 -62 19s-36.333 27.334 -49 44.001l25 18l29 22
c12.667 -14 23.5 -22.5 32.5 -25.5s17.167 -4.5 24.5 -4.5c21.333 0 37.166 10.5 47.499 31.5s15.5 47.5 15.5 79.5v533h74z" />
    <glyph glyph-name="k" unicode="k" horiz-adv-x="435" 
d="M23 755h71v-755h-71v755zM484 -1h-100l-275 275l223 224h99l-222 -224z" />
    <glyph glyph-name="l" unicode="l" horiz-adv-x="214" 
d="M115 155c0 -14 5.83008 -29.167 17.4971 -45.5s29.5 -26.833 53.5 -31.5v-72c-25.333 2 -47.166 7.66699 -65.499 17s-33.166 21 -44.499 35s-19.666 29.5 -24.999 46.5s-8 33.833 -8 50.5v607h72v-607v0z" />
    <glyph glyph-name="m" unicode="m" horiz-adv-x="806" 
d="M590 509c36 0 66.6631 -6.83008 91.9961 -20.4971s46 -32 62 -55s27.833 -49.667 35.5 -80s11.5 -61.833 11.5 -94.5v-259h-73v261c0 20 -1.66699 40.667 -5 62s-9.66602 40.666 -18.999 57.999s-22.333 31.666 -39 42.999s-38.334 17 -65.001 17
c-22.667 0 -42.667 -4.33301 -60 -13s-32.166 -20.667 -44.499 -36s-21.833 -33.333 -28.5 -54s-10.334 -42.667 -11.001 -66v-10v-21c0 -9.33301 -0.166992 -23.666 -0.5 -42.999s-0.5 -45 -0.5 -77v-121h-73v261c0 20 -1.66699 40.667 -5 62
s-9.66602 40.666 -18.999 57.999s-22.333 31.666 -39 42.999s-38.334 17 -65.001 17c-23.333 0 -44.166 -4.66699 -62.499 -14s-33.666 -22.166 -45.999 -38.499s-21.666 -35.333 -27.999 -57s-9.5 -44.834 -9.5 -69.501v-262h-72v500h72l1 -70c11.333 14 24.333 27 39 39
c12.667 10 27.834 19.167 45.501 27.5s37.834 12.5 60.501 12.5c37.333 0 68 -7.5 92 -22.5s42.667 -31.5 56 -49.5c16 -21.333 28 -45 36 -71c9.33301 26 21.666 49.667 36.999 71c13.333 18 30 34.5 50 49.5s45 22.5 75 22.5z" />
    <glyph glyph-name="n" unicode="n" horiz-adv-x="490" 
d="M110 0l-71.998 0.00195312v500h72l1 -70c10 14 22.333 27 37 39c12 10 27 19.167 45 27.5s38.667 12.5 62 12.5c35.333 0 65.666 -6.83301 90.999 -20.5s46.166 -32 62.499 -55s28.333 -49.667 36 -80s11.5 -61.833 11.5 -94.5v-259h-73v261c0 20 -1.66699 40.667 -5 62
s-9.66602 40.666 -18.999 57.999s-22.333 31.666 -39 42.999s-38.334 17 -65.001 17c-24 0 -45 -4.66699 -63 -14s-33 -22.166 -45 -38.499s-21.167 -35.333 -27.5 -57s-9.5 -44.834 -9.5 -69.501v-262z" />
    <glyph glyph-name="o" unicode="o" horiz-adv-x="516" 
d="M258 -4c-34 0 -66.333 6.33301 -97 19s-57.667 30.334 -81 53.001s-41.833 49.5 -55.5 80.5s-20.5 64.5 -20.5 100.5c0 34 6.83301 66.5 20.5 97.5s32.167 58.167 55.5 81.5s50.333 41.833 81 55.5s63 20.5 97 20.5s66.333 -6.83301 97 -20.5s57.667 -32.167 81 -55.5
s42 -50.5 56 -81.5s21 -63.5 21 -97.5c0 -36 -7 -69.5 -21 -100.5s-32.667 -57.833 -56 -80.5s-50.333 -40.334 -81 -53.001s-63 -19 -97 -19zM258 436c-27.333 0 -52.335 -5 -75.002 -15s-42.334 -23.667 -59.001 -41s-29.5 -37.333 -38.5 -60s-13.5 -46.334 -13.5 -71.001
c0 -26.667 4.5 -51.334 13.5 -74.001s21.833 -42.167 38.5 -58.5s36.334 -29.166 59.001 -38.499s47.667 -14 75 -14c26.667 0 51.334 4.66699 74.001 14s42.334 22.166 59.001 38.499s29.5 35.833 38.5 58.5s13.5 47.334 13.5 74.001c0 24.667 -4.5 48.334 -13.5 71.001
s-21.667 42.667 -38 60s-35.833 31 -58.5 41s-47.667 15 -75 15z" />
    <glyph glyph-name="p" unicode="p" horiz-adv-x="544" 
d="M283 0c-34 0 -62.666 4.16699 -85.999 12.5s-42.333 17.833 -57 28.5c-17.333 12 -31 26 -41 42v-339h-73v756h73v-89l10 15c6.66699 10 17.167 21 31.5 33s33.166 23 56.499 33s52 15 86 15c35.333 0 67.5 -7 96.5 -21s53.667 -32.833 74 -56.5s36 -51 47 -82
s16.5 -63.5 16.5 -97.5c0 -32.667 -5.5 -64.167 -16.5 -94.5s-26.667 -57 -47 -80s-45 -41.333 -74 -55s-61.167 -20.5 -96.5 -20.5zM283.001 442c-22.667 0 -45 -4 -67 -12s-41.667 -20.167 -59 -36.5s-31.333 -36.5 -42 -60.5s-16 -52 -16 -84
c0 -30 5.16699 -56.333 15.5 -79s24 -41.667 41 -57s36.5 -26.833 58.5 -34.5s45 -11.5 69 -11.5c26.667 0 50 5.66699 70 17s36.833 25.833 50.5 43.5s24 37.167 31 58.5s10.5 42 10.5 62c0 20.667 -3.16699 42.5 -9.5 65.5s-16 44 -29 63s-29.667 34.667 -50 47
s-44.833 18.5 -73.5 18.5z" />
    <glyph glyph-name="q" unicode="q" horiz-adv-x="543" 
d="M256 0c-35.333 0 -67.499 6.83301 -96.499 20.5s-53.667 32 -74 55s-36 49.667 -47 80s-16.5 61.833 -16.5 94.5c0 34 5.5 66.5 16.5 97.5s26.667 58.333 47 82s45 42.5 74 56.5s61.167 21 96.5 21c34 0 62.667 -5 86 -15s42.166 -21 56.499 -33s24.833 -23 31.5 -33
l10 -15v89h73v-756h-73v339c-10 -16 -23.667 -30 -41 -42c-14.667 -10.667 -33.667 -20.167 -57 -28.5s-52 -12.5 -86 -12.5zM256.001 442c-28.667 0 -53.167 -6.16699 -73.5 -18.5s-37 -28 -50 -47s-22.667 -40 -29 -63s-9.5 -44.833 -9.5 -65.5
c0 -20 3.5 -40.667 10.5 -62s17.333 -40.833 31 -58.5s30.5 -32.167 50.5 -43.5s43.333 -17 70 -17c24 0 47 3.83301 69 11.5s41.5 19.167 58.5 34.5s30.667 34.333 41 57s15.5 49 15.5 79c0 32 -5.33301 60 -16 84s-24.667 44.167 -42 60.5s-37 28.5 -59 36.5
s-44.333 12 -67 12z" />
    <glyph glyph-name="r" unicode="r" horiz-adv-x="339" 
d="M248 509c50 0 90.998 -13.668 122.998 -41.001l-36 -63c-11.333 10.667 -24.333 19.334 -39 26.001s-30.667 10 -48 10c-23.333 0 -44.166 -4.66699 -62.499 -14s-33.666 -22.166 -45.999 -38.499s-21.666 -35.333 -27.999 -57s-9.5 -44.834 -9.5 -69.501v-262h-71v500
h71l1 -70c6.66699 10 15.5 19.667 26.5 29s23 17.833 36 25.5s26.667 13.667 41 18s28.166 6.5 41.499 6.5z" />
    <glyph glyph-name="s" unicode="s" horiz-adv-x="380" 
d="M93 374c0 -10 3.16797 -19.1689 9.50098 -27.502s14.666 -16.333 24.999 -24s22.333 -14.834 36 -21.501l42.5 -20c18 -8.66699 36.333 -18 55 -28s35.834 -21 51.501 -33s28.334 -25.5 38.001 -40.5s14.5 -31.833 14.5 -50.5c0 -40 -15.333 -72.5 -46 -97.5
s-73 -37.5 -127 -37.5c-25.333 0 -48.833 2.33301 -70.5 7s-40.667 10 -57 16s-29.5 11.833 -39.5 17.5s-16.333 9.16699 -19 10.5l32 57c8.66699 -4 19 -8.33301 31 -13s24.833 -9.16699 38.5 -13.5s27.667 -8 42 -11s28.5 -4.5 42.5 -4.5c27.333 0 49.5 5.83301 66.5 17.5
s25.5 28.834 25.5 51.501c0 10 -2.66699 18.667 -8 26s-12.5 14.333 -21.5 21s-19.667 13 -32 19s-25.5 12 -39.5 18v-1l-14 6c-17.333 8 -34.5 16.333 -51.5 25s-32.333 19.167 -46 31.5s-24.834 26.833 -33.501 43.5s-13 37 -13 61c0 38 13.833 68.667 41.5 92
s66.5 35 116.5 35c19.333 0 37.166 -1.66699 53.499 -5s30.666 -7 42.999 -11s22.5 -8 30.5 -12s13.333 -7 16 -9c-6 -9.33301 -11 -18.166 -15 -26.499s-8.66699 -17.5 -14 -27.5c-12 6 -28.167 12.167 -48.5 18.5s-42.166 9.5 -65.499 9.5c-28 0 -50 -6.66699 -66 -20
s-24 -29.666 -24 -48.999z" />
    <glyph glyph-name="t" unicode="t" horiz-adv-x="339" 
d="M207 -5c-87.333 0 -130.999 52.665 -130.999 157.998v276h-50v71h50v104h71v-104h137v-71h-137v-276c0 -9.33301 0.5 -19.166 1.5 -29.499s3.5 -19.833 7.5 -28.5s9.66699 -15.667 17 -21s17.666 -8 30.999 -8c10.667 0 20 2 28 6s16.667 12 26 24
c10 -7.33301 19.167 -13.666 27.5 -18.999l27.5 -18c-12 -16.667 -27 -31.5 -45 -44.5s-38.333 -19.5 -61 -19.5z" />
    <glyph glyph-name="u" unicode="u" horiz-adv-x="493" 
d="M371 500h74v-500h-74l-1 70c-9.33301 -14 -21 -26.667 -35 -38c-12 -9.33301 -27 -18 -45 -26s-39.333 -12 -64 -12c-35.333 0 -65.666 6.66699 -90.999 20s-46.166 31.333 -62.499 54s-28.333 49 -36 79s-11.5 61.333 -11.5 94v259h74v-261c0 -20 1.66699 -40.667 5 -62
s9.66602 -40.833 18.999 -58.5s22.166 -32 38.499 -43s37.833 -16.5 64.5 -16.5c24 0 45 4.66699 63 14s33.167 22.166 45.5 38.499s21.5 35.333 27.5 57s9 44.834 9 69.501v262z" />
    <glyph glyph-name="v" unicode="v" horiz-adv-x="540" 
d="M541 500l-58.999 -115l-58 -113l-150 -291l-60 115l-57.5 111l-56.5 110.5l-58 113.5l-37 69h82l188 -358c2.66699 6 6.16699 13.333 10.5 22l13 27l13 27c4.33301 8.66699 8.16602 16 11.499 22l45.5 87.5l46.5 87.5l43 85h83z" />
    <glyph glyph-name="w" unicode="w" horiz-adv-x="759" 
d="M747 500l-183 -520l-178 354l-89 -177.5l-90 -176.5l-91 260l-91 260h70l123 -351l84 167l84 168l168 -335l123 351h70z" />
    <glyph glyph-name="x" unicode="x" horiz-adv-x="511" 
d="M304 281l215 -280.998h-91l-170 220l-29.5 -37.5l-29.5 -37.5l-112 -145h-91l217 281c-9.33301 11.333 -18.833 23.666 -28.5 36.999s-19.167 25.666 -28.5 36.999l-112 145h92l122 -158l121 158h91z" />
    <glyph glyph-name="y" unicode="y" horiz-adv-x="525" 
d="M510 500l-406.999 -756.001h-87l208 386l-112 184.5l-112 185.5h85l181 -296l25 46l22 41.5l21 37.5c15.333 26.667 30.166 53.834 44.499 81.501l42.5 81.5v-1l5 9h84z" />
    <glyph glyph-name="z" unicode="z" horiz-adv-x="456" 
d="M159 76h246v-73h-379l272 425h-241v72h371z" />
    <glyph glyph-name="braceleft" unicode="{" horiz-adv-x="299" 
d="M159 403l-11.002 -11.501c-4 -4.33301 -9 -8.83301 -15 -13.5c8.66699 -7.33301 16.834 -15.5 24.501 -24.5s12.834 -16.167 15.501 -21.5h-1c2.66699 -5.33301 5 -14.5 7 -27.5s3.66699 -27.5 5 -43.5s2.5 -32 3.5 -48s1.5 -30 1.5 -42v-45
c0 -20.667 2 -35.334 6 -44.001c1.33301 -3.33301 4.83301 -7.16602 10.5 -11.499s15.834 -6.5 30.501 -6.5h19v-65h-27c-21.333 0 -38.833 2.83301 -52.5 8.5s-25.167 13.834 -34.5 24.501c-4 6 -7.33301 12 -10 18s-4.83398 13.833 -6.50098 23.5s-3 21.667 -4 36
s-1.5 33.166 -1.5 56.499c0 28.667 -0.333008 54.167 -1 76.5s-2.83398 40.833 -6.50098 55.5s-9.66699 25.834 -18 33.501s-20.166 11.5 -35.499 11.5h-8v68h8c14.667 0 26.167 3.33301 34.5 10s14.5 17.167 18.5 31.5s6.33301 32.666 7 54.999s1 49.166 1 80.499
c0 32.667 1.33301 59.834 4 81.501s8 38.834 16 51.501s19 21.5 33 26.5s32.667 7.5 56 7.5h27v-64h-19c-13.333 0 -23 -1.5 -29 -4.5s-9.66699 -5.16699 -11 -6.5c-2 -4.66699 -3.66699 -10.5 -5 -17.5s-2 -17.5 -2 -31.5v-49c0 -40 -2.16699 -75.833 -6.5 -107.5
s-11.5 -55.167 -21.5 -70.5v1zM221.998 70.999c-14.667 0 -23.667 4 -27 12l7 5z" />
    <glyph glyph-name="bar" unicode="|" horiz-adv-x="172" 
d="M120 704v-959h-62v959h62z" />
    <glyph glyph-name="braceright" unicode="}" horiz-adv-x="299" 
d="M95 71c1.33301 0 4.66699 1.66699 10 5l-2 8l-8 -2v-11zM144.001 404c-10.667 15.333 -18.168 38.835 -22.501 70.502s-6.5 67.5 -6.5 107.5v49c0 13.333 -0.833008 23.666 -2.5 30.999s-3.16699 13.333 -4.5 18c-1.33301 1.33301 -5 3.5 -11 6.5s-15.667 4.5 -29 4.5
h-18v64h26c22.667 0 41.167 -2.5 55.5 -7.5s25.5 -13.833 33.5 -26.5s13.5 -29.834 16.5 -51.501s4.5 -48.834 4.5 -81.501c0 -31.333 0.333008 -58.166 1 -80.499s2.83398 -40.666 6.50098 -54.999s9.66699 -24.833 18 -31.5s20.166 -10 35.499 -10h8v-68h-8
c-15.333 0 -27.166 -3.83301 -35.499 -11.5s-14.333 -18.834 -18 -33.501s-5.83398 -33.167 -6.50098 -55.5s-1 -47.833 -1 -76.5c0 -23.333 -0.5 -42.333 -1.5 -57s-2.33301 -26.834 -4 -36.501s-4 -17.334 -7 -23.001s-6.5 -11.5 -10.5 -17.5
c-9.33301 -11.333 -20.833 -19.666 -34.5 -24.999s-31.167 -8 -52.5 -8h-26v65h18c15.333 0 25.833 2.5 31.5 7.5s10.167 9.83301 13.5 14.5h-2c2.66699 7.33301 4 20.666 4 39.999v45c0 12 0.333008 26 1 42s1.83398 32 3.50098 48s3.5 30.5 5.5 43.5s4.33301 22.5 7 28.5
c2.66699 5.33301 8 12.5 16 21.5s15.667 16.833 23 23.5c-8 6.66699 -13.833 11.834 -17.5 15.501s-6.5 6.83398 -8.5 9.50098z" />
    <glyph glyph-name="asciitilde" unicode="~" horiz-adv-x="453" 
d="M407 369l0.00390625 -1.99805c0.666992 -3.33301 1 -8.66602 1 -15.999c0 -34 -10 -60.5 -30 -79.5s-44 -28.5 -72 -28.5c-19.333 0 -34.833 2.66699 -46.5 8s-23.167 11.666 -34.5 18.999l-12 8h1c-6 3.33301 -13.333 7 -22 11s-19.667 8.66699 -33 14l1 -1
c-2.66699 1.33301 -5.16699 2.16602 -7.5 2.49902s-4.5 0.5 -6.5 0.5c-14.667 0 -24.834 -6.83301 -30.501 -20.5s-9.16699 -28.167 -10.5 -43.5h-56v16c0 13.333 1.83301 26.666 5.5 39.999s9.66699 25.333 18 36s19 19.334 32 26.001s28.833 10 47.5 10
c11.333 0 23.666 -3 36.999 -9s26.666 -13 39.999 -21c14 -9.33301 27.5 -17.166 40.5 -23.499s26.167 -9.5 39.5 -9.5c3.33301 0 7.16602 0.666992 11.499 2s9.16602 4.66602 14.499 9.99902c2 1.33301 4.83301 5.16602 8.5 11.499s5.83398 19.833 6.50098 40.5h55z" />
    <glyph glyph-name="exclamdown" unicode="&#xa1;" horiz-adv-x="190" 
d="M79 292.01c-2 -28.665 -4.33301 -55.4961 -7 -80.4951s-5 -51.1641 -7 -78.4951l-4 -52.4971l-4 -52.4971v-281.982h72v281.982l-11 133.992c-2 21.999 -3.83301 43.6641 -5.5 64.9961s-3.16699 42.9971 -4.5 64.9961h-29zM46 371.006h95v90.9941h-95v-90.9941z" />
    <glyph glyph-name="cent" unicode="&#xa2;" horiz-adv-x="480" 
d="M274 61c-26 0 -50.668 5.00195 -74.001 15.002s-43.666 23.5 -60.999 40.5s-31.166 36.667 -41.499 59s-15.5 45.5 -15.5 69.5c0 26.667 5.16699 51.667 15.5 75s24.166 43.833 41.499 61.5s37.666 31.667 60.999 42s48 15.5 74 15.5c23.333 0 45 -4.16699 65 -12.5
s39.667 -19.166 59 -32.499l49 50c-28 21.333 -56.167 36.666 -84.5 45.999s-57.833 14 -88.5 14c-36.667 0 -70.667 -6.5 -102 -19.5s-58.5 -31.167 -81.5 -54.5s-41 -50.833 -54 -82.5s-19.5 -65.834 -19.5 -102.501c0 -34.667 6.5 -67.167 19.5 -97.5
s31 -56.666 54 -78.999s50.167 -40 81.5 -53s65.333 -19.5 102 -19.5c30.667 0 60.167 4.66699 88.5 14s56.5 24.666 84.5 45.999l-49 50c-20.667 -14.667 -40.667 -25.834 -60 -33.501s-40.666 -11.5 -63.999 -11.5zM303.999 571.002v-653h-60v653h60z" />
    <glyph glyph-name="sterling" unicode="&#xa3;" horiz-adv-x="460" 
d="M174 302c-7.33301 -46 -16.835 -88.998 -28.502 -128.998s-22.5 -75.333 -32.5 -106h317v-67h-421l20 47v1c2.66699 5.33301 7 15.5 13 30.5s12.667 33.667 20 56s15 47.666 23 75.999s15 58.833 21 91.5h-48v67h55c0.666992 7.33301 1 16.5 1 27.5v26.5v20
c0 16.667 0.333008 34 1 52s2.33398 35 5.00098 51c7.33301 27.333 18.166 51.166 32.499 71.499s30 37 47 50s34 22.667 51 29s31.833 9.5 44.5 9.5c27.333 0 52.5 -5.16699 75.5 -15.5s42.167 -23.166 57.5 -38.499c-6 -4.66699 -11.333 -9.33398 -16 -14.001l-14 -14
l-22 -18c-9.33301 10 -20.666 18 -33.999 24s-27.666 9 -42.999 9s-29.5 -3.83301 -42.5 -11.5s-25.167 -16.167 -36.5 -25.5c-14 -22.667 -23.667 -47.667 -29 -75s-8.33301 -57 -9 -89v-17v-24.5c0 -11 -0.333008 -20.167 -1 -27.5h142v-67h-149z" />
    <glyph glyph-name="currency" unicode="&#xa4;" horiz-adv-x="507" 
d="M462 504c0 -20 -3.33496 -40.001 -10.002 -60.001s-15.667 -39.333 -27 -58l34 -35l-24 -23.5l-23 -22.5l-34 35c-40.667 -24.667 -80 -37 -118 -37c-19.333 0 -39.166 2.83301 -59.499 8.5s-40.166 14.834 -59.499 27.501c-4 -3.33301 -9.66699 -9 -17 -17
s-13.333 -14.333 -18 -19c-5.33301 4.66699 -10.166 9.33398 -14.499 14.001s-8.5 9.66699 -12.5 15c-3.33301 3.33301 -6.33301 6.66602 -9 9.99902s-5.66699 6.66602 -9 9.99902l35 35c-12.667 19.333 -22.334 38.833 -29.001 58.5s-10 39.167 -10 58.5s3.33301 39 10 59
s16 39.667 28 59l-10.5 11c-3.66699 4 -7.16699 7.33301 -10.5 10h1l-15 14c6.66699 6 11.667 11 15 15s7.66602 8.66699 12.999 14l19 19l34 -35c19.333 12.667 39 22 59 28s40 9 60 9c19.333 0 39 -3 59 -9s39.667 -15.667 59 -29l26 26h-3
c6.66699 3.33301 11.334 6.33301 14.001 9c6 -5.33301 11.667 -11.166 17 -17.499l15 -17.5c1.33301 -2 3.33301 -3.83301 6 -5.5s4.66699 -3.5 6 -5.5l-35 -35c12 -20 21.333 -40 28 -60s10 -39.667 10 -59zM113.998 503.999c0 -20 3.83301 -38.833 11.5 -56.5
s18 -33.167 31 -46.5s28.333 -23.833 46 -31.5s36.834 -11.5 57.501 -11.5c20 0 38.833 3.83301 56.5 11.5s33.167 18.167 46.5 31.5s23.833 28.833 31.5 46.5s11.5 36.5 11.5 56.5c0 20.667 -3.83301 39.834 -11.5 57.501s-18.167 33 -31.5 46s-28.833 23.333 -46.5 31
s-36.5 11.5 -56.5 11.5c-20.667 0 -39.834 -3.83301 -57.501 -11.5s-33 -18 -46 -31s-23.333 -28.333 -31 -46s-11.5 -36.834 -11.5 -57.501z" />
    <glyph glyph-name="yen" unicode="&#xa5;" horiz-adv-x="643" 
d="M371 367l-12 -14v-353h-70v353l-59 77.5l-62 80.5l-146 193h88l214 -282l72.5 98l74.5 99l65 85h89zM538 244v-72h-426v72h426zM538 397v-70h-426v70h426z" />
    <glyph glyph-name="brokenbar" unicode="&#xa6;" horiz-adv-x="214" 
d="M83 142h60v-397h-60v397zM143 704v-398h-60v398h60z" />
    <glyph glyph-name="section" unicode="&#xa7;" 
d="M401 94c25.333 -16.667 44.667 -36.9961 58 -60.9961s20 -49 20 -75c0 -30 -6.5 -56 -19.5 -78s-29.833 -40.333 -50.5 -55s-43.834 -25.5 -69.501 -32.5s-51.167 -10.5 -76.5 -10.5c-42 0 -79.667 7.33301 -113 22s-61 30.667 -83 48v71
c32.667 -22.667 65.5 -41 98.5 -55s65.5 -21 97.5 -21c49.333 0 86 10 110 30s36 47 36 81c0 15.333 -3.66699 29 -11 41s-17.333 23 -30 33s-27.667 19.5 -45 28.5s-36 18.167 -56 27.5c-29.333 14 -55.166 27.333 -77.499 40s-41 26.334 -56 41.001s-26.333 31 -34 49
s-11.5 38.667 -11.5 62c0 28.667 8.5 56.667 25.5 84s38.833 51.666 65.5 72.999c-40 22 -70.833 45.5 -92.5 70.5s-32.5 55.167 -32.5 90.5c0 23.333 4.83301 44.666 14.5 63.999s23.167 35.833 40.5 49.5s38 24.334 62 32.001s50.333 11.5 79 11.5
c36 0 66.333 -3.33301 91 -10s51 -16.667 79 -30v-75c-34 20 -64.167 33.333 -90.5 40s-52.833 10 -79.5 10c-14 0 -28.667 -2.33301 -44 -7s-29.333 -11.167 -42 -19.5s-23 -18.333 -31 -30s-12 -24.834 -12 -39.501c0 -16.667 5.83301 -31.667 17.5 -45
s26.5 -25.833 44.5 -37.5s38.333 -22.334 61 -32.001l68 -28.5c18 -8.66699 35 -19 51 -31s30 -25.333 42 -40s21.5 -30.334 28.5 -47.001s10.5 -34.334 10.5 -53.001c0 -30.667 -8 -59.167 -24 -85.5s-36.667 -48.833 -62 -67.5c4 -6 8.66699 -11 14 -15h-3l31 -18h1z
M391.001 111.004l0.000976562 -10c-2.66699 0 -4.33398 0.333008 -5.00098 1l-2 2c-2 1.33301 -4 2.5 -6 3.5s-4 2.5 -6 4.5zM409.002 99.0039l-8 -5l-1 1zM266.002 164.004c16 0 31.167 3 45.5 9s26.666 14.167 36.999 24.5s18.5 22.666 24.5 36.999s9 29.5 9 45.5
s-3 31 -9 45s-14.167 26.167 -24.5 36.5s-22.666 18.5 -36.999 24.5s-29.5 9 -45.5 9s-31.167 -3 -45.5 -9s-26.666 -14.167 -36.999 -24.5s-18.5 -22.5 -24.5 -36.5s-9 -29 -9 -45s3 -31.167 9 -45.5s14.167 -26.666 24.5 -36.999s22.666 -18.5 36.999 -24.5
s29.5 -9 45.5 -9z" />
    <glyph glyph-name="dieresis" unicode="&#xa8;" horiz-adv-x="382" 
d="M256 841h72v-69h-72v69zM70 841h72v-69h-72v69z" />
    <glyph glyph-name="copyright" unicode="&#xa9;" horiz-adv-x="732" 
d="M370 531c-26 0 -49.999 -4.66504 -71.999 -13.998s-41 -22 -57 -38s-28.5 -34.833 -37.5 -56.5s-13.5 -44.834 -13.5 -69.501c0 -26 4.5 -50 13.5 -72s21.5 -41 37.5 -57s35 -28.667 57 -38s46 -14 72 -14c22 0 43.167 3.5 63.5 10.5s40.166 19.167 59.499 36.5l30 -28
c-23.333 -19.333 -48.5 -34.5 -75.5 -45.5s-52.833 -16.5 -77.5 -16.5c-30 0 -58.167 5.83301 -84.5 17.5s-49.5 27.667 -69.5 48s-35.667 44 -47 71s-17 56.167 -17 87.5c0 30.667 5.66699 59.5 17 86.5s27 50.5 47 70.5s43.167 35.667 69.5 47s54.5 17 84.5 17
c25.333 0 51.5 -4.83301 78.5 -14.5s52.5 -23.834 76.5 -42.501l-32 -27c-38.667 27.333 -79.667 41 -123 41zM370.001 704.002c44.667 0 88.168 -8.5 130.501 -25.5s80 -41 113 -72s59.5 -68.167 79.5 -111.5s30 -91.333 30 -144c0 -47.333 -9.33301 -92.333 -28 -135
s-44 -80 -76 -112s-69.333 -57.5 -112 -76.5s-88.334 -28.5 -137.001 -28.5c-46 0 -90.333 9 -133 27s-80.167 42.667 -112.5 74s-58.166 68.5 -77.499 111.5s-29 89.5 -29 139.5c0 46 8.66699 90.333 26 133s41.666 80.167 72.999 112.5s68.5 58.333 111.5 78
s90.167 29.5 141.5 29.5zM370.002 38.002c43.333 0 84.166 8.16699 122.499 24.5s71.666 38.666 99.999 66.999s50.833 61.5 67.5 99.5s25 78.667 25 122c0 44 -8.33301 85 -25 123s-39.167 71.167 -67.5 99.5s-61.666 50.666 -99.999 66.999s-79.166 24.5 -122.499 24.5
s-84 -8.16699 -122 -24.5s-71.333 -38.666 -100 -66.999s-51.167 -61.5 -67.5 -99.5s-24.5 -79 -24.5 -123c0 -43.333 8.16699 -84 24.5 -122s38.833 -71.167 67.5 -99.5s62 -50.666 100 -66.999s78.667 -24.5 122 -24.5z" />
    <glyph glyph-name="ordfeminine" unicode="&#xaa;" horiz-adv-x="230" 
d="M210.372 534.073c1.03809 -1.29688 2.20508 -2.33301 3.50293 -3.11133s2.5957 -1.42676 3.89355 -1.94531s2.72559 -0.77832 4.2832 -0.77832v-27.2373c-12.459 0 -21.7383 3.37207 -27.8379 10.1162c-6.09961 6.74512 -10.1875 16.7324 -12.2646 29.9619
c-2.33594 -4.15039 -5.58008 -8.625 -9.7334 -13.4238s-9.21484 -9.20898 -15.1846 -13.2295s-12.9131 -7.39258 -20.8301 -10.1162c-7.91602 -2.72363 -16.8057 -4.08594 -26.6699 -4.08594c-8.8252 0 -17.4551 1.03809 -25.8906 3.11328
c-8.43652 2.0752 -15.9639 5.31738 -22.582 9.72754c-6.61914 4.40918 -11.9404 9.98633 -15.9629 16.7305c-4.02344 6.74512 -6.03516 14.916 -6.03516 24.5137c0 13.2295 2.85547 24.4482 8.56543 33.6572c5.70996 9.20801 13.1074 16.7305 22.1924 22.5674
s19.2725 10.0518 30.5635 12.6455c11.291 2.59473 22.6465 3.8916 34.0674 3.8916c6.74902 0 13.8867 -0.389648 21.4141 -1.16797s15.5742 -2.20508 24.1396 -4.28027c0 9.0791 -1.49219 16.7959 -4.47754 23.1514c-2.98535 6.35449 -6.81348 11.4775 -11.4854 15.3691
c-4.67285 3.8916 -10.0586 6.74512 -16.1582 8.56055s-12.2646 2.72363 -18.4941 2.72363c-10.1221 0 -20.4395 -2.20508 -30.9521 -6.61523c-10.5127 -4.40918 -20.3115 -10.8945 -29.3965 -19.4551c-4.41309 6.74512 -7.59277 11.3496 -9.53906 13.8135
s-3.56836 4.7334 -4.86621 6.80859c11.9404 9.85645 24.4648 17.3145 37.5732 22.373c13.1084 5.05762 25.8916 7.58691 38.3496 7.58691c14.0166 0 25.957 -1.88086 35.8203 -5.6416c9.86328 -3.76172 17.9092 -8.9502 24.1387 -15.5645s10.707 -14.4609 13.4326 -23.54
s4.08789 -19.0664 4.08789 -29.9619c0 -8.81934 -0.324219 -17.6387 -0.972656 -26.458c-0.649414 -8.81934 -0.973633 -18.1572 -0.973633 -28.0146c0 -7.2627 0.259766 -13.8125 0.77832 -19.6494c0.519531 -5.83691 1.6875 -10.1816 3.50391 -13.0352zM109.531 523.18
c14.0166 0 25.6309 2.52832 34.8457 7.58594c9.21387 5.05859 16.4814 11.1543 21.8027 18.2881s9.02051 14.3975 11.0967 21.791c2.07617 7.39258 3.11426 13.4238 3.11426 18.0928v10.1162l-19.4668 2.5293c-7.00781 0.908203 -13.7568 1.3623 -20.2461 1.3623
c-8.30566 0 -16.7412 -0.713867 -25.3066 -2.14062s-16.4824 -3.82617 -23.75 -7.19824c-7.26855 -3.37207 -13.1738 -7.97656 -17.7158 -13.8125c-4.54199 -5.83691 -6.81348 -13.165 -6.81348 -21.9844c0 -3.1123 0.519531 -6.61426 1.55762 -10.5059
c1.03809 -3.89062 3.0498 -7.65234 6.03516 -11.2842s7.26855 -6.67969 12.8496 -9.14355c5.58008 -2.46387 12.9121 -3.69629 21.9971 -3.69629z" />
    <glyph glyph-name="guillemotleft" unicode="&#xab;" horiz-adv-x="815" 
d="M55 307l102 59.5l97 56.5l96 56.5l100 59.5v-82l-261 -150l80 -47h-1l182 -106v-77zM366 307l198 116l197 116v-82l-261 -150l81 -47h-1l181 -106v-77z" />
    <glyph glyph-name="logicalnot" unicode="&#xac;" horiz-adv-x="467" 
d="M425 305h-60v137h-319v61h379v-198z" />
    <glyph glyph-name="registered" unicode="&#xae;" horiz-adv-x="730" 
d="M367 704c48 0 93.333 -9.16992 136 -27.5029s80 -43.333 112 -75s57.5 -69 76.5 -112s28.5 -89.167 28.5 -138.5c0 -46.667 -9.16699 -91.167 -27.5 -133.5s-43.333 -79.666 -75 -111.999s-69 -58.166 -112 -77.499s-89.167 -29 -138.5 -29
c-46.667 0 -91.334 9 -134.001 27s-80.167 42.833 -112.5 74.5s-58 68.834 -77 111.501s-28.5 89 -28.5 139c0 47.333 9.16699 92.333 27.5 135s43.333 80.167 75 112.5s68.834 58 111.501 77s88.667 28.5 138 28.5zM367 38.9971c42.667 0 83 8.16699 121 24.5
s71.333 38.5 100 66.5s51.167 61 67.5 99s24.5 78.667 24.5 122c0 42.667 -8.16699 83 -24.5 121s-38.833 71.333 -67.5 100s-62 51.167 -100 67.5s-78.333 24.5 -121 24.5c-43.333 0 -84 -8.16699 -122 -24.5s-71.167 -38.833 -99.5 -67.5s-50.666 -62 -66.999 -100
s-24.5 -78.333 -24.5 -121c0 -43.333 8.16699 -84 24.5 -122s38.666 -71 66.999 -99s61.5 -50.167 99.5 -66.5s78.667 -24.5 122 -24.5zM466 450.997c0 -25.333 -5.83203 -47.335 -17.499 -66.002s-29.834 -33.334 -54.501 -44.001l129 -199h-49l-123 192h-68v-192h-41v432
h86c6 0.666992 16.667 0.833984 32 0.500977s30.833 -4.16602 46.5 -11.499s29.5 -19.666 41.5 -36.999s18 -42.333 18 -75zM340.001 373.995c20.667 0 36.667 3.16699 48 9.5s19.5 13.833 24.5 22.5s8 17.334 9 26.001s1.5 15 1.5 19c0 18 -2.5 32 -7.5 42
s-12 17.667 -21 23s-19.5 8.66602 -31.5 9.99902s-25 2 -39 2h-41v-154h57z" />
    <glyph glyph-name="macron" unicode="&#xaf;" horiz-adv-x="536" 
d="M489 837v-71h-443v71h443z" />
    <glyph glyph-name="degree" unicode="&#xb0;" horiz-adv-x="243" 
d="M124 756c10.667 0 20.835 -2.16797 30.502 -6.50098s18.167 -10 25.5 -17s13.166 -15.333 17.499 -25s6.5 -19.834 6.5 -30.501c0 -11.333 -2.16699 -21.833 -6.5 -31.5s-10.166 -18.167 -17.499 -25.5s-15.833 -13.166 -25.5 -17.499s-19.834 -6.5 -30.501 -6.5
c-22 0 -41 8 -57 24s-24 35 -24 57c0 10.667 2.16699 20.834 6.5 30.501s10.166 18 17.499 25s15.833 12.667 25.5 17s20.167 6.5 31.5 6.5zM124.001 625.999c14.667 0 26.5 5 35.5 15s13.5 22 13.5 36c0 13.333 -4.5 25 -13.5 35s-20.833 15 -35.5 15
c-15.333 0 -27.666 -5 -36.999 -15s-14 -21.667 -14 -35c0 -14 4.66699 -26 14 -36s21.666 -15 36.999 -15z" />
    <glyph glyph-name="plusminus" unicode="&#xb1;" horiz-adv-x="445" 
d="M379 70v-70h-311v70h311zM189 226h-121v70h121v119h70v-119h120v-70h-120v-122h-70v122z" />
    <glyph glyph-name="twosuperior" unicode="&#xb2;" horiz-adv-x="308" 
d="M279.924 338.59l0.000976562 -38.5898h-257.245l96.8223 106.975c26.3115 30.4561 47.6064 57.0342 63.8857 79.7344c16.2783 22.7002 28.0137 42.1846 35.2061 58.4531c7.19336 16.2686 10.79 30.4561 10.79 42.5625c0 12.8643 -2.08203 24.3086 -6.24707 34.334
c-4.16406 10.0264 -9.55859 18.4443 -16.1836 25.2539c-6.625 6.81055 -14.1963 11.918 -22.7148 15.3232s-17.1309 5.10742 -25.8379 5.10742c-38.9941 0 -63.4131 -24.0244 -73.2559 -72.0732h-39.1836c2.65039 18.1602 7.76172 34.0508 15.333 47.6709
s16.5625 24.9697 26.9736 34.0498s21.8633 15.8906 34.3564 20.4307s24.9863 6.80957 37.4795 6.80957c15.9004 0 30.5703 -2.93164 44.0098 -8.7959c13.4404 -5.86426 24.9873 -13.999 34.6406 -24.4033s17.2246 -22.5107 22.7139 -36.3203
s8.23438 -28.6592 8.23438 -44.5488c0 -17.0254 -4.07031 -35.0908 -12.21 -54.1963c-8.13965 -19.1064 -19.4023 -39.1582 -33.7881 -60.1562c-14.3857 -20.9971 -31.2324 -42.9404 -50.54 -65.8301l-61.8975 -71.79h168.657z" />
    <glyph glyph-name="threesuperior" unicode="&#xb3;" horiz-adv-x="293" 
d="M213.189 513.594c9.85645 -7.58984 18.7686 -16.3174 26.7295 -26.1836c6.44531 -8.72754 12.5107 -19.2578 18.1973 -31.5908s8.53027 -26.4688 8.53027 -42.4072s-3.12793 -31.0225 -9.38281 -45.2529c-6.25488 -14.2295 -14.6904 -26.752 -25.3057 -37.5674
s-23.0312 -19.3535 -37.2471 -25.6152c-14.2168 -6.26074 -29.2861 -9.3916 -45.209 -9.3916c-14.7852 0 -28.7178 2.65625 -41.7969 7.96875s-24.7363 12.5225 -34.9717 21.6299c-10.2363 9.10742 -18.8613 20.0176 -25.875 32.7305
c-7.0127 12.7119 -11.8467 26.4678 -14.501 41.2676h40.376c4.92871 -18.5947 14.3115 -34.0586 28.1484 -46.3916c13.8379 -12.333 30.0449 -18.5 48.6211 -18.5c10.9941 0 21.3252 1.99219 30.9922 5.97656c9.66699 3.98535 18.0078 9.58301 25.0215 16.793
c7.0127 7.20996 12.6045 15.6533 16.7754 25.3301c4.16992 9.67676 6.25488 20.0176 6.25488 31.0225c0 10.625 -1.89551 20.5859 -5.68652 29.8838c-3.79102 9.29688 -9.00391 17.5508 -15.6377 24.7607c-6.63477 7.20996 -14.5967 12.9023 -23.8848 17.0771
s-19.6191 6.6416 -30.9932 7.40039v38.1367c9.85645 0.379883 18.7656 2.4668 26.7275 6.26172c7.96191 3.79395 14.6914 8.82227 20.1885 15.084c5.49707 6.26074 9.76172 13.376 12.7939 21.3457c3.0332 7.96875 4.5498 16.5068 4.5498 25.6143
s-1.80078 17.7402 -5.40234 25.8994s-8.43555 15.2744 -14.501 21.3457s-13.1738 10.9092 -21.3252 14.5137s-16.7764 5.40723 -25.875 5.40723c-8.34082 0 -16.207 -1.51758 -23.5996 -4.55371s-14.1221 -7.30469 -20.1875 -12.8066
c-6.06543 -5.50293 -11.0889 -11.8594 -15.0703 -19.0693c-3.98047 -7.20996 -6.72852 -14.9893 -8.24512 -23.3379h-38.6689c1.5166 13.6611 5.40234 26.5635 11.6572 38.707s14.1211 22.5791 23.5986 31.3066s20.2822 15.6533 32.4141 20.7764
s24.832 7.68457 38.1006 7.68457c14.4062 0 28.0537 -2.75098 40.9434 -8.25391s24.168 -13.0928 33.835 -22.7695s17.249 -20.8711 22.7461 -33.583c5.49707 -12.7129 8.24609 -26.4688 8.24609 -41.2686c0 -13.6611 -2.17969 -25.709 -6.54004 -36.1445
c-4.35938 -10.4355 -9.19336 -19.4482 -14.501 -27.0381c-6.44434 -8.72754 -13.458 -16.127 -21.04 -22.1982z" />
    <glyph glyph-name="acute" unicode="&#xb4;" horiz-adv-x="270" 
d="M147 765l-71 -0.000976562c6.66699 12.667 12.667 23.334 18 32.001s11 18.667 17 30l45 80h49z" />
    <glyph glyph-name="mu" unicode="&#xb5;" horiz-adv-x="516" 
d="M398 500h74v-500h-74l-1 83c0 -1.33301 -2.66699 -6.83301 -8 -16.5s-14 -20.167 -26 -31.5s-27.167 -21.5 -45.5 -30.5s-39.833 -13.5 -64.5 -13.5c-35.333 0 -65.666 6.83301 -90.999 20.5s-46.166 32 -62.499 55s-28.333 49.667 -36 80s-11.5 61.833 -11.5 94.5v259
h74v-261c0 -20 1.66699 -40.667 5 -62s9.66602 -40.833 18.999 -58.5s22.166 -32 38.499 -43s37.833 -16.5 64.5 -16.5c24 0 45 4.66699 63 14s33.167 22.166 45.5 38.499s21.5 35.333 27.5 57s9 44.834 9 69.501v262zM52 256h74v-511h-74v511z" />
    <glyph glyph-name="mu" unicode="&#x3bc;" horiz-adv-x="516" 
d="M398 500h74v-500h-74l-1 83c0 -1.33301 -2.66699 -6.83301 -8 -16.5s-14 -20.167 -26 -31.5s-27.167 -21.5 -45.5 -30.5s-39.833 -13.5 -64.5 -13.5c-35.333 0 -65.666 6.83301 -90.999 20.5s-46.166 32 -62.499 55s-28.333 49.667 -36 80s-11.5 61.833 -11.5 94.5v259
h74v-261c0 -20 1.66699 -40.667 5 -62s9.66602 -40.833 18.999 -58.5s22.166 -32 38.499 -43s37.833 -16.5 64.5 -16.5c24 0 45 4.66699 63 14s33.167 22.166 45.5 38.499s21.5 35.333 27.5 57s9 44.834 9 69.501v262zM52 256h74v-511h-74v511z" />
    <glyph glyph-name="paragraph" unicode="&#xb6;" horiz-adv-x="567" 
d="M525 704l-0.00292969 -69h-54v-890h-71v890h-103v-885h-69v602c-25.333 1.33301 -49.166 6.83301 -71.499 16.5s-41.666 22.5 -57.999 38.5s-29.166 34.333 -38.499 55s-14 43 -14 67s4.66699 46.667 14 68s22 40 38 56s34.833 28.5 56.5 37.5s44.5 13.5 68.5 13.5h302z
" />
    <glyph glyph-name="periodcentered" unicode="&#xb7;" horiz-adv-x="141" 
d="M33 295h71v-69h-71v69z" />
    <glyph glyph-name="cedilla" unicode="&#xb8;" horiz-adv-x="296" 
d="M211 -55c10 -13.333 14.999 -28.333 14.999 -45c0 -3.33301 -1 -9.83301 -3 -19.5s-7 -19.667 -15 -30s-20.167 -19.5 -36.5 -27.5s-38.833 -12 -67.5 -12h-13.5c-5.66699 0 -11.167 0.666992 -16.5 2v48c14 -2 24.667 -3 32 -3c24.667 0 42.834 4.66699 54.501 14
s17.5 18 17.5 26c0 10 -2.66699 17.833 -8 23.5s-11.5 10 -18.5 13s-14.167 5 -21.5 6s-13 1.5 -17 1.5h-5l14 47h47l-5 -16c10.667 -4 20.167 -8.16699 28.5 -12.5s14.5 -9.5 18.5 -15.5z" />
    <glyph glyph-name="onesuperior" unicode="&#xb9;" horiz-adv-x="143" 
d="M91.375 702.703v-402.703h-40.5v402.703h40.5z" />
    <glyph glyph-name="ordmasculine" unicode="&#xba;" horiz-adv-x="377" 
d="M189 706c24 0 45.667 -5 65 -15s35.666 -24 48.999 -42s23.666 -39.333 30.999 -64s11 -51.334 11 -80.001s-3.66699 -55.167 -11 -79.5s-17.666 -45.5 -30.999 -63.5s-29.666 -32 -48.999 -42s-41 -15 -65 -15s-45.833 5 -65.5 15s-36.167 24 -49.5 42
s-23.666 39.167 -30.999 63.5s-11 50.833 -11 79.5s3.66699 55.334 11 80.001s17.666 46 30.999 64s29.833 32 49.5 42s41.5 15 65.5 15zM189 342c18 0 34.333 4 49 12s27.167 19.333 37.5 34s18.333 32 24 52s8.5 41.667 8.5 65c0 48 -10.667 87.333 -32 118
s-50.333 46 -87 46c-18.667 0 -35.334 -4 -50.001 -12s-27.167 -19.333 -37.5 -34s-18.333 -32 -24 -52s-8.5 -42 -8.5 -66c0 -23.333 2.83301 -45 8.5 -65s13.667 -37.333 24 -52s22.833 -26 37.5 -34s31.334 -12 50.001 -12z" />
    <glyph glyph-name="guillemotright" unicode="&#xbb;" horiz-adv-x="833" 
d="M383 77l0.000976562 77.001l263 153l-263 150v82c23.333 -14.667 45.666 -27.834 66.999 -39.501s43.333 -24.5 66 -38.5l129.5 -76.5l132.5 -77.5zM71.001 76.001v78l263 153l-130.5 75l-132.5 75v82l396 -232z" />
    <glyph glyph-name="onequarter" unicode="&#xbc;" horiz-adv-x="518" 
d="M433 707l-369 -721h-36l368 721h37zM90 702v-355h-31v355h31zM465 -10h-52v120h-172l224 293v-240h39v-53h-39v-120zM340 163h73v91z" />
    <glyph glyph-name="onehalf" unicode="&#xbd;" horiz-adv-x="547" 
d="M428 707l-370 -721h-37l368 721h39zM84 702v-355h-32v355h32zM534 32l0.000976562 -31.9971h-232l89.5 99.5c24.333 28.333 44 53 59 74s25.667 38.833 32 53.5s9.5 27.667 9.5 39c0 25.333 -7.33301 44.666 -22 57.999s-30.334 20 -47.001 20
c-36 0 -59.333 -22.333 -70 -67h-32c2.66699 16 7.5 30 14.5 42s15.333 22 25 30s20 14 31 18s22.167 6 33.5 6c29.333 0 53.333 -9.83301 72 -29.5s28 -44.5 28 -74.5c0 -16 -4 -32.833 -12 -50.5s-18.667 -36.334 -32 -56.001s-29.333 -40.334 -48 -62.001l-59 -68.5h160z
" />
    <glyph glyph-name="threequarters" unicode="&#xbe;" horiz-adv-x="616" 
d="M574 151v-30h-43v-121h-30v121h-162l96 125.5l96 123.5v-219h43zM501 280l-99 -129h99v129zM259 447c0 -14 -2.66895 -27.334 -8.00195 -40.001s-12.5 -23.5 -21.5 -32.5s-19.5 -16.167 -31.5 -21.5s-25 -8 -39 -8c-23.333 0 -44.166 8.16699 -62.499 24.5
s-30.166 36.833 -35.499 61.5h27c6 -15.333 15.5 -28.666 28.5 -39.999s27.167 -17 42.5 -17c21.333 0 39 6.83301 53 20.5s21 31.167 21 52.5c0 16 -7 30.833 -21 44.5s-30 22.834 -48 27.501v29c16 3.33301 29.5 10.666 40.5 21.999s16.5 24.666 16.5 39.999
c0 17.333 -6 32 -18 44s-26.667 18 -44 18c-15.333 0 -28.5 -5 -39.5 -15s-18.167 -22.667 -21.5 -38h-29c3.33301 24 13.5 43.667 30.5 59s36.833 23 59.5 23c12.667 0 24.5 -2.5 35.5 -7.5s20.667 -11.667 29 -20s15 -18 20 -29s7.5 -22.5 7.5 -34.5
c0 -11.333 -3.66699 -23.833 -11 -37.5s-16.666 -26.167 -27.999 -37.5c2 -2 4.5 -4.66699 7.5 -8s6.16699 -6 9.5 -8c1.33301 -3.33301 3.66602 -5 6.99902 -5c15.333 -19.333 23 -41.666 23 -66.999zM534.998 707.999l-185.5 -360.5l-185.5 -360.5h-42l371 721h42z" />
    <glyph glyph-name="questiondown" unicode="&#xbf;" horiz-adv-x="442" 
d="M232.013 -253.957c-25.999 0 -50.667 4.83301 -73.998 14.499c-23.332 9.66602 -43.6641 22.999 -60.9971 39.998c-17.332 16.999 -31.1641 37.1641 -41.4971 60.4961s-15.499 48.6641 -15.499 75.9951c0 23.332 4.33301 44.6641 12.999 63.9961
s20.332 36.998 34.998 52.9971s31.998 29.998 51.9971 41.9971s40.998 22.332 62.9971 30.998v136.992h71.9951v-181.989c-22.665 -4.66602 -43.8301 -11.832 -63.4951 -21.499c-19.665 -9.66602 -36.8311 -21.165 -51.4971 -34.4971
c-14.665 -13.333 -26.1641 -27.666 -34.4971 -42.999c-8.33301 -15.332 -12.5 -30.6641 -12.5 -45.9971c0 -9.33301 1.33301 -20.999 4 -34.998s8.16699 -27.3311 16.5 -39.9971s20.332 -23.499 35.998 -32.498c15.665 -8.99902 36.4971 -13.499 62.4961 -13.499
c25.332 0 47.1641 4.33301 65.4961 12.999s34.8311 19.665 49.4971 32.998c7.99902 -9.99902 15.665 -18.999 22.998 -26.999c7.33301 -7.99902 14.666 -17.332 21.999 -27.998c-22.665 -18.665 -47.9971 -33.4971 -75.9951 -44.4961
c-27.999 -10.999 -55.9971 -16.499 -83.9951 -16.499zM275.007 383.004h-71.9951v67.9961h71.9951v-67.9961z" />
    <glyph glyph-name="Agrave" unicode="&#xc0;" horiz-adv-x="630" 
d="M310 761l-28 70.5l-28 70.5h47l39 -68l38 -67l4 -6h-72zM628 0h-76l-60 142h-349l-61 -142h-76l311 731zM459 213l-142 339l-144 -339h286z" />
    <glyph glyph-name="Aacute" unicode="&#xc1;" horiz-adv-x="630" 
d="M321 760h-70l48 84v-1l32 58h47zM624 -4h-75l-62 141h-348l-62 -141h-73c11.333 28 22.833 55 34.5 81l34.5 79l120.5 283.5l120.5 285.5zM457 207l-143 342l-34 -82.5l-36 -81.5l-18 -41l-20 -45.5l-19.5 -47l-18.5 -44.5h289z" />
    <glyph glyph-name="Acircumflex" unicode="&#xc2;" horiz-adv-x="630" 
d="M282 759h-71l40 70.5l40 70.5h53l80 -141h-69l-39 89zM627 0h-75l-62 141h-348l-62 -141h-73c11.333 28 22.833 55 34.5 81l34.5 79l120.5 283.5l120.5 285.5zM460 211l-143 342l-64 -150l-25.5 -59.5l-24 -55.5l-20 -46.5l-12.5 -30.5h289z" />
    <glyph glyph-name="Atilde" unicode="&#xc3;" horiz-adv-x="630" 
d="M447 859c1.33301 -3.33301 1.99707 -8.33398 1.99707 -15.001c0 -25.333 -7.66699 -45.333 -23 -60s-33.666 -22 -54.999 -22c-8.66699 0 -17.667 1.66699 -27 5c-4 0.666992 -8.33301 2 -13 4s-9 4.33301 -13 7l-12 7h1c-8 5.33301 -17 11 -27 17s-21.333 9 -34 9
c-10.667 0 -18.167 -5.33301 -22.5 -16s-7.16602 -22 -8.49902 -34h-42c-1.33301 4.66699 -1.66602 7 -0.999023 7s1 0.666992 1 2c0 10.667 1.5 21.334 4.5 32.001s7.66699 20.167 14 28.5s14.333 15 24 20s21.167 7.5 34.5 7.5c9.33301 0 18.166 -1.83301 26.499 -5.5
s17.166 -8.16699 26.499 -13.5l9 -4h-1c19.333 -14 40 -22 62 -24c2.66699 -0.666992 5.66699 -1 9 -1s6.83301 1.5 10.5 4.5s6.83398 7.83301 9.50098 14.5s4.33398 16.667 5.00098 30h40zM623.997 -4.00098h-75l-62 141h-348l-62 -141h-73c11.333 28 22.833 55 34.5 81
l34.5 79l120.5 283.5l120.5 285.5zM456.997 206.999l-143 342l-34 -82.5l-36 -81.5l-18 -41l-20 -45.5l-19.5 -47l-18.5 -44.5h289z" />
    <glyph glyph-name="Adieresis" unicode="&#xc4;" horiz-adv-x="630" 
d="M373 836h72v-68h-72v68zM188 836h72v-68h-72v68zM624 -4h-75l-62 141h-348l-62 -141h-73c11.333 28 22.833 55 34.5 81l34.5 79l120.5 283.5l120.5 285.5zM457 207l-143 342l-34 -82.5l-36 -81.5l-18 -41l-20 -45.5l-19.5 -47l-18.5 -44.5h289z" />
    <glyph glyph-name="Aring" unicode="&#xc5;" horiz-adv-x="630" 
d="M316 921c22 0 40.833 -7.83301 56.5 -23.5s23.5 -34.167 23.5 -55.5c0 -22 -7.83301 -41 -23.5 -57s-34.5 -24 -56.5 -24c-10.667 0 -20.834 2.16699 -30.501 6.5s-18.167 10.166 -25.5 17.499s-13.166 15.833 -17.499 25.5s-6.5 20.167 -6.5 31.5
c0 10.667 2.16699 20.834 6.5 30.501s10.166 18 17.499 25s15.833 12.667 25.5 17s19.834 6.5 30.501 6.5zM316 791c14 0 26 4.83301 36 14.5s15 21.834 15 36.501c0 13.333 -5 25 -15 35s-22 15 -36 15s-25.667 -5 -35 -15s-14 -21.667 -14 -35
c0 -14.667 4.66699 -26.834 14 -36.501s21 -14.5 35 -14.5zM624 -4h-75l-62 141h-348l-62 -141h-73c11.333 28 22.833 55 34.5 81l34.5 79l120.5 283.5l120.5 285.5zM457 207l-143 342l-34 -82.5l-36 -81.5l-18 -41l-20 -45.5l-19.5 -47l-18.5 -44.5h289z" />
    <glyph glyph-name="AE" unicode="&#xc6;" horiz-adv-x="835" 
d="M387 322h-109l-173 -321h-75l355 683zM397 388v113l-24 6l-31 -53v2l-38 -68h93zM465 626v-242h243v-64h-243v-255h294v-70h-365v701h365v-70h-294z" />
    <glyph glyph-name="Ccedilla" unicode="&#xc7;" horiz-adv-x="639" 
d="M372 71c34.667 0 68.168 5.50293 100.501 16.5029s63.166 30.167 92.499 57.5l46 -47c-36 -34 -74.167 -59 -114.5 -75s-81.833 -24 -124.5 -24c-48 0 -93 9.16699 -135 27.5s-78.833 43.5 -110.5 75.5s-56.667 69.833 -75 113.5s-27.5 90.5 -27.5 140.5
c0 48 9.16699 93.167 27.5 135.5s43.333 79.166 75 110.499s68.5 56.166 110.5 74.499s87 27.5 135 27.5c42.667 0 84.167 -7.5 124.5 -22.5s78.5 -37.833 114.5 -68.5l-46 -47c-29.333 20.667 -60.333 36.834 -93 48.501s-66 17.5 -100 17.5
c-40.667 0 -78.167 -7.16699 -112.5 -21.5s-64.166 -34 -89.499 -59s-45.166 -54.333 -59.499 -88s-21.5 -69.5 -21.5 -107.5c0 -40.667 7.16699 -78.334 21.5 -113.001s34.166 -64.834 59.499 -90.501s55.166 -45.667 89.499 -60s71.833 -21.5 112.5 -21.5z
M444.001 -54.9971c10 -13.333 14.999 -28.333 14.999 -45c0 -3.33301 -1 -9.83301 -3 -19.5s-7 -19.667 -15 -30s-20.167 -19.5 -36.5 -27.5s-38.833 -12 -67.5 -12h-13.5c-5.66699 0 -11.167 0.666992 -16.5 2v48c14 -2 24.667 -3 32 -3c24.667 0 42.834 4.66699 54.501 14
s17.5 18 17.5 26c0 10 -2.66699 17.833 -8 23.5s-11.5 10 -18.5 13s-14.167 5 -21.5 6s-13 1.5 -17 1.5h-5l14 47h47l-5 -16c10.667 -4 20.167 -8.16699 28.5 -12.5s14.5 -9.5 18.5 -15.5z" />
    <glyph glyph-name="Egrave" unicode="&#xc8;" horiz-adv-x="473" 
d="M175 902h49l39.5 -71l38.5 -70h-70zM393 626v70h-365v-701h365v70h-294v255h243v64h-243v242h294z" />
    <glyph glyph-name="Eacute" unicode="&#xc9;" horiz-adv-x="473" 
d="M247 761h-71l48 84v-1l32 58h47zM99 626v-242h243v-64h-243v-255h294v-70h-365v701h365v-70h-294z" />
    <glyph glyph-name="Ecircumflex" unicode="&#xca;" horiz-adv-x="473" 
d="M345 761h-71l-36 88l-23 -63h1l-7 -14l-5 -11h-71l40.5 70.5l40.5 70.5h52zM99 626v-242h243v-64h-243v-255h294v-70h-365v701h365v-70h-294z" />
    <glyph glyph-name="Edieresis" unicode="&#xcb;" horiz-adv-x="473" 
d="M277 836h71v-68h-71v68zM92 836h71v-68h-71v68zM99 626v-242h243v-64h-243v-255h294v-70h-365v701h365v-70h-294z" />
    <glyph glyph-name="Igrave" unicode="&#xcc;" horiz-adv-x="152" 
d="M109 700v-700h-71v700h71zM15 908h48l40 -71l40 -71h-71z" />
    <glyph glyph-name="Iacute" unicode="&#xcd;" horiz-adv-x="152" 
d="M109 700v-700h-71v700h71zM86 766l-71 -0.000976562c6.66699 12.667 12.667 23.334 18 32.001s11 18.667 17 30l45 80h49z" />
    <glyph glyph-name="Icircumflex" unicode="&#xce;" horiz-adv-x="152" 
d="M109 700v-700h-71v700h71zM187 766h-73.001l-36 89c-5.33301 -12 -11.166 -26.5 -17.499 -43.5l-17.5 -45.5h-71l18.5 32l16.5 30l45 80h54z" />
    <glyph glyph-name="Idieresis" unicode="&#xcf;" horiz-adv-x="152" 
d="M109 700v-700h-71v700h71zM137 836h72v-69h-72v69zM-49 836h72v-69h-72v69z" />
    <glyph glyph-name="Eth" unicode="&#xd0;" horiz-adv-x="728" 
d="M328 700c22 0 46.667 -1.6709 74 -5.00391s54.833 -9.66602 82.5 -18.999s54.5 -22.166 80.5 -38.499s49.167 -37.666 69.5 -63.999s36.666 -58.166 48.999 -95.499s18.5 -81.666 18.5 -132.999c0 -54 -7.5 -100.167 -22.5 -138.5s-34.333 -70.333 -58 -96
s-50.167 -45.834 -79.5 -60.501s-58.166 -25.667 -86.499 -33s-54.833 -12 -79.5 -14s-44 -3 -58 -3h-185v700h195zM318 65.9961c46.667 0 89.002 6.66797 127.002 20.001s70.333 32.166 97 56.499s47.167 53.666 61.5 87.999s21.5 72.5 21.5 114.5
c0 44.667 -6.66699 84.834 -20 120.501s-32.833 66 -58.5 91s-56.834 44.167 -93.501 57.5s-78.334 20 -125.001 20h-123v-568h113zM308.002 374.997v-70h-278v70h278z" />
    <glyph glyph-name="Ntilde" unicode="&#xd1;" horiz-adv-x="569" 
d="M426 855c0.666992 -2 1.00195 -4.16895 1.00195 -6.50195v-5.5c0 -25.333 -7.66699 -45.333 -23 -60s-33.666 -22 -54.999 -22c-9.33301 0 -18.333 1.33301 -27 4c-4.66699 1.33301 -9.83398 3.33301 -15.501 6s-10.834 5.66699 -15.501 9h1l-4 3l-3 1l-28.5 17.5
c-9.66699 5.66699 -20.167 8.5 -31.5 8.5s-19.333 -5.16699 -24 -15.5s-7.66699 -21.833 -9 -34.5h-41c-1.33301 4.66699 -1.66602 7 -0.999023 7s1 0.666992 1 2c0 10.667 1.5 21.334 4.5 32.001s7.5 20.167 13.5 28.5s13.833 15 23.5 20s21.5 7.5 35.5 7.5
c8.66699 0 17.5 -1.83301 26.5 -5.5s18.167 -8.16699 27.5 -13.5l8 -4h-1c9.33301 -6 19.666 -11.167 30.999 -15.5s21.666 -7.16602 30.999 -8.49902c2.66699 -0.666992 5.66699 -1 9 -1s6.66602 1.5 9.99902 4.5s6.33301 7.83301 9 14.5s4.33398 16.667 5.00098 30h39z
M563.002 -31.002l-459 570v-544h-65v730l461 -564v534h63v-726z" />
    <glyph glyph-name="Ograve" unicode="&#xd2;" horiz-adv-x="757" 
d="M379 -3c-50 0 -96.5 9.5 -139.5 28.5s-80.5 44.5 -112.5 76.5s-57 69.333 -75 112s-27 88 -27 136c0 50 9 96.667 27 140s43 80.833 75 112.5s69.5 56.5 112.5 74.5s89.5 27 139.5 27c47.333 0 92.5 -9 135.5 -27s80.667 -42.833 113 -74.5s58.166 -69.167 77.499 -112.5
s29 -90 29 -140c0 -48 -9.66699 -93.333 -29 -136s-45.166 -80 -77.499 -112s-70 -57.5 -113 -76.5s-88.167 -28.5 -135.5 -28.5zM379 633c-40 0 -77.167 -7.16699 -111.5 -21.5s-64 -34.166 -89 -59.499s-44.667 -55.166 -59 -89.499s-21.5 -71.833 -21.5 -112.5
c0 -38 7.16699 -74 21.5 -108s34 -63.833 59 -89.5s54.667 -46.167 89 -61.5s71.5 -23 111.5 -23c38 0 74 7.66699 108 23s64 35.833 90 61.5s46.5 55.5 61.5 89.5s22.5 70 22.5 108c0 40.667 -7.66699 78.167 -23 112.5s-36 64.166 -62 89.499s-56 45.166 -90 59.499
s-69.667 21.5 -107 21.5zM316 908h48l40 -71l40 -71h-71z" />
    <glyph glyph-name="Oacute" unicode="&#xd3;" horiz-adv-x="757" 
d="M379 -3c-50 0 -96.5 9.5 -139.5 28.5s-80.5 44.5 -112.5 76.5s-57 69.333 -75 112s-27 88 -27 136c0 50 9 96.667 27 140s43 80.833 75 112.5s69.5 56.5 112.5 74.5s89.5 27 139.5 27c47.333 0 92.5 -9 135.5 -27s80.667 -42.833 113 -74.5s58.166 -69.167 77.499 -112.5
s29 -90 29 -140c0 -48 -9.66699 -93.333 -29 -136s-45.166 -80 -77.499 -112s-70 -57.5 -113 -76.5s-88.167 -28.5 -135.5 -28.5zM379 633c-40 0 -77.167 -7.16699 -111.5 -21.5s-64 -34.166 -89 -59.499s-44.667 -55.166 -59 -89.499s-21.5 -71.833 -21.5 -112.5
c0 -38 7.16699 -74 21.5 -108s34 -63.833 59 -89.5s54.667 -46.167 89 -61.5s71.5 -23 111.5 -23c38 0 74 7.66699 108 23s64 35.833 90 61.5s46.5 55.5 61.5 89.5s22.5 70 22.5 108c0 40.667 -7.66699 78.167 -23 112.5s-36 64.166 -62 89.499s-56 45.166 -90 59.499
s-69.667 21.5 -107 21.5zM387 766l-71 -0.000976562c6.66699 12.667 12.667 23.334 18 32.001s11 18.667 17 30l45 80h49z" />
    <glyph glyph-name="Ocircumflex" unicode="&#xd4;" horiz-adv-x="757" 
d="M379 -3c-50 0 -96.5 9.5 -139.5 28.5s-80.5 44.5 -112.5 76.5s-57 69.333 -75 112s-27 88 -27 136c0 50 9 96.667 27 140s43 80.833 75 112.5s69.5 56.5 112.5 74.5s89.5 27 139.5 27c47.333 0 92.5 -9 135.5 -27s80.667 -42.833 113 -74.5s58.166 -69.167 77.499 -112.5
s29 -90 29 -140c0 -48 -9.66699 -93.333 -29 -136s-45.166 -80 -77.499 -112s-70 -57.5 -113 -76.5s-88.167 -28.5 -135.5 -28.5zM379 633c-40 0 -77.167 -7.16699 -111.5 -21.5s-64 -34.166 -89 -59.499s-44.667 -55.166 -59 -89.499s-21.5 -71.833 -21.5 -112.5
c0 -38 7.16699 -74 21.5 -108s34 -63.833 59 -89.5s54.667 -46.167 89 -61.5s71.5 -23 111.5 -23c38 0 74 7.66699 108 23s64 35.833 90 61.5s46.5 55.5 61.5 89.5s22.5 70 22.5 108c0 40.667 -7.66699 78.167 -23 112.5s-36 64.166 -62 89.499s-56 45.166 -90 59.499
s-69.667 21.5 -107 21.5zM488 766h-73.001l-36 89c-5.33301 -12 -11.166 -26.5 -17.499 -43.5l-17.5 -45.5h-71l18.5 32l16.5 30l45 80h54z" />
    <glyph glyph-name="Otilde" unicode="&#xd5;" horiz-adv-x="757" 
d="M379 -3c-50 0 -96.5 9.5 -139.5 28.5s-80.5 44.5 -112.5 76.5s-57 69.333 -75 112s-27 88 -27 136c0 50 9 96.667 27 140s43 80.833 75 112.5s69.5 56.5 112.5 74.5s89.5 27 139.5 27c47.333 0 92.5 -9 135.5 -27s80.667 -42.833 113 -74.5s58.166 -69.167 77.499 -112.5
s29 -90 29 -140c0 -48 -9.66699 -93.333 -29 -136s-45.166 -80 -77.499 -112s-70 -57.5 -113 -76.5s-88.167 -28.5 -135.5 -28.5zM379 633c-40 0 -77.167 -7.16699 -111.5 -21.5s-64 -34.166 -89 -59.499s-44.667 -55.166 -59 -89.499s-21.5 -71.833 -21.5 -112.5
c0 -38 7.16699 -74 21.5 -108s34 -63.833 59 -89.5s54.667 -46.167 89 -61.5s71.5 -23 111.5 -23c38 0 74 7.66699 108 23s64 35.833 90 61.5s46.5 55.5 61.5 89.5s22.5 70 22.5 108c0 40.667 -7.66699 78.167 -23 112.5s-36 64.166 -62 89.499s-56 45.166 -90 59.499
s-69.667 21.5 -107 21.5zM518 862c0.666992 -2 1.00195 -4.16602 1.00195 -6.49902v-5.5c0 -25.333 -7.83301 -45.5 -23.5 -60.5s-34.167 -22.5 -55.5 -22.5c-3.33301 0 -7.66602 0.333008 -12.999 1s-11 1.66699 -17 3c-4 1.33301 -8.83301 3.66602 -14.5 6.99902
s-11.167 7.33301 -16.5 12l-29.5 17c-9.66699 5.33301 -20.834 8 -33.501 8s-21 -5 -25 -15s-6.66699 -21.333 -8 -34h-42c-0.666992 3.33301 -0.833984 5.16602 -0.500977 5.49902s0.5 1.16602 0.5 2.49902c0 10.667 1.5 21.334 4.5 32.001s7.66699 20.334 14 29.001
s14.333 15.5 24 20.5s21.5 7.5 35.5 7.5c9.33301 0 19.166 -2.5 29.499 -7.5l30.5 -15.5c9.33301 -5.33301 19.833 -10.5 31.5 -15.5s22.167 -8.16699 31.5 -9.5c2.66699 -0.666992 5.66699 -0.666992 9 0s6.66602 2.5 9.99902 5.5s6.33301 8 9 15
s4.33398 16.5 5.00098 28.5h42z" />
    <glyph glyph-name="Odieresis" unicode="&#xd6;" horiz-adv-x="757" 
d="M379 -3c-50 0 -96.5 9.5 -139.5 28.5s-80.5 44.5 -112.5 76.5s-57 69.333 -75 112s-27 88 -27 136c0 50 9 96.667 27 140s43 80.833 75 112.5s69.5 56.5 112.5 74.5s89.5 27 139.5 27c47.333 0 92.5 -9 135.5 -27s80.667 -42.833 113 -74.5s58.166 -69.167 77.499 -112.5
s29 -90 29 -140c0 -48 -9.66699 -93.333 -29 -136s-45.166 -80 -77.499 -112s-70 -57.5 -113 -76.5s-88.167 -28.5 -135.5 -28.5zM379 633c-40 0 -77.167 -7.16699 -111.5 -21.5s-64 -34.166 -89 -59.499s-44.667 -55.166 -59 -89.499s-21.5 -71.833 -21.5 -112.5
c0 -38 7.16699 -74 21.5 -108s34 -63.833 59 -89.5s54.667 -46.167 89 -61.5s71.5 -23 111.5 -23c38 0 74 7.66699 108 23s64 35.833 90 61.5s46.5 55.5 61.5 89.5s22.5 70 22.5 108c0 40.667 -7.66699 78.167 -23 112.5s-36 64.166 -62 89.499s-56 45.166 -90 59.499
s-69.667 21.5 -107 21.5zM438 836h72v-69h-72v69zM252 836h72v-69h-72v69z" />
    <glyph glyph-name="multiply" unicode="&#xd7;" horiz-adv-x="514" 
d="M304 504l155 -155l-46 -45l-155 154l-156 -154l-44 45l154 155l-154 156l44 45l156 -154l155 154l46 -45z" />
    <glyph glyph-name="Oslash" unicode="&#xd8;" horiz-adv-x="757" 
d="M523 675c31.333 -15.333 59.9961 -34.168 85.9961 -56.501s48.5 -47.5 67.5 -75.5s33.667 -58.333 44 -91s15.5 -66.667 15.5 -102c0 -48 -9.66699 -93.333 -29 -136s-45.166 -80 -77.499 -112s-70 -57.5 -113 -76.5s-88.167 -28.5 -135.5 -28.5
c-11.333 0 -23.166 0.5 -35.499 1.5s-25.5 2.83301 -39.5 5.5l-12 -39l-13 -40h-74l33 102c-32 15.333 -61.167 34.333 -87.5 57s-48.666 48 -66.999 76s-32.5 58 -42.5 90s-15 65.333 -15 100c0 50 9 96.667 27 140s42.833 80.833 74.5 112.5s69 56.5 112 74.5
s89.5 27 139.5 27c10.667 0 22.5 -0.5 35.5 -1.5s26.833 -2.83301 41.5 -5.5l17 58v-1c2.66699 8.66699 5.33398 16.334 8.00098 23.001h74zM99.9961 349.998c0 -52 14.498 -100.502 43.498 -145.502s68.167 -82.167 117.5 -111.5l43 134l43 133l14.5 41l14.5 42l61 185
c-15.333 2.66699 -26.666 4.16699 -33.999 4.5s-14.666 0.5 -21.999 0.5c-40 0 -77.167 -7.16699 -111.5 -21.5s-64 -34.166 -89 -59.499s-44.667 -55.166 -59 -89.499s-21.5 -71.833 -21.5 -112.5zM380.994 67.9961c38 0 74 7.66797 108 23.001s64 35.833 90 61.5
s46.5 55.5 61.5 89.5s22.5 70 22.5 108c0 56.667 -14.5 107.167 -43.5 151.5s-67.833 79.166 -116.5 104.499l-87 -267c-5.33301 -18 -11 -35.833 -17 -53.5l-19 -55.5l-53 -157c10.667 -1.33301 21.5 -2.5 32.5 -3.5s18.167 -1.5 21.5 -1.5z" />
    <glyph glyph-name="Ugrave" unicode="&#xd9;" horiz-adv-x="549" 
d="M521 700l0.000976562 -453c0 -34 -6.33301 -66.333 -19 -97s-30 -57.5 -52 -80.5s-47.833 -41.167 -77.5 -54.5s-61.834 -20 -96.501 -20c-34 0 -66 6.66699 -96 20s-56.167 31.5 -78.5 54.5s-39.833 49.667 -52.5 80s-19 62.833 -19 97.5v453h71v-453
c0 -27.333 4.66699 -52.833 14 -76.5s22 -44.167 38 -61.5s34.5 -30.833 55.5 -40.5s43.5 -14.5 67.5 -14.5s46.667 4.83301 68 14.5s39.833 23.167 55.5 40.5s28.167 37.833 37.5 61.5s14 49.167 14 76.5v453h70zM212.001 908h48l40 -71l40 -71h-71z" />
    <glyph glyph-name="Uacute" unicode="&#xda;" horiz-adv-x="549" 
d="M521 700l0.000976562 -453c0 -34 -6.33301 -66.333 -19 -97s-30 -57.5 -52 -80.5s-47.833 -41.167 -77.5 -54.5s-61.834 -20 -96.501 -20c-34 0 -66 6.66699 -96 20s-56.167 31.5 -78.5 54.5s-39.833 49.667 -52.5 80s-19 62.833 -19 97.5v453h71v-453
c0 -27.333 4.66699 -52.833 14 -76.5s22 -44.167 38 -61.5s34.5 -30.833 55.5 -40.5s43.5 -14.5 67.5 -14.5s46.667 4.83301 68 14.5s39.833 23.167 55.5 40.5s28.167 37.833 37.5 61.5s14 49.167 14 76.5v453h70zM283.001 765l-71 -0.000976562
c6.66699 12.667 12.667 23.334 18 32.001s11 18.667 17 30l45 80h49z" />
    <glyph glyph-name="Ucircumflex" unicode="&#xdb;" horiz-adv-x="549" 
d="M521 700l0.000976562 -453c0 -34 -6.33301 -66.333 -19 -97s-30 -57.5 -52 -80.5s-47.833 -41.167 -77.5 -54.5s-61.834 -20 -96.501 -20c-34 0 -66 6.66699 -96 20s-56.167 31.5 -78.5 54.5s-39.833 49.667 -52.5 80s-19 62.833 -19 97.5v453h71v-453
c0 -27.333 4.66699 -52.833 14 -76.5s22 -44.167 38 -61.5s34.5 -30.833 55.5 -40.5s43.5 -14.5 67.5 -14.5s46.667 4.83301 68 14.5s39.833 23.167 55.5 40.5s28.167 37.833 37.5 61.5s14 49.167 14 76.5v453h70zM384.001 766h-73.001l-36 89
c-5.33301 -12 -11.166 -26.5 -17.499 -43.5l-17.5 -45.5h-71l18.5 32l16.5 30l45 80h54z" />
    <glyph glyph-name="Udieresis" unicode="&#xdc;" horiz-adv-x="549" 
d="M521 700l0.000976562 -453c0 -34 -6.33301 -66.333 -19 -97s-30 -57.5 -52 -80.5s-47.833 -41.167 -77.5 -54.5s-61.834 -20 -96.501 -20c-34 0 -66 6.66699 -96 20s-56.167 31.5 -78.5 54.5s-39.833 49.667 -52.5 80s-19 62.833 -19 97.5v453h71v-453
c0 -27.333 4.66699 -52.833 14 -76.5s22 -44.167 38 -61.5s34.5 -30.833 55.5 -40.5s43.5 -14.5 67.5 -14.5s46.667 4.83301 68 14.5s39.833 23.167 55.5 40.5s28.167 37.833 37.5 61.5s14 49.167 14 76.5v453h70zM334.001 836h72v-69h-72v69zM148.001 836h72v-69h-72v69z
" />
    <glyph glyph-name="Yacute" unicode="&#xdd;" horiz-adv-x="643" 
d="M369 365l-10.998 -14v-351h-71v351l-53 70l-70 92.5l-70 92.5l-70 94h86l213 -280l50 67.5l53 69.5l26 35c13.333 18.667 27.166 36.667 41.499 54s28.166 35.333 41.499 54h87zM330.002 765l-71 -0.000976562c6.66699 12.667 12.667 23.334 18 32.001s11 18.667 17 30
l45 80h49z" />
    <glyph glyph-name="Thorn" unicode="&#xde;" horiz-adv-x="460" 
d="M368 496c19.333 -19.333 34.334 -41.332 45.001 -65.999s16 -51 16 -79c0 -27.333 -5.5 -53.333 -16.5 -78s-25.833 -46.334 -44.5 -65.001s-40.334 -33.5 -65.001 -44.5s-50.667 -16.5 -78 -16.5h-130v-147h-68v704h68v-147h130c26 0 51.5 -5.33301 76.5 -16
s47.167 -25.667 66.5 -45zM225.001 214.001c18.667 0 36.167 3.66797 52.5 11.001s30.833 17.166 43.5 29.499s22.667 26.833 30 43.5s11 34.334 11 53.001c0 19.333 -3.66699 37.5 -11 54.5s-17.333 31.667 -30 44s-27.167 22.166 -43.5 29.499s-33.833 11 -52.5 11h-130
v-276h130z" />
    <glyph glyph-name="germandbls" unicode="&#xdf;" horiz-adv-x="491" 
d="M410 360c40 -37.333 59.9912 -87.9961 59.9912 -151.996c0 -34 -5.5 -64.333 -16.5 -91s-25.667 -49.167 -44 -67.5s-39.833 -32.333 -64.5 -42s-51 -14.5 -79 -14.5c-11.333 0 -22.666 0.833008 -33.999 2.5s-23.666 4.5 -36.999 8.5v80
c24.667 -15.333 48.667 -23 72 -23c10.667 0 23.667 1.5 39 4.5s30.166 9.66699 44.499 20s26.5 25.166 36.5 44.499s15 45.333 15 78c0 24.667 -5 46 -15 64s-22.5 33 -37.5 45s-31.167 21.5 -48.5 28.5s-33.666 12.167 -48.999 15.5c-25.333 4 -45 6 -59 6
c-0.666992 13.333 -1.5 25 -2.5 35s-1.83301 21.667 -2.5 35c20 0.666992 39.833 3.16699 59.5 7.5s37.334 10.833 53.001 19.5s28.334 19.667 38.001 33s14.5 30 14.5 50c0 8 -1.16699 17.5 -3.5 28.5s-7.66602 21.667 -15.999 32s-20.5 19.166 -36.5 26.499
s-37.667 11 -65 11c-85.333 0 -128 -49.667 -128 -149v-496h-69v496c0 28 4.5 55.167 13.5 81.5s19.167 49.166 30.5 68.499c6.66699 6.66699 14.834 14 24.501 22s21 15.333 34 22s27.333 12.167 43 16.5s32.834 6.5 51.501 6.5c20.667 0 38.834 -1.66699 54.501 -5
s29.334 -7.66602 41.001 -12.999s21.667 -11.333 30 -18s15.5 -13.334 21.5 -20.001c14 -14.667 24.5 -31.334 31.5 -50.001s10.5 -38.667 10.5 -60c0 -24 -6.33301 -48 -19 -72s-31.667 -46.667 -57 -68c14 -8 26.333 -15.833 37 -23.5s19.667 -15.167 27 -22.5z" />
    <glyph glyph-name="agrave" unicode="&#xe0;" horiz-adv-x="535" 
d="M475 85c2.66699 -3.33301 5.66699 -5.99512 9 -7.99512s6.66602 -3.66699 9.99902 -5s7 -2 11 -2v-70c-32 0 -55.833 8.66699 -71.5 26s-26.167 43 -31.5 77c-6 -10.667 -14.333 -22.167 -25 -34.5s-23.667 -23.666 -39 -33.999s-33.166 -19 -53.499 -26
s-43.166 -10.5 -68.499 -10.5c-22.667 0 -44.834 2.66699 -66.501 8s-41 13.666 -58 24.999s-30.667 25.666 -41 42.999s-15.5 38.333 -15.5 63c0 34 7.33301 62.833 22 86.5s33.667 43 57 58s49.5 25.833 78.5 32.5s58.167 10 87.5 10c17.333 0 35.666 -1 54.999 -3
s40 -5.66699 62 -11c0 23.333 -3.83301 43.166 -11.5 59.499s-17.5 29.5 -29.5 39.5s-25.833 17.333 -41.5 22s-31.5 7 -47.5 7c-26 0 -52.5 -5.66699 -79.5 -17s-52.167 -28 -75.5 -50c-11.333 17.333 -19.5 29.166 -24.5 35.499s-9.16699 12.166 -12.5 17.499
c30.667 25.333 62.834 44.5 96.501 57.5s66.5 19.5 98.5 19.5c36 0 66.667 -4.83301 92 -14.5s46 -23 62 -40s27.5 -37.167 34.5 -60.5s10.5 -49 10.5 -77c0 -22.667 -0.833008 -45.334 -2.5 -68.001s-2.5 -46.667 -2.5 -72c0 -18.667 0.666992 -35.5 2 -50.5
s4.33301 -26.167 9 -33.5zM216 57.0049c36 0 65.833 6.5 89.5 19.5s42.334 28.667 56.001 47s23.167 37 28.5 56s8 34.5 8 46.5v26l-50 6.5c-18 2.33301 -35.333 3.5 -52 3.5c-21.333 0 -43 -1.83301 -65 -5.5s-42.333 -9.83398 -61 -18.501s-33.834 -20.5 -45.501 -35.5
s-17.5 -33.833 -17.5 -56.5c0 -8 1.33301 -17 4 -27s7.83398 -19.667 15.501 -29s18.667 -17.166 33 -23.499s33.166 -9.5 56.499 -9.5zM205 759.005h48l40 -71l40 -71h-71z" />
    <glyph glyph-name="aacute" unicode="&#xe1;" horiz-adv-x="535" 
d="M475 85c2.66699 -3.33301 5.66699 -5.99512 9 -7.99512s6.66602 -3.66699 9.99902 -5s7 -2 11 -2v-70c-32 0 -55.833 8.66699 -71.5 26s-26.167 43 -31.5 77c-6 -10.667 -14.333 -22.167 -25 -34.5s-23.667 -23.666 -39 -33.999s-33.166 -19 -53.499 -26
s-43.166 -10.5 -68.499 -10.5c-22.667 0 -44.834 2.66699 -66.501 8s-41 13.666 -58 24.999s-30.667 25.666 -41 42.999s-15.5 38.333 -15.5 63c0 34 7.33301 62.833 22 86.5s33.667 43 57 58s49.5 25.833 78.5 32.5s58.167 10 87.5 10c17.333 0 35.666 -1 54.999 -3
s40 -5.66699 62 -11c0 23.333 -3.83301 43.166 -11.5 59.499s-17.5 29.5 -29.5 39.5s-25.833 17.333 -41.5 22s-31.5 7 -47.5 7c-26 0 -52.5 -5.66699 -79.5 -17s-52.167 -28 -75.5 -50c-11.333 17.333 -19.5 29.166 -24.5 35.499s-9.16699 12.166 -12.5 17.499
c30.667 25.333 62.834 44.5 96.501 57.5s66.5 19.5 98.5 19.5c36 0 66.667 -4.83301 92 -14.5s46 -23 62 -40s27.5 -37.167 34.5 -60.5s10.5 -49 10.5 -77c0 -22.667 -0.833008 -45.334 -2.5 -68.001s-2.5 -46.667 -2.5 -72c0 -18.667 0.666992 -35.5 2 -50.5
s4.33301 -26.167 9 -33.5zM216 57.0049c36 0 65.833 6.5 89.5 19.5s42.334 28.667 56.001 47s23.167 37 28.5 56s8 34.5 8 46.5v26l-50 6.5c-18 2.33301 -35.333 3.5 -52 3.5c-21.333 0 -43 -1.83301 -65 -5.5s-42.333 -9.83398 -61 -18.501s-33.834 -20.5 -45.501 -35.5
s-17.5 -33.833 -17.5 -56.5c0 -8 1.33301 -17 4 -27s7.83398 -19.667 15.501 -29s18.667 -17.166 33 -23.499s33.166 -9.5 56.499 -9.5zM276 616.005l-71 -0.000976562c6.66699 12.667 12.667 23.334 18 32.001s11 18.667 17 30l45 80h49z" />
    <glyph glyph-name="acircumflex" unicode="&#xe2;" horiz-adv-x="535" 
d="M475 85c2.66699 -3.33301 5.66699 -5.99512 9 -7.99512s6.66602 -3.66699 9.99902 -5s7 -2 11 -2v-70c-32 0 -55.833 8.66699 -71.5 26s-26.167 43 -31.5 77c-6 -10.667 -14.333 -22.167 -25 -34.5s-23.667 -23.666 -39 -33.999s-33.166 -19 -53.499 -26
s-43.166 -10.5 -68.499 -10.5c-22.667 0 -44.834 2.66699 -66.501 8s-41 13.666 -58 24.999s-30.667 25.666 -41 42.999s-15.5 38.333 -15.5 63c0 34 7.33301 62.833 22 86.5s33.667 43 57 58s49.5 25.833 78.5 32.5s58.167 10 87.5 10c17.333 0 35.666 -1 54.999 -3
s40 -5.66699 62 -11c0 23.333 -3.83301 43.166 -11.5 59.499s-17.5 29.5 -29.5 39.5s-25.833 17.333 -41.5 22s-31.5 7 -47.5 7c-26 0 -52.5 -5.66699 -79.5 -17s-52.167 -28 -75.5 -50c-11.333 17.333 -19.5 29.166 -24.5 35.499s-9.16699 12.166 -12.5 17.499
c30.667 25.333 62.834 44.5 96.501 57.5s66.5 19.5 98.5 19.5c36 0 66.667 -4.83301 92 -14.5s46 -23 62 -40s27.5 -37.167 34.5 -60.5s10.5 -49 10.5 -77c0 -22.667 -0.833008 -45.334 -2.5 -68.001s-2.5 -46.667 -2.5 -72c0 -18.667 0.666992 -35.5 2 -50.5
s4.33301 -26.167 9 -33.5zM216 57.0049c36 0 65.833 6.5 89.5 19.5s42.334 28.667 56.001 47s23.167 37 28.5 56s8 34.5 8 46.5v26l-50 6.5c-18 2.33301 -35.333 3.5 -52 3.5c-21.333 0 -43 -1.83301 -65 -5.5s-42.333 -9.83398 -61 -18.501s-33.834 -20.5 -45.501 -35.5
s-17.5 -33.833 -17.5 -56.5c0 -8 1.33301 -17 4 -27s7.83398 -19.667 15.501 -29s18.667 -17.166 33 -23.499s33.166 -9.5 56.499 -9.5zM377 617.005h-73.001l-36 89c-5.33301 -12 -11.166 -26.5 -17.499 -43.5l-17.5 -45.5h-71l18.5 32l16.5 30l45 80h54z" />
    <glyph glyph-name="atilde" unicode="&#xe3;" horiz-adv-x="535" 
d="M475 85c2.66699 -3.33301 5.66699 -5.99512 9 -7.99512s6.66602 -3.66699 9.99902 -5s7 -2 11 -2v-70c-32 0 -55.833 8.66699 -71.5 26s-26.167 43 -31.5 77c-6 -10.667 -14.333 -22.167 -25 -34.5s-23.667 -23.666 -39 -33.999s-33.166 -19 -53.499 -26
s-43.166 -10.5 -68.499 -10.5c-22.667 0 -44.834 2.66699 -66.501 8s-41 13.666 -58 24.999s-30.667 25.666 -41 42.999s-15.5 38.333 -15.5 63c0 34 7.33301 62.833 22 86.5s33.667 43 57 58s49.5 25.833 78.5 32.5s58.167 10 87.5 10c17.333 0 35.666 -1 54.999 -3
s40 -5.66699 62 -11c0 23.333 -3.83301 43.166 -11.5 59.499s-17.5 29.5 -29.5 39.5s-25.833 17.333 -41.5 22s-31.5 7 -47.5 7c-26 0 -52.5 -5.66699 -79.5 -17s-52.167 -28 -75.5 -50c-11.333 17.333 -19.5 29.166 -24.5 35.499s-9.16699 12.166 -12.5 17.499
c30.667 25.333 62.834 44.5 96.501 57.5s66.5 19.5 98.5 19.5c36 0 66.667 -4.83301 92 -14.5s46 -23 62 -40s27.5 -37.167 34.5 -60.5s10.5 -49 10.5 -77c0 -22.667 -0.833008 -45.334 -2.5 -68.001s-2.5 -46.667 -2.5 -72c0 -18.667 0.666992 -35.5 2 -50.5
s4.33301 -26.167 9 -33.5zM216 57.0049c36 0 65.833 6.5 89.5 19.5s42.334 28.667 56.001 47s23.167 37 28.5 56s8 34.5 8 46.5v26l-50 6.5c-18 2.33301 -35.333 3.5 -52 3.5c-21.333 0 -43 -1.83301 -65 -5.5s-42.333 -9.83398 -61 -18.501s-33.834 -20.5 -45.501 -35.5
s-17.5 -33.833 -17.5 -56.5c0 -8 1.33301 -17 4 -27s7.83398 -19.667 15.501 -29s18.667 -17.166 33 -23.499s33.166 -9.5 56.499 -9.5zM407 753.005c0.666992 -2 1.00195 -4.16602 1.00195 -6.49902v-5.5c0 -25.333 -7.83301 -45.5 -23.5 -60.5s-34.167 -22.5 -55.5 -22.5
c-3.33301 0 -7.66602 0.333008 -12.999 1s-11 1.66699 -17 3c-4 1.33301 -8.83301 3.66602 -14.5 6.99902s-11.167 7.33301 -16.5 12l-29.5 17c-9.66699 5.33301 -20.834 8 -33.501 8s-21 -5 -25 -15s-6.66699 -21.333 -8 -34h-42
c-0.666992 3.33301 -0.833984 5.16602 -0.500977 5.49902s0.5 1.16602 0.5 2.49902c0 10.667 1.5 21.334 4.5 32.001s7.66699 20.334 14 29.001s14.333 15.5 24 20.5s21.5 7.5 35.5 7.5c9.33301 0 19.166 -2.5 29.499 -7.5l30.5 -15.5
c9.33301 -5.33301 19.833 -10.5 31.5 -15.5s22.167 -8.16699 31.5 -9.5c2.66699 -0.666992 5.66699 -0.666992 9 0s6.66602 2.5 9.99902 5.5s6.33301 8 9 15s4.33398 16.5 5.00098 28.5h42z" />
    <glyph glyph-name="adieresis" unicode="&#xe4;" horiz-adv-x="535" 
d="M475 85c2.66699 -3.33301 5.66699 -5.99512 9 -7.99512s6.66602 -3.66699 9.99902 -5s7 -2 11 -2v-70c-32 0 -55.833 8.66699 -71.5 26s-26.167 43 -31.5 77c-6 -10.667 -14.333 -22.167 -25 -34.5s-23.667 -23.666 -39 -33.999s-33.166 -19 -53.499 -26
s-43.166 -10.5 -68.499 -10.5c-22.667 0 -44.834 2.66699 -66.501 8s-41 13.666 -58 24.999s-30.667 25.666 -41 42.999s-15.5 38.333 -15.5 63c0 34 7.33301 62.833 22 86.5s33.667 43 57 58s49.5 25.833 78.5 32.5s58.167 10 87.5 10c17.333 0 35.666 -1 54.999 -3
s40 -5.66699 62 -11c0 23.333 -3.83301 43.166 -11.5 59.499s-17.5 29.5 -29.5 39.5s-25.833 17.333 -41.5 22s-31.5 7 -47.5 7c-26 0 -52.5 -5.66699 -79.5 -17s-52.167 -28 -75.5 -50c-11.333 17.333 -19.5 29.166 -24.5 35.499s-9.16699 12.166 -12.5 17.499
c30.667 25.333 62.834 44.5 96.501 57.5s66.5 19.5 98.5 19.5c36 0 66.667 -4.83301 92 -14.5s46 -23 62 -40s27.5 -37.167 34.5 -60.5s10.5 -49 10.5 -77c0 -22.667 -0.833008 -45.334 -2.5 -68.001s-2.5 -46.667 -2.5 -72c0 -18.667 0.666992 -35.5 2 -50.5
s4.33301 -26.167 9 -33.5zM216 57.0049c36 0 65.833 6.5 89.5 19.5s42.334 28.667 56.001 47s23.167 37 28.5 56s8 34.5 8 46.5v26l-50 6.5c-18 2.33301 -35.333 3.5 -52 3.5c-21.333 0 -43 -1.83301 -65 -5.5s-42.333 -9.83398 -61 -18.501s-33.834 -20.5 -45.501 -35.5
s-17.5 -33.833 -17.5 -56.5c0 -8 1.33301 -17 4 -27s7.83398 -19.667 15.501 -29s18.667 -17.166 33 -23.499s33.166 -9.5 56.499 -9.5zM327 758.005h72v-69h-72v69zM141 758.005h72v-69h-72v69z" />
    <glyph glyph-name="aring" unicode="&#xe5;" horiz-adv-x="535" 
d="M475 85c2.66699 -3.33301 5.66699 -5.99512 9 -7.99512s6.66602 -3.66699 9.99902 -5s7 -2 11 -2v-70c-32 0 -55.833 8.66699 -71.5 26s-26.167 43 -31.5 77c-6 -10.667 -14.333 -22.167 -25 -34.5s-23.667 -23.666 -39 -33.999s-33.166 -19 -53.499 -26
s-43.166 -10.5 -68.499 -10.5c-22.667 0 -44.834 2.66699 -66.501 8s-41 13.666 -58 24.999s-30.667 25.666 -41 42.999s-15.5 38.333 -15.5 63c0 34 7.33301 62.833 22 86.5s33.667 43 57 58s49.5 25.833 78.5 32.5s58.167 10 87.5 10c17.333 0 35.666 -1 54.999 -3
s40 -5.66699 62 -11c0 23.333 -3.83301 43.166 -11.5 59.499s-17.5 29.5 -29.5 39.5s-25.833 17.333 -41.5 22s-31.5 7 -47.5 7c-26 0 -52.5 -5.66699 -79.5 -17s-52.167 -28 -75.5 -50c-11.333 17.333 -19.5 29.166 -24.5 35.499s-9.16699 12.166 -12.5 17.499
c30.667 25.333 62.834 44.5 96.501 57.5s66.5 19.5 98.5 19.5c36 0 66.667 -4.83301 92 -14.5s46 -23 62 -40s27.5 -37.167 34.5 -60.5s10.5 -49 10.5 -77c0 -22.667 -0.833008 -45.334 -2.5 -68.001s-2.5 -46.667 -2.5 -72c0 -18.667 0.666992 -35.5 2 -50.5
s4.33301 -26.167 9 -33.5zM216 57.0049c36 0 65.833 6.5 89.5 19.5s42.334 28.667 56.001 47s23.167 37 28.5 56s8 34.5 8 46.5v26l-50 6.5c-18 2.33301 -35.333 3.5 -52 3.5c-21.333 0 -43 -1.83301 -65 -5.5s-42.333 -9.83398 -61 -18.501s-33.834 -20.5 -45.501 -35.5
s-17.5 -33.833 -17.5 -56.5c0 -8 1.33301 -17 4 -27s7.83398 -19.667 15.501 -29s18.667 -17.166 33 -23.499s33.166 -9.5 56.499 -9.5zM269 762.005c10.667 0 20.834 -2.16895 30.501 -6.50195s18.167 -10.166 25.5 -17.499s13.166 -16 17.499 -26s6.5 -20.333 6.5 -31
c0 -11.333 -2.16699 -21.833 -6.5 -31.5s-10.166 -18.167 -17.499 -25.5s-15.833 -13.166 -25.5 -17.499s-19.834 -6.5 -30.501 -6.5c-22 0 -41 8 -57 24s-24 35 -24 57s8 41 24 57s35 24 57 24zM269 631.003c14.667 0 26.5 4.5 35.5 13.5s13.5 21.167 13.5 36.5
c0 14.667 -4.5 26.667 -13.5 36s-20.833 14 -35.5 14c-15.333 0 -27.666 -4.66699 -36.999 -14s-14 -21.333 -14 -36c0 -15.333 4.66699 -27.5 14 -36.5s21.666 -13.5 36.999 -13.5z" />
    <glyph glyph-name="ae" unicode="&#xe6;" horiz-adv-x="933" 
d="M655 61c16 0 32.166 2.66797 48.499 8.00098s32.166 12.833 47.499 22.5s29.5 21.167 42.5 34.5s24.167 28 33.5 44c6.66699 -2.66699 13.5 -5 20.5 -7s14.167 -4.33301 21.5 -7l24 -9c-26.667 -46 -59.5 -82.667 -98.5 -110s-85.5 -41 -139.5 -41
c-50 0 -94.667 11.5 -134 34.5s-72 53.833 -98 92.5c-13.333 -19.333 -24.666 -34.666 -33.999 -45.999s-16.666 -19.666 -21.999 -24.999c-12.667 -12.667 -32 -24.834 -58 -36.501s-61 -17.5 -105 -17.5c-22.667 0 -45 2.66699 -67 8s-41.5 13.666 -58.5 24.999
s-30.667 25.666 -41 42.999s-15.5 38.333 -15.5 63c0 34 7.33301 62.833 22 86.5s33.667 43 57 58s49.833 25.833 79.5 32.5s59.167 10 88.5 10c16.667 0 34.834 -1 54.501 -3s40.5 -5.66699 62.5 -11c-2 22.667 -7 42.167 -15 58.5s-17.833 29.666 -29.5 39.999
s-24.834 17.833 -39.501 22.5s-30.334 7 -47.001 7c-25.333 0 -51.333 -5.83301 -78 -17.5s-51.667 -29.167 -75 -52.5c-3.33301 6 -6.16602 10.333 -8.49902 13s-5.16602 6.33398 -8.49902 11.001l-22 32c30.667 25.333 63 44.5 97 57.5s67 19.5 99 19.5
c44 0 81 -8.83301 111 -26.5s53.667 -41.5 71 -71.5c28 31.333 60 56 96 74s75.333 27 118 27c34.667 0 66.667 -6.5 96 -19.5s55.166 -30.667 77.499 -53s40.833 -48.5 55.5 -78.5s24.667 -61.667 30 -95h-459c2 -28 8.33301 -54 19 -78s24.667 -44.833 42 -62.5
s37.833 -31.5 61.5 -41.5s49.5 -15 77.5 -15zM652.999 439.001c-37.333 0 -71.8311 -11.002 -103.498 -33.002s-57.834 -51 -78.501 -87h360c-10.667 18 -23 34.333 -37 49s-29 27.334 -45 38.001s-32.333 18.834 -49 24.501s-32.334 8.5 -47.001 8.5zM204.001 56.999
c36.667 0 66.668 6.5 90.001 19.5s41.833 28.667 55.5 47s23.167 37 28.5 56s8 34.5 8 46.5v26l-49.5 6.5c-17.667 2.33301 -35.167 3.5 -52.5 3.5c-21.333 0 -43 -1.83301 -65 -5.5s-42.333 -9.83398 -61 -18.501s-33.834 -20.5 -45.501 -35.5s-17.5 -33.833 -17.5 -56.5
c0 -8 1.33301 -17 4 -27s8 -19.667 16 -29s19 -17.166 33 -23.499s32.667 -9.5 56 -9.5z" />
    <glyph glyph-name="ccedilla" unicode="&#xe7;" horiz-adv-x="461" 
d="M274 61c23.333 0 44.667 3.83105 64 11.498s39.333 18.834 60 33.501l49 -50c-28 -21.333 -56.167 -36.666 -84.5 -45.999s-57.833 -14 -88.5 -14c-36.667 0 -70.667 6.5 -102 19.5s-58.5 30.667 -81.5 53s-41 48.666 -54 78.999s-19.5 62.833 -19.5 97.5
c0 36.667 6.5 70.834 19.5 102.501s31 59.167 54 82.5s50.167 41.5 81.5 54.5s65.333 19.5 102 19.5c30.667 0 60.167 -4.66699 88.5 -14s56.5 -24.666 84.5 -45.999l-49 -50c-19.333 13.333 -39 24.166 -59 32.499s-41.667 12.5 -65 12.5c-26 0 -50.667 -5.16699 -74 -15.5
s-43.666 -24.333 -60.999 -42s-31.166 -38.167 -41.499 -61.5s-15.5 -48.333 -15.5 -75c0 -24 5.16699 -47.167 15.5 -69.5s24.166 -42 41.499 -59s37.666 -30.5 60.999 -40.5s48 -15 74 -15zM338.001 -55.002c10 -13.333 14.999 -28.333 14.999 -45
c0 -3.33301 -1 -9.83301 -3 -19.5s-7 -19.667 -15 -30s-20.167 -19.5 -36.5 -27.5s-38.833 -12 -67.5 -12h-13.5c-5.66699 0 -11.167 0.666992 -16.5 2v48c14 -2 24.667 -3 32 -3c24.667 0 42.834 4.66699 54.501 14s17.5 18 17.5 26c0 10 -2.66699 17.833 -8 23.5
s-11.5 10 -18.5 13s-14.167 5 -21.5 6s-13 1.5 -17 1.5h-5l14 47h47l-5 -16c10.667 -4 20.167 -8.16699 28.5 -12.5s14.5 -9.5 18.5 -15.5z" />
    <glyph glyph-name="egrave" unicode="&#xe8;" horiz-adv-x="585" 
d="M471 90c-25.333 -30.667 -54.667 -54.166 -88 -70.499s-70.333 -24.5 -111 -24.5c-39.333 0 -73.833 6.33301 -103.5 19s-54.5 30.167 -74.5 52.5s-35 48.833 -45 79.5s-15 64 -15 100c0 34 5 66.333 15 97s25 57.667 45 81s44.833 41.833 74.5 55.5
s64.167 20.5 103.5 20.5c35.333 0 67.333 -6.66699 96 -20s53.334 -32 74.001 -56s36.667 -52.333 48 -85s17 -68.334 17 -107.001h-403c0 -25.333 3.66699 -48.833 11 -70.5s18 -40.5 32 -56.5s31.5 -28.5 52.5 -37.5s45.167 -13.5 72.5 -13.5c22 0 41.833 3.33301 59.5 10
s33 14.5 46 23.5s23.667 18 32 27s14.166 15.833 17.499 20.5zM269.999 438.001c-23.333 0 -44.6689 -4.33105 -64.002 -12.998s-36.166 -19.834 -50.499 -33.501s-25.666 -29.334 -33.999 -47.001s-13.166 -35.5 -14.499 -53.5h323c-4 20.667 -10.667 40 -20 58
s-21 33.5 -35 46.5s-29.833 23.333 -47.5 31s-36.834 11.5 -57.501 11.5zM229.996 759.003h48l40 -71l40 -71h-71z" />
    <glyph glyph-name="eacute" unicode="&#xe9;" horiz-adv-x="585" 
d="M471 90c-25.333 -30.667 -54.667 -54.166 -88 -70.499s-70.333 -24.5 -111 -24.5c-39.333 0 -73.833 6.33301 -103.5 19s-54.5 30.167 -74.5 52.5s-35 48.833 -45 79.5s-15 64 -15 100c0 34 5 66.333 15 97s25 57.667 45 81s44.833 41.833 74.5 55.5
s64.167 20.5 103.5 20.5c35.333 0 67.333 -6.66699 96 -20s53.334 -32 74.001 -56s36.667 -52.333 48 -85s17 -68.334 17 -107.001h-403c0 -25.333 3.66699 -48.833 11 -70.5s18 -40.5 32 -56.5s31.5 -28.5 52.5 -37.5s45.167 -13.5 72.5 -13.5c22 0 41.833 3.33301 59.5 10
s33 14.5 46 23.5s23.667 18 32 27s14.166 15.833 17.499 20.5zM269.999 438.001c-23.333 0 -44.6689 -4.33105 -64.002 -12.998s-36.166 -19.834 -50.499 -33.501s-25.666 -29.334 -33.999 -47.001s-13.166 -35.5 -14.499 -53.5h323c-4 20.667 -10.667 40 -20 58
s-21 33.5 -35 46.5s-29.833 23.333 -47.5 31s-36.834 11.5 -57.501 11.5zM300.996 616.003l-71 -0.000976562c6.66699 12.667 12.667 23.334 18 32.001s11 18.667 17 30l45 80h49z" />
    <glyph glyph-name="ecircumflex" unicode="&#xea;" horiz-adv-x="585" 
d="M471 90c-25.333 -30.667 -54.667 -54.166 -88 -70.499s-70.333 -24.5 -111 -24.5c-39.333 0 -73.833 6.33301 -103.5 19s-54.5 30.167 -74.5 52.5s-35 48.833 -45 79.5s-15 64 -15 100c0 34 5 66.333 15 97s25 57.667 45 81s44.833 41.833 74.5 55.5
s64.167 20.5 103.5 20.5c35.333 0 67.333 -6.66699 96 -20s53.334 -32 74.001 -56s36.667 -52.333 48 -85s17 -68.334 17 -107.001h-403c0 -25.333 3.66699 -48.833 11 -70.5s18 -40.5 32 -56.5s31.5 -28.5 52.5 -37.5s45.167 -13.5 72.5 -13.5c22 0 41.833 3.33301 59.5 10
s33 14.5 46 23.5s23.667 18 32 27s14.166 15.833 17.499 20.5zM269.999 438.001c-23.333 0 -44.6689 -4.33105 -64.002 -12.998s-36.166 -19.834 -50.499 -33.501s-25.666 -29.334 -33.999 -47.001s-13.166 -35.5 -14.499 -53.5h323c-4 20.667 -10.667 40 -20 58
s-21 33.5 -35 46.5s-29.833 23.333 -47.5 31s-36.834 11.5 -57.501 11.5zM401.996 617.003h-73.001l-36 89c-5.33301 -12 -11.166 -26.5 -17.499 -43.5l-17.5 -45.5h-71l18.5 32l16.5 30l45 80h54z" />
    <glyph glyph-name="edieresis" unicode="&#xeb;" horiz-adv-x="585" 
d="M471 90c-25.333 -30.667 -54.667 -54.166 -88 -70.499s-70.333 -24.5 -111 -24.5c-39.333 0 -73.833 6.33301 -103.5 19s-54.5 30.167 -74.5 52.5s-35 48.833 -45 79.5s-15 64 -15 100c0 34 5 66.333 15 97s25 57.667 45 81s44.833 41.833 74.5 55.5
s64.167 20.5 103.5 20.5c35.333 0 67.333 -6.66699 96 -20s53.334 -32 74.001 -56s36.667 -52.333 48 -85s17 -68.334 17 -107.001h-403c0 -25.333 3.66699 -48.833 11 -70.5s18 -40.5 32 -56.5s31.5 -28.5 52.5 -37.5s45.167 -13.5 72.5 -13.5c22 0 41.833 3.33301 59.5 10
s33 14.5 46 23.5s23.667 18 32 27s14.166 15.833 17.499 20.5zM269.999 438.001c-23.333 0 -44.6689 -4.33105 -64.002 -12.998s-36.166 -19.834 -50.499 -33.501s-25.666 -29.334 -33.999 -47.001s-13.166 -35.5 -14.499 -53.5h323c-4 20.667 -10.667 40 -20 58
s-21 33.5 -35 46.5s-29.833 23.333 -47.5 31s-36.834 11.5 -57.501 11.5zM324.996 703.003h72v-69h-72v69zM138.996 703.003h72v-69h-72v69z" />
    <glyph glyph-name="igrave" unicode="&#xec;" horiz-adv-x="187" 
d="M129 500v-500h-72v500h72zM29 749h48l40 -71l40 -71h-71z" />
    <glyph glyph-name="iacute" unicode="&#xed;" horiz-adv-x="187" 
d="M129 500v-500h-72v500h72zM99 606l-71 -0.000976562c6.66699 12.667 12.667 23.334 18 32.001s11 18.667 17 30l45 80h49z" />
    <glyph glyph-name="icircumflex" unicode="&#xee;" horiz-adv-x="187" 
d="M129 500v-500h-72v500h72zM201 607h-73.001l-36 89c-5.33301 -12 -11.166 -26.5 -17.499 -43.5l-17.5 -45.5h-71l18.5 32l16.5 30l45 80h54z" />
    <glyph glyph-name="idieresis" unicode="&#xef;" horiz-adv-x="187" 
d="M129 500v-500h-72v500h72zM150 653h72v-69h-72v69zM-36 653h72v-69h-72v69z" />
    <glyph glyph-name="eth" unicode="&#xf0;" horiz-adv-x="554" 
d="M103 397c22 22.667 47.502 39.668 76.502 51.001s59.167 17 90.5 17c19.333 0 40.333 -3.33301 63 -10s50 -18 82 -34c-20 43.333 -40 81 -60 113s-39.167 59.167 -57.5 81.5s-35.333 40.666 -51 54.999s-29.5 25.5 -41.5 33.5c21.333 0 39.666 0.166992 54.999 0.5
s33.333 0.5 54 0.5c23.333 -22.667 48 -52.5 74 -89.5s49 -78.5 69 -124.5c17.333 -44 31.166 -86.667 41.499 -128s15.5 -77 15.5 -107c0 -36.667 -6.33301 -71 -19 -103s-30 -60 -52 -84s-47.833 -42.833 -77.5 -56.5s-61.5 -20.5 -95.5 -20.5
c-32 0 -62.5 6.33301 -91.5 19s-54.167 29.667 -75.5 51s-38.333 46.5 -51 75.5s-19 59.5 -19 91.5s6 62.167 18 90.5s29.333 53.833 52 76.5v1zM270.002 60.001c24 0 46.332 4.50195 66.999 13.502s38.667 21.167 54 36.5s27.166 33.166 35.499 53.499
s12.5 42.166 12.5 65.499c0 24 -4.5 46.333 -13.5 67s-21.167 38.667 -36.5 54s-33.166 27.333 -53.499 36s-42.166 13 -65.499 13s-45.333 -4.5 -66 -13.5s-38.667 -21.167 -54 -36.5s-27.5 -33.333 -36.5 -54s-13.5 -42.667 -13.5 -66s4.5 -45.333 13.5 -66
s21.167 -38.667 36.5 -54s33.333 -27.333 54 -36s42.667 -13 66 -13zM190.001 526.003l-17 58.002l88 22c28 7.33301 57 15.333 87 24c25.333 7.33301 51.5 14.166 78.5 20.499s53.167 13.166 78.5 20.499l15 -59z" />
    <glyph glyph-name="ntilde" unicode="&#xf1;" horiz-adv-x="490" 
d="M110 0l-71.998 0.00195312v500h72l1 -70c10 14 22.333 27 37 39c12 10 27 19.167 45 27.5s38.667 12.5 62 12.5c35.333 0 65.666 -6.83301 90.999 -20.5s46.166 -32 62.499 -55s28.333 -49.667 36 -80s11.5 -61.833 11.5 -94.5v-259h-73v261c0 20 -1.66699 40.667 -5 62
s-9.66602 40.666 -18.999 57.999s-22.333 31.666 -39 42.999s-38.334 17 -65.001 17c-24 0 -45 -4.66699 -63 -14s-33 -22.166 -45 -38.499s-21.167 -35.333 -27.5 -57s-9.5 -44.834 -9.5 -69.501v-262zM384.002 753.002c0.666992 -2 1.00195 -4.16602 1.00195 -6.49902
v-5.5c0 -25.333 -7.83301 -45.5 -23.5 -60.5s-34.167 -22.5 -55.5 -22.5c-3.33301 0 -7.66602 0.333008 -12.999 1s-11 1.66699 -17 3c-4 1.33301 -8.83301 3.66602 -14.5 6.99902s-11.167 7.33301 -16.5 12l-29.5 17c-9.66699 5.33301 -20.834 8 -33.501 8s-21 -5 -25 -15
s-6.66699 -21.333 -8 -34h-42c-0.666992 3.33301 -0.833984 5.16602 -0.500977 5.49902s0.5 1.16602 0.5 2.49902c0 10.667 1.5 21.334 4.5 32.001s7.66699 20.334 14 29.001s14.333 15.5 24 20.5s21.5 7.5 35.5 7.5c9.33301 0 19.166 -2.5 29.499 -7.5l30.5 -15.5
c9.33301 -5.33301 19.833 -10.5 31.5 -15.5s22.167 -8.16699 31.5 -9.5c2.66699 -0.666992 5.66699 -0.666992 9 0s6.66602 2.5 9.99902 5.5s6.33301 8 9 15s4.33398 16.5 5.00098 28.5h42z" />
    <glyph glyph-name="ograve" unicode="&#xf2;" horiz-adv-x="550" 
d="M276 -4c-34 0 -66.333 6.33301 -97 19s-57.667 30.334 -81 53.001s-41.833 49.5 -55.5 80.5s-20.5 64.5 -20.5 100.5c0 34 6.83301 66.5 20.5 97.5s32.167 58.167 55.5 81.5s50.333 41.833 81 55.5s63 20.5 97 20.5s66.333 -6.83301 97 -20.5s57.667 -32.167 81 -55.5
s42 -50.5 56 -81.5s21 -63.5 21 -97.5c0 -36 -7 -69.5 -21 -100.5s-32.667 -57.833 -56 -80.5s-50.333 -40.334 -81 -53.001s-63 -19 -97 -19zM276 436c-27.333 0 -52.335 -5 -75.002 -15s-42.334 -23.667 -59.001 -41s-29.5 -37.333 -38.5 -60s-13.5 -46.334 -13.5 -71.001
c0 -26.667 4.5 -51.334 13.5 -74.001s21.833 -42.167 38.5 -58.5s36.334 -29.166 59.001 -38.499s47.667 -14 75 -14c26.667 0 51.334 4.66699 74.001 14s42.334 22.166 59.001 38.499s29.5 35.833 38.5 58.5s13.5 47.334 13.5 74.001c0 24.667 -4.5 48.334 -13.5 71.001
s-21.667 42.667 -38 60s-35.833 31 -58.5 41s-47.667 15 -75 15zM211.998 759h48l40 -71l40 -71h-71z" />
    <glyph glyph-name="oacute" unicode="&#xf3;" horiz-adv-x="550" 
d="M276 -4c-34 0 -66.333 6.33301 -97 19s-57.667 30.334 -81 53.001s-41.833 49.5 -55.5 80.5s-20.5 64.5 -20.5 100.5c0 34 6.83301 66.5 20.5 97.5s32.167 58.167 55.5 81.5s50.333 41.833 81 55.5s63 20.5 97 20.5s66.333 -6.83301 97 -20.5s57.667 -32.167 81 -55.5
s42 -50.5 56 -81.5s21 -63.5 21 -97.5c0 -36 -7 -69.5 -21 -100.5s-32.667 -57.833 -56 -80.5s-50.333 -40.334 -81 -53.001s-63 -19 -97 -19zM276 436c-27.333 0 -52.335 -5 -75.002 -15s-42.334 -23.667 -59.001 -41s-29.5 -37.333 -38.5 -60s-13.5 -46.334 -13.5 -71.001
c0 -26.667 4.5 -51.334 13.5 -74.001s21.833 -42.167 38.5 -58.5s36.334 -29.166 59.001 -38.499s47.667 -14 75 -14c26.667 0 51.334 4.66699 74.001 14s42.334 22.166 59.001 38.499s29.5 35.833 38.5 58.5s13.5 47.334 13.5 74.001c0 24.667 -4.5 48.334 -13.5 71.001
s-21.667 42.667 -38 60s-35.833 31 -58.5 41s-47.667 15 -75 15zM282.998 616l-71 -0.000976562c6.66699 12.667 12.667 23.334 18 32.001s11 18.667 17 30l45 80h49z" />
    <glyph glyph-name="ocircumflex" unicode="&#xf4;" horiz-adv-x="550" 
d="M276 -4c-34 0 -66.333 6.33301 -97 19s-57.667 30.334 -81 53.001s-41.833 49.5 -55.5 80.5s-20.5 64.5 -20.5 100.5c0 34 6.83301 66.5 20.5 97.5s32.167 58.167 55.5 81.5s50.333 41.833 81 55.5s63 20.5 97 20.5s66.333 -6.83301 97 -20.5s57.667 -32.167 81 -55.5
s42 -50.5 56 -81.5s21 -63.5 21 -97.5c0 -36 -7 -69.5 -21 -100.5s-32.667 -57.833 -56 -80.5s-50.333 -40.334 -81 -53.001s-63 -19 -97 -19zM276 436c-27.333 0 -52.335 -5 -75.002 -15s-42.334 -23.667 -59.001 -41s-29.5 -37.333 -38.5 -60s-13.5 -46.334 -13.5 -71.001
c0 -26.667 4.5 -51.334 13.5 -74.001s21.833 -42.167 38.5 -58.5s36.334 -29.166 59.001 -38.499s47.667 -14 75 -14c26.667 0 51.334 4.66699 74.001 14s42.334 22.166 59.001 38.499s29.5 35.833 38.5 58.5s13.5 47.334 13.5 74.001c0 24.667 -4.5 48.334 -13.5 71.001
s-21.667 42.667 -38 60s-35.833 31 -58.5 41s-47.667 15 -75 15zM383.998 617h-73.001l-36 89c-5.33301 -12 -11.166 -26.5 -17.499 -43.5l-17.5 -45.5h-71l18.5 32l16.5 30l45 80h54z" />
    <glyph glyph-name="otilde" unicode="&#xf5;" horiz-adv-x="550" 
d="M276 -4c-34 0 -66.333 6.33301 -97 19s-57.667 30.334 -81 53.001s-41.833 49.5 -55.5 80.5s-20.5 64.5 -20.5 100.5c0 34 6.83301 66.5 20.5 97.5s32.167 58.167 55.5 81.5s50.333 41.833 81 55.5s63 20.5 97 20.5s66.333 -6.83301 97 -20.5s57.667 -32.167 81 -55.5
s42 -50.5 56 -81.5s21 -63.5 21 -97.5c0 -36 -7 -69.5 -21 -100.5s-32.667 -57.833 -56 -80.5s-50.333 -40.334 -81 -53.001s-63 -19 -97 -19zM276 436c-27.333 0 -52.335 -5 -75.002 -15s-42.334 -23.667 -59.001 -41s-29.5 -37.333 -38.5 -60s-13.5 -46.334 -13.5 -71.001
c0 -26.667 4.5 -51.334 13.5 -74.001s21.833 -42.167 38.5 -58.5s36.334 -29.166 59.001 -38.499s47.667 -14 75 -14c26.667 0 51.334 4.66699 74.001 14s42.334 22.166 59.001 38.499s29.5 35.833 38.5 58.5s13.5 47.334 13.5 74.001c0 24.667 -4.5 48.334 -13.5 71.001
s-21.667 42.667 -38 60s-35.833 31 -58.5 41s-47.667 15 -75 15zM413.998 753c0.666992 -2 1.00195 -4.16602 1.00195 -6.49902v-5.5c0 -25.333 -7.83301 -45.5 -23.5 -60.5s-34.167 -22.5 -55.5 -22.5c-3.33301 0 -7.66602 0.333008 -12.999 1s-11 1.66699 -17 3
c-4 1.33301 -8.83301 3.66602 -14.5 6.99902s-11.167 7.33301 -16.5 12l-29.5 17c-9.66699 5.33301 -20.834 8 -33.501 8s-21 -5 -25 -15s-6.66699 -21.333 -8 -34h-42c-0.666992 3.33301 -0.833984 5.16602 -0.500977 5.49902s0.5 1.16602 0.5 2.49902
c0 10.667 1.5 21.334 4.5 32.001s7.66699 20.334 14 29.001s14.333 15.5 24 20.5s21.5 7.5 35.5 7.5c9.33301 0 19.166 -2.5 29.499 -7.5l30.5 -15.5c9.33301 -5.33301 19.833 -10.5 31.5 -15.5s22.167 -8.16699 31.5 -9.5c2.66699 -0.666992 5.66699 -0.666992 9 0
s6.66602 2.5 9.99902 5.5s6.33301 8 9 15s4.33398 16.5 5.00098 28.5h42z" />
    <glyph glyph-name="odieresis" unicode="&#xf6;" horiz-adv-x="550" 
d="M276 -4c-34 0 -66.333 6.33301 -97 19s-57.667 30.334 -81 53.001s-41.833 49.5 -55.5 80.5s-20.5 64.5 -20.5 100.5c0 34 6.83301 66.5 20.5 97.5s32.167 58.167 55.5 81.5s50.333 41.833 81 55.5s63 20.5 97 20.5s66.333 -6.83301 97 -20.5s57.667 -32.167 81 -55.5
s42 -50.5 56 -81.5s21 -63.5 21 -97.5c0 -36 -7 -69.5 -21 -100.5s-32.667 -57.833 -56 -80.5s-50.333 -40.334 -81 -53.001s-63 -19 -97 -19zM276 436c-27.333 0 -52.335 -5 -75.002 -15s-42.334 -23.667 -59.001 -41s-29.5 -37.333 -38.5 -60s-13.5 -46.334 -13.5 -71.001
c0 -26.667 4.5 -51.334 13.5 -74.001s21.833 -42.167 38.5 -58.5s36.334 -29.166 59.001 -38.499s47.667 -14 75 -14c26.667 0 51.334 4.66699 74.001 14s42.334 22.166 59.001 38.499s29.5 35.833 38.5 58.5s13.5 47.334 13.5 74.001c0 24.667 -4.5 48.334 -13.5 71.001
s-21.667 42.667 -38 60s-35.833 31 -58.5 41s-47.667 15 -75 15zM333.998 758h72v-69h-72v69zM147.998 758h72v-69h-72v69z" />
    <glyph glyph-name="divide" unicode="&#xf7;" horiz-adv-x="185" 
d="M280 296v-70h-373v70h373zM61 495h73v-68h-73v68zM61 495h73v-68h-73v68zM61 495h73v-68h-73v68zM61 63h73v-68h-73v68z" />
    <glyph glyph-name="oslash" unicode="&#xf8;" horiz-adv-x="550" 
d="M490 390c14 -20.667 25.002 -42.6709 33.002 -66.0039s12 -47.666 12 -72.999c0 -36.667 -7 -70.5 -21 -101.5s-32.833 -57.667 -56.5 -80s-50.834 -39.833 -81.501 -52.5s-62.667 -19 -96 -19h-20.5c-6.33301 0 -14.833 0.666992 -25.5 2
c-1.33301 -4.66699 -3 -10.167 -5 -16.5s-3.66699 -12.166 -5 -17.499h-72l17 57c-20.667 10.667 -39.834 23.834 -57.501 39.501s-32.834 33.334 -45.501 53.001s-22.5 40.834 -29.5 63.501s-10.5 46.667 -10.5 72c0 34 6.83301 66.333 20.5 97s32 57.667 55 81
s49.833 42 80.5 56s63.334 21 98.001 21c2 0 6.33301 -0.666992 13 -2c2.66699 -0.666992 6 -1 10 -1l12 34c1.33301 3.33301 2.33301 6.5 3 9.5s0.666992 4.16699 0 3.5c0 1.33301 0.666992 2.66602 2 3.99902h74l-20 -67c24 -13.333 46.167 -28 66.5 -44
s36.833 -33.667 49.5 -53zM288.002 438.996c-28.667 -2 -54.833 -8.33301 -78.5 -19s-44 -24.667 -61 -42s-30.167 -36.833 -39.5 -58.5s-14 -44.5 -14 -68.5c0 -31.333 7.83301 -61 23.5 -89s38.167 -52.333 67.5 -73l35 119l16 55zM413.003 117.996
c16.667 16.667 29.667 36.168 39 58.501s14 47.166 14 74.499c0 33.333 -9.66699 65.333 -29 96s-46 55.667 -80 75l-42 -146l-14 -46l-49 -164h28c26.667 0 51 4.66699 73 14s41.667 22 59 38h1z" />
    <glyph glyph-name="ugrave" unicode="&#xf9;" 
d="M405 500h74v-500h-74l-1 70c-9.33301 -14 -21 -26.667 -35 -38c-12 -9.33301 -27 -18 -45 -26s-39.333 -12 -64 -12c-35.333 0 -65.666 6.66699 -90.999 20s-46.166 31.333 -62.499 54s-28.333 49 -36 79s-11.5 61.333 -11.5 94v259h74v-261c0 -20 1.66699 -40.667 5 -62
s9.66602 -40.833 18.999 -58.5s22.166 -32 38.499 -43s37.833 -16.5 64.5 -16.5c24 0 45 4.66699 63 14s33.167 22.166 45.5 38.499s21.5 35.333 27.5 57s9 44.834 9 69.501v262zM197 759h48l40 -71l40 -71h-71z" />
    <glyph glyph-name="uacute" unicode="&#xfa;" 
d="M405 500h74v-500h-74l-1 70c-9.33301 -14 -21 -26.667 -35 -38c-12 -9.33301 -27 -18 -45 -26s-39.333 -12 -64 -12c-35.333 0 -65.666 6.66699 -90.999 20s-46.166 31.333 -62.499 54s-28.333 49 -36 79s-11.5 61.333 -11.5 94v259h74v-261c0 -20 1.66699 -40.667 5 -62
s9.66602 -40.833 18.999 -58.5s22.166 -32 38.499 -43s37.833 -16.5 64.5 -16.5c24 0 45 4.66699 63 14s33.167 22.166 45.5 38.499s21.5 35.333 27.5 57s9 44.834 9 69.501v262zM268 616l-71 -0.000976562c6.66699 12.667 12.667 23.334 18 32.001s11 18.667 17 30l45 80
h49z" />
    <glyph glyph-name="ucircumflex" unicode="&#xfb;" 
d="M405 500h74v-500h-74l-1 70c-9.33301 -14 -21 -26.667 -35 -38c-12 -9.33301 -27 -18 -45 -26s-39.333 -12 -64 -12c-35.333 0 -65.666 6.66699 -90.999 20s-46.166 31.333 -62.499 54s-28.333 49 -36 79s-11.5 61.333 -11.5 94v259h74v-261c0 -20 1.66699 -40.667 5 -62
s9.66602 -40.833 18.999 -58.5s22.166 -32 38.499 -43s37.833 -16.5 64.5 -16.5c24 0 45 4.66699 63 14s33.167 22.166 45.5 38.499s21.5 35.333 27.5 57s9 44.834 9 69.501v262zM369 617h-73.001l-36 89c-5.33301 -12 -11.166 -26.5 -17.499 -43.5l-17.5 -45.5h-71l18.5 32
l16.5 30l45 80h54z" />
    <glyph glyph-name="udieresis" unicode="&#xfc;" 
d="M405 500h74v-500h-74l-1 70c-9.33301 -14 -21 -26.667 -35 -38c-12 -9.33301 -27 -18 -45 -26s-39.333 -12 -64 -12c-35.333 0 -65.666 6.66699 -90.999 20s-46.166 31.333 -62.499 54s-28.333 49 -36 79s-11.5 61.333 -11.5 94v259h74v-261c0 -20 1.66699 -40.667 5 -62
s9.66602 -40.833 18.999 -58.5s22.166 -32 38.499 -43s37.833 -16.5 64.5 -16.5c24 0 45 4.66699 63 14s33.167 22.166 45.5 38.499s21.5 35.333 27.5 57s9 44.834 9 69.501v262zM319 759h72v-69h-72v69zM133 759h72v-69h-72v69z" />
    <glyph glyph-name="yacute" unicode="&#xfd;" horiz-adv-x="493" 
d="M493 500l-406.999 -756.001h-87l208 386l-112 184.5l-112 185.5h85l181 -296l25 46l22 41.5l21 37.5c15.333 26.667 30.166 53.834 44.499 81.501l42.5 81.5v-1l5 9h84zM255.001 615.999l-71 -0.000976562c6.66699 12.667 12.667 23.334 18 32.001s11 18.667 17 30l45 80
h49z" />
    <glyph glyph-name="thorn" unicode="&#xfe;" horiz-adv-x="482" 
d="M372 426c24 -23.333 42 -50.168 54 -80.501s18 -62.5 18 -96.5c0 -35.333 -6.66699 -68.166 -20 -98.499s-31.5 -56.833 -54.5 -79.5s-49.5 -40.5 -79.5 -53.5s-62 -19.5 -96 -19.5h-81v-253h-68v959h68v-204h81c34.667 0 67 -6 97 -18s56.667 -30.333 80 -55z
M194 64.998c26 0 50.167 4.83398 72.5 14.501s41.666 22.834 57.999 39.501s29.333 36.167 39 58.5s14.5 46.166 14.5 71.499c0 26 -4.83301 50.167 -14.5 72.5s-22.667 41.666 -39 57.999s-35.666 29.333 -57.999 39s-46.5 14.5 -72.5 14.5h-81v-368h81z" />
    <glyph glyph-name="ydieresis" unicode="&#xff;" horiz-adv-x="493" 
d="M493 500l-406.999 -756.001h-87l208 386l-112 184.5l-112 185.5h85l181 -296l25 46l22 41.5l21 37.5c15.333 26.667 30.166 53.834 44.499 81.501l42.5 81.5v-1l5 9h84zM306.001 758.999h72v-69h-72v69zM120.001 758.999h72v-69h-72v69z" />
    <glyph glyph-name="dotlessi" unicode="&#x131;" horiz-adv-x="187" 
d="M129 500v-500h-72v500h72z" />
    <glyph glyph-name="Lslash" unicode="&#x141;" horiz-adv-x="491" 
d="M451 70v-69.999h-415v321l-117 -51l-30 62l147 65v303h70v-270l85 38c17.333 7.33301 34.5 15.166 51.5 23.499s34.5 16.5 52.5 24.5l14.5 -31.5l14.5 -31.5l-218 -99v-284h345z" />
    <glyph glyph-name="lslash" unicode="&#x142;" horiz-adv-x="214" 
d="M115 155c0 -14 5.83008 -29.167 17.4971 -45.5s29.5 -26.833 53.5 -31.5v-72c-25.333 2 -47.166 7.66699 -65.499 17s-33.166 21 -44.499 35s-19.666 29.5 -24.999 46.5s-8 33.833 -8 50.5v607h72v-607v0z" />
    <glyph glyph-name="OE" unicode="&#x152;" horiz-adv-x="846" 
d="M460 630v-241.001h295v-64h-295v-255h345v-70h-420c-50 0 -96.5 9.33301 -139.5 28s-80.5 43.834 -112.5 75.501s-57 68.667 -75 111s-27 87.5 -27 135.5c0 50 9 96.333 27 139s43 79.667 75 111s69.5 55.833 112.5 73.5s89.5 26.5 139.5 26.5h420v-70h-345zM390 628.999
c-42 -0.666992 -80.5 -8.16992 -115.5 -22.5029s-65.333 -34 -91 -59s-45.667 -54.333 -60 -88s-21.5 -70.167 -21.5 -109.5c0 -37.333 7.16699 -72.666 21.5 -105.999s34.333 -62.666 60 -87.999s56 -45.666 91 -60.999s73.5 -23.333 115.5 -24v558z" />
    <glyph glyph-name="oe" unicode="&#x153;" horiz-adv-x="927" 
d="M687 54c22 0 41.835 3.33203 59.502 9.99902s33 14.5 46 23.5s23.667 18 32 27s14.166 15.833 17.499 20.5l22.5 -23l21.5 -22c-25.333 -30.667 -54.5 -54.167 -87.5 -70.5s-70.167 -24.5 -111.5 -24.5c-50.667 0 -93.334 10.333 -128.001 31s-62 49.334 -82 86.001
c-24.667 -36 -56 -64.333 -94 -85s-78 -31 -120 -31c-34 0 -66.333 6.33301 -97 19s-57.667 30.334 -81 53.001s-41.833 49.5 -55.5 80.5s-20.5 64.5 -20.5 100.5c0 34 6.83301 66.5 20.5 97.5s32.167 58.167 55.5 81.5s50.333 41.833 81 55.5s63 20.5 97 20.5
c42.667 0 83.167 -11.5 121.5 -34.5s69.833 -52.5 94.5 -88.5c20 35.333 47.167 64 81.5 86s76.5 33 126.5 33c35.333 0 67.5 -6.66699 96.5 -20s53.833 -32 74.5 -56s36.667 -52.333 48 -85s17 -68.334 17 -107.001h-403c0 -25.333 3.66699 -48.833 11 -70.5
s18 -40.5 32 -56.5s31.333 -28.5 52 -37.5s44.667 -13.5 72 -13.5zM685.002 437.999c-23.333 0 -44.6689 -4.33105 -64.002 -12.998s-36 -19.834 -50 -33.501s-25.167 -29.334 -33.5 -47.001s-13.166 -35.5 -14.499 -53.5h322c-3.33301 20.667 -9.66602 40 -18.999 58
s-21 33.5 -35 46.5s-30 23.333 -48 31s-37.333 11.5 -58 11.5zM262.999 64.001c26.667 0 51.332 4.66699 73.999 14s42.334 22.166 59.001 38.499s29.5 35.833 38.5 58.5s13.5 47.334 13.5 74.001c0 24.667 -4.5 48.334 -13.5 71.001s-21.667 42.667 -38 60
s-35.833 31 -58.5 41s-47.667 15 -75 15s-52.333 -5 -75 -15s-42.334 -23.667 -59.001 -41s-29.5 -37.333 -38.5 -60s-13.5 -46.334 -13.5 -71.001c0 -26.667 4.5 -51.334 13.5 -74.001s21.833 -42.167 38.5 -58.5s36.334 -29.166 59.001 -38.499s47.667 -14 75 -14z" />
    <glyph glyph-name="Scaron" unicode="&#x160;" horiz-adv-x="529" 
d="M387 902l-43 -76l-36 -65h-52l-42 73v-1l-38 69h70l34 -89l18.5 44.5l18.5 44.5h70zM254 -11c-34.667 0 -68 4.50293 -100 13.5029s-58.667 18.5 -80 28.5c-15.333 7.33301 -28.333 14 -39 20s-19.334 10.667 -26.001 14l31 57l33 -19
c22.667 -11.333 49.834 -22 81.501 -32s65.167 -15 100.5 -15c50.667 0 90 11 118 33c24.667 22.667 37 52.667 37 90c0 33.333 -17.667 62.666 -53 87.999c-16 11.333 -34 21.666 -54 30.999l-61 28l-76.5 34.5c-25.667 11.667 -48.167 25.5 -67.5 41.5
c-23.333 18 -40.333 37.667 -51 59s-16 45 -16 71c0 24.667 5 47.667 15 69c4.66699 9.33301 10.834 18.5 18.501 27.5s16.167 17.5 25.5 25.5c19.333 14.667 42.166 26.334 68.499 35.001s54.5 13 84.5 13s58.667 -3.16699 86 -9.5s50.666 -12.833 69.999 -19.5
c5.33301 -1.33301 9.83301 -2.83301 13.5 -4.5s8.16699 -3.5 13.5 -5.5l-15 -31c-4.66699 -10 -9.66699 -19.667 -15 -29c-19.333 7.33301 -42.166 14.333 -68.499 21s-54.5 10 -84.5 10c-10.667 0 -24.834 -1.33301 -42.501 -4s-35.167 -9 -52.5 -19h1
c-32 -18 -48 -46 -48 -84c0 -14.667 4.16699 -27.667 12.5 -39s19.5 -22 33.5 -32s30.333 -19.333 49 -28s38.334 -17.334 59.001 -26.001l82 -37.5c28.667 -13.667 53.667 -28.834 75 -45.501c50 -40 75 -87.333 75 -142c0 -60.667 -25.333 -107.667 -76 -141
c-20 -14.667 -43.667 -26 -71 -34s-56 -12.333 -86 -13z" />
    <glyph glyph-name="scaron" unicode="&#x161;" horiz-adv-x="418" 
d="M314 704c-5.33301 -10 -10.5 -19 -15.5 -27s-10.167 -17 -15.5 -27v1l-26 -43.5l-25 -44.5h-52l-80 141h70l36 -87l36 87h72zM104 369c0 -10 3.16797 -19.1689 9.50098 -27.502s14.666 -16.333 24.999 -24s22.333 -14.834 36 -21.501l42.5 -20
c18 -8.66699 36.333 -18 55 -28s35.834 -21 51.501 -33s28.334 -25.5 38.001 -40.5s14.5 -31.833 14.5 -50.5c0 -40 -15.333 -72.5 -46 -97.5s-73 -37.5 -127 -37.5c-25.333 0 -48.833 2.33301 -70.5 7s-40.667 10 -57 16s-29.5 11.833 -39.5 17.5s-16.333 9.16699 -19 10.5
l32 57c8.66699 -4 19 -8.33301 31 -13s24.833 -9.16699 38.5 -13.5s27.667 -8 42 -11s28.5 -4.5 42.5 -4.5c27.333 0 49.5 5.83301 66.5 17.5s25.5 28.834 25.5 51.501c0 10 -2.66699 18.667 -8 26s-12.5 14.333 -21.5 21s-19.667 13 -32 19s-25.5 12 -39.5 18v-1l-14 6
c-17.333 8 -34.5 16.333 -51.5 25s-32.333 19.167 -46 31.5s-24.834 26.833 -33.501 43.5s-13 37 -13 61c0 38 13.833 68.667 41.5 92s66.5 35 116.5 35c19.333 0 37.166 -1.66699 53.499 -5s30.666 -7 42.999 -11s22.5 -8 30.5 -12s13.333 -7 16 -9
c-6 -9.33301 -11 -18.166 -15 -26.499s-8.66699 -17.5 -14 -27.5c-12 6 -28.167 12.167 -48.5 18.5s-42.166 9.5 -65.499 9.5c-28 0 -50 -6.66699 -66 -20s-24 -29.666 -24 -48.999z" />
    <glyph glyph-name="Ydieresis" unicode="&#x178;" horiz-adv-x="643" 
d="M379 836h72v-68h-72v68zM194 836h73v-68h-73v68zM366 360l-10.998 -14v-351h-71v351l-53 70l-70 92.5l-70 92.5l-70 94h86l213 -280l50 67.5l53 69.5l26 35c13.333 18.667 27.166 36.667 41.499 54s28.166 35.333 41.499 54h87z" />
    <glyph glyph-name="Zcaron" unicode="&#x17d;" horiz-adv-x="578" 
d="M318 761h-51c-10.667 17.333 -20.167 33.5 -28.5 48.5l-25.5 46.5l-13 23l-13 23h70l34 -89l18.5 44.5l18.5 44.5h70zM556 695h-522v-70h393l-404 -630h533v70h-402z" />
    <glyph glyph-name="zcaron" unicode="&#x17e;" horiz-adv-x="415" 
d="M234 614h-53l-80 141h70l36 -87l36 87h71zM405 495h-371v-72h241l-272 -425h379v73h-246z" />
    <glyph glyph-name="florin" unicode="&#x192;" horiz-adv-x="364" 
d="M382 638c-24 -0.666992 -44.002 -4.00391 -60.002 -10.0039s-29 -13.5 -39 -22.5s-17.667 -19 -23 -30s-10 -22.167 -14 -33.5l-3 -9l-12 -34h90v-60h-110l-183 -557c-6 -16.667 -14.167 -33 -24.5 -49s-23.666 -30.167 -39.999 -42.5s-35.666 -22.666 -57.999 -30.999
s-48.166 -13.166 -77.499 -14.499v69c24 0.666992 43.833 3.83398 59.5 9.50098s28.5 12.834 38.5 21.501s17.667 18 23 28s9.66602 20 12.999 30l176 536h-99v60h119l11 35v-1c2 6 4.33301 12 7 18s5 12.667 7 20v-1c6 15.333 14.5 31 25.5 47s24.667 30.667 41 44
s35.5 24.333 57.5 33s47.667 13 77 13v-67z" />
    <glyph glyph-name="circumflex" unicode="&#x2c6;" horiz-adv-x="306" 
d="M262 766h-73.001l-36 89c-5.33301 -12 -11.166 -26.5 -17.499 -43.5l-17.5 -45.5h-71l18.5 32l16.5 30l45 80h54z" />
    <glyph glyph-name="caron" unicode="&#x2c7;" horiz-adv-x="283" 
d="M171 766h-51l-36 63l-46 79h71l34 -90l18.5 45l18.5 45h71z" />
    <glyph glyph-name="breve" unicode="&#x2d8;" horiz-adv-x="382" 
d="M332 687c-9.33301 -28.667 -26.167 -53.002 -50.5 -73.002s-51.5 -30 -81.5 -30s-57.167 10 -81.5 30s-41.166 44.333 -50.499 73h48c7.33301 -17.333 18.5 -31.166 33.5 -41.499s31.833 -15.5 50.5 -15.5c17.333 0 33.666 5.33301 48.999 16s27 24.334 35 41.001h48z
" />
    <glyph glyph-name="dotaccent" unicode="&#x2d9;" horiz-adv-x="136" 
d="M33 835h71v-69h-71v69z" />
    <glyph glyph-name="ring" unicode="&#x2da;" horiz-adv-x="239" 
d="M124 928c10.667 0 20.834 -2.16895 30.501 -6.50195s18.167 -10.166 25.5 -17.499s13.166 -16 17.499 -26s6.5 -20.333 6.5 -31c0 -11.333 -2.16699 -21.833 -6.5 -31.5s-10.166 -18.167 -17.499 -25.5s-15.833 -13.166 -25.5 -17.499s-19.834 -6.5 -30.501 -6.5
c-22 0 -41 8 -57 24s-24 35 -24 57s8 41 24 57s35 24 57 24zM124 796.998c14.667 0 26.5 4.5 35.5 13.5s13.5 21.167 13.5 36.5c0 14.667 -4.5 26.667 -13.5 36s-20.833 14 -35.5 14c-15.333 0 -27.666 -4.66699 -36.999 -14s-14 -21.333 -14 -36
c0 -15.333 4.66699 -27.5 14 -36.5s21.666 -13.5 36.999 -13.5z" />
    <glyph glyph-name="ogonek" unicode="&#x2db;" horiz-adv-x="288" 
d="M174 -59c0 -13.333 -5.16797 -24.833 -15.501 -34.5s-29.5 -14.5 -57.5 -14.5c-8 0 -19 1 -33 3v-48c5.33301 -1.33301 10.833 -2 16.5 -2h13.5c24.667 0 44.834 3 60.501 9s28.167 13.333 37.5 22s15.833 18.167 19.5 28.5s5.5 19.833 5.5 28.5c0 21.333 -9 40 -27 56
l-42 -1c14.667 -11.333 22 -27 22 -47zM195.999 -11h-2l-1 1z" />
    <glyph glyph-name="tilde" unicode="&#x2dc;" horiz-adv-x="360" 
d="M324 862c0.666992 -2 1.00195 -4.16602 1.00195 -6.49902v-5.5c0 -25.333 -7.83301 -45.5 -23.5 -60.5s-34.167 -22.5 -55.5 -22.5c-3.33301 0 -7.66602 0.333008 -12.999 1s-11 1.66699 -17 3c-4 1.33301 -8.83301 3.66602 -14.5 6.99902s-11.167 7.33301 -16.5 12
l-29.5 17c-9.66699 5.33301 -20.834 8 -33.501 8s-21 -5 -25 -15s-6.66699 -21.333 -8 -34h-42c-0.666992 3.33301 -0.833984 5.16602 -0.500977 5.49902s0.5 1.16602 0.5 2.49902c0 10.667 1.5 21.334 4.5 32.001s7.66699 20.334 14 29.001s14.333 15.5 24 20.5
s21.5 7.5 35.5 7.5c9.33301 0 19.166 -2.5 29.499 -7.5l30.5 -15.5c9.33301 -5.33301 19.833 -10.5 31.5 -15.5s22.167 -8.16699 31.5 -9.5c2.66699 -0.666992 5.66699 -0.666992 9 0s6.66602 2.5 9.99902 5.5s6.33301 8 9 15s4.33398 16.5 5.00098 28.5h42z" />
    <glyph glyph-name="hungarumlaut" unicode="&#x2dd;" horiz-adv-x="319" 
d="M108 766l-70 -0.000976562c6.66699 12.667 12.667 23.334 18 32.001s11 18.667 17 30l45 80h48zM227 765.999l-70 -0.000976562c6.66699 12.667 12.5 23.334 17.5 32.001l16.5 30l45 80h48z" />
    <glyph glyph-name="Delta" unicode="&#x394;" horiz-adv-x="567" 
d="M542 0h-513l128.5 354l127.5 354zM125 67h319l-21 63l-33 92.5l-35 98l-35.5 98.5l-34.5 94z" />
    <glyph glyph-name="Delta" unicode="&#x2206;" horiz-adv-x="567" 
d="M542 0h-513l128.5 354l127.5 354zM125 67h319l-21 63l-33 92.5l-35 98l-35.5 98.5l-34.5 94z" />
    <glyph glyph-name="Omega" unicode="&#x3a9;" horiz-adv-x="659" 
d="M404 0l-0.000976562 71.998c13.333 16 27 33.333 41 52s26.833 40 38.5 64s21.167 50.667 28.5 80s11 62.333 11 99c0 37.333 -4 71.833 -12 103.5s-19.833 59.167 -35.5 82.5s-35 41.5 -58 54.5s-49.5 19.5 -79.5 19.5c-28 0 -53.667 -6.16699 -77 -18.5
s-43.166 -29.833 -59.499 -52.5s-29.166 -50 -38.499 -82s-14 -67.667 -14 -107c0 -36 3.5 -68.833 10.5 -98.5s16.333 -56.5 28 -80.5s24.667 -45.667 39 -65s28.833 -36.666 43.5 -51.999v-71h-213v69h144c-16 16.667 -32.5 35.334 -49.5 56.001s-32.667 44 -47 70
s-26.166 55 -35.499 87s-14 67 -14 105c0 46 7.16699 88.167 21.5 126.5s34.166 71.5 59.499 99.5s55.333 49.833 90 65.5s72.667 23.5 114 23.5c45.333 0 85.333 -8 120 -24s63.5 -38 86.5 -66s40.333 -61.167 52 -99.5s17.5 -79.5 17.5 -123.5
c0 -33.333 -3.66699 -64.5 -11 -93.5s-17.5 -56.667 -30.5 -83s-28.333 -51.333 -46 -75s-36.834 -46.5 -57.501 -68.5h144v-69h-211z" />
    <glyph glyph-name="Omega" unicode="&#x2126;" horiz-adv-x="659" 
d="M404 0l-0.000976562 71.998c13.333 16 27 33.333 41 52s26.833 40 38.5 64s21.167 50.667 28.5 80s11 62.333 11 99c0 37.333 -4 71.833 -12 103.5s-19.833 59.167 -35.5 82.5s-35 41.5 -58 54.5s-49.5 19.5 -79.5 19.5c-28 0 -53.667 -6.16699 -77 -18.5
s-43.166 -29.833 -59.499 -52.5s-29.166 -50 -38.499 -82s-14 -67.667 -14 -107c0 -36 3.5 -68.833 10.5 -98.5s16.333 -56.5 28 -80.5s24.667 -45.667 39 -65s28.833 -36.666 43.5 -51.999v-71h-213v69h144c-16 16.667 -32.5 35.334 -49.5 56.001s-32.667 44 -47 70
s-26.166 55 -35.499 87s-14 67 -14 105c0 46 7.16699 88.167 21.5 126.5s34.166 71.5 59.499 99.5s55.333 49.833 90 65.5s72.667 23.5 114 23.5c45.333 0 85.333 -8 120 -24s63.5 -38 86.5 -66s40.333 -61.167 52 -99.5s17.5 -79.5 17.5 -123.5
c0 -33.333 -3.66699 -64.5 -11 -93.5s-17.5 -56.667 -30.5 -83s-28.333 -51.333 -46 -75s-36.834 -46.5 -57.501 -68.5h144v-69h-211z" />
    <glyph glyph-name="pi" unicode="&#x3c0;" horiz-adv-x="487" 
d="M481 88c0 -12 -2.32812 -23.335 -6.99512 -34.002s-10.667 -20 -18 -28s-15.5 -14.333 -24.5 -19s-17.5 -7 -25.5 -7c-12 0 -23 2.5 -33 7.5s-18.833 11.5 -26.5 19.5s-13.5 17.333 -17.5 28s-6 21.667 -6 33v346h-146v-329c0 -33.333 -5 -68.333 -15 -105h-72
c5.33301 13.333 10.166 29.166 14.499 47.499s6.5 37.5 6.5 57.5l-1 330c-18 -1.33301 -33.333 -3.66602 -46 -6.99902s-22.667 -6.33301 -30 -9c-4 11.333 -8.16699 22 -12.5 32s-8.5 20.333 -12.5 31c9.33301 4 22.666 8 39.999 12s35.666 6 54.999 6h345v-66h-60v-346
c0 -7.33301 1.66699 -13 5 -17s7.16602 -6.16699 11.499 -6.5s8.16602 1.33398 11.499 5.00098s5 9.83398 5 18.501h59z" />
    <glyph glyph-name="endash" unicode="&#x2013;" horiz-adv-x="409" 
d="M357 296v-70h-310v70h310z" />
    <glyph glyph-name="emdash" unicode="&#x2014;" horiz-adv-x="529" 
d="M489 296v-70h-443v70h443z" />
    <glyph glyph-name="quoteleft" unicode="&#x2018;" horiz-adv-x="123" 
d="M43 657l-70 -0.000976562c6.66699 12.667 12.667 23.334 18 32.001l17 29l45 81h49z" />
    <glyph glyph-name="quoteright" unicode="&#x2019;" horiz-adv-x="127" 
d="M-27 799h48l81 -142h-72z" />
    <glyph glyph-name="quotesinglbase" unicode="&#x201a;" horiz-adv-x="145" 
d="M40 56h72l-40.5 -71l-40.5 -71h-47z" />
    <glyph glyph-name="quotedblleft" unicode="&#x201c;" horiz-adv-x="246" 
d="M43 657h-71l18.5 32l16.5 29l45 81h48zM162 657h-71l40 71l40 71h48z" />
    <glyph glyph-name="quotedblright" unicode="&#x201d;" horiz-adv-x="230" 
d="M91 799h48l48 -85l31 -57h-70zM-27 799h47l40.5 -71l39.5 -71h-70z" />
    <glyph glyph-name="quotedblbase" unicode="&#x201e;" horiz-adv-x="270" 
d="M120 141h47l82 -141h-72zM1 141h49l79 -141h-70z" />
    <glyph glyph-name="dagger" unicode="&#x2020;" horiz-adv-x="212" 
d="M138 704v-959h-61v959h61zM248 377v-72h-281v72h281z" />
    <glyph glyph-name="daggerdbl" unicode="&#x2021;" horiz-adv-x="212" 
d="M138 704v-959h-61v959h61zM320 172v-70h-424v70h424zM320 428v-71h-424v71h424z" />
    <glyph glyph-name="bullet" unicode="&#x2022;" horiz-adv-x="248" 
d="M71 257c0 15.333 5.33301 28.333 16 39s23.667 16 39 16s28.166 -5.33301 38.499 -16s15.5 -23.667 15.5 -39s-5.16699 -28.166 -15.5 -38.499s-23.166 -15.5 -38.499 -15.5s-28.333 5.16699 -39 15.5s-16 23.166 -16 38.499z" />
    <glyph glyph-name="ellipsis" unicode="&#x2026;" horiz-adv-x="408" 
d="M31 68h71v-68h-71v68zM170 68h72v-68h-72v68zM309 68h72v-68h-72v68z" />
    <glyph glyph-name="perthousand" unicode="&#x2030;" horiz-adv-x="1052" 
d="M305 539c0 -23.333 -4.5 -45 -13.5 -65s-21.167 -37.667 -36.5 -53s-33.166 -27.333 -53.499 -36s-41.833 -13 -64.5 -13s-44.167 4.33301 -64.5 13s-38.166 20.667 -53.499 36s-27.5 33 -36.5 53s-13.5 41.667 -13.5 65c0 22.667 4.5 44.334 13.5 65.001
s21.167 38.5 36.5 53.5s33.166 27 53.499 36s41.833 13.5 64.5 13.5s44.167 -4.5 64.5 -13.5s38.166 -21 53.499 -36s27.5 -32.833 36.5 -53.5s13.5 -42.334 13.5 -65.001zM19 539c0 -16 3 -31 9 -45s14.333 -26.333 25 -37s23.167 -19.167 37.5 -25.5
s29.833 -9.5 46.5 -9.5c16 0 31.167 3.16699 45.5 9.5s26.833 14.833 37.5 25.5s19.167 23 25.5 37s9.5 29 9.5 45c0 16.667 -3.16699 32.167 -9.5 46.5s-14.833 26.833 -25.5 37.5s-23.167 19.167 -37.5 25.5s-29.5 9.5 -45.5 9.5c-16.667 0 -32.167 -3.16699 -46.5 -9.5
s-26.833 -14.833 -37.5 -25.5s-19 -23.167 -25 -37.5s-9 -29.833 -9 -46.5zM912 336c22.667 0 44.334 -4.5 65.001 -13.5s38.5 -21.333 53.5 -37s27 -33.667 36 -54s13.5 -41.833 13.5 -64.5c0 -23.333 -4.5 -45.166 -13.5 -65.499s-21 -38 -36 -53
s-32.833 -26.833 -53.5 -35.5s-42.334 -13 -65.001 -13c-23.333 0 -45.166 4.33301 -65.499 13s-38 20.5 -53 35.5s-26.833 32.667 -35.5 53s-13 42.166 -13 65.499c0 22.667 4.33301 44.167 13 64.5s20.5 38.333 35.5 54s32.667 28 53 37s42.166 13.5 65.499 13.5zM912 50
c16.667 0 32.167 3 46.5 9s26.833 14.333 37.5 25s19 23.167 25 37.5s9 29.5 9 45.5s-3 31.167 -9 45.5s-14.333 26.833 -25 37.5s-23.167 19.167 -37.5 25.5s-29.833 9.5 -46.5 9.5c-16 0 -31 -3.16699 -45 -9.5s-26.167 -14.833 -36.5 -25.5
s-18.666 -23.167 -24.999 -37.5s-9.5 -29.5 -9.5 -45.5s3.16699 -31.167 9.5 -45.5s14.666 -26.833 24.999 -37.5s22.5 -19 36.5 -25s29 -9 45 -9zM538 336c22.667 0 44.167 -4.5 64.5 -13.5s38.166 -21.333 53.499 -37s27.5 -33.667 36.5 -54s13.5 -41.833 13.5 -64.5
c0 -23.333 -4.5 -45.166 -13.5 -65.499s-21.167 -38 -36.5 -53s-33.166 -26.833 -53.499 -35.5s-41.833 -13 -64.5 -13c-23.333 0 -45 4.33301 -65 13s-37.667 20.5 -53 35.5s-27.333 32.667 -36 53s-13 42.166 -13 65.499c0 22.667 4.33301 44.167 13 64.5
s20.667 38.333 36 54s33 28 53 37s41.667 13.5 65 13.5zM538 50c16.667 0 32.167 3 46.5 9s26.833 14.333 37.5 25s19 23.167 25 37.5s9 29.5 9 45.5s-3 31.167 -9 45.5s-14.333 26.833 -25 37.5s-23.167 19.167 -37.5 25.5s-29.833 9.5 -46.5 9.5
c-16 0 -31.167 -3.16699 -45.5 -9.5s-26.666 -14.833 -36.999 -25.5s-18.666 -23.167 -24.999 -37.5s-9.5 -29.5 -9.5 -45.5s3.16699 -31.167 9.5 -45.5s14.666 -26.833 24.999 -37.5s22.666 -19 36.999 -25s29.5 -9 45.5 -9zM618 706l-247 -353l-247 -353h-60l47 68
l52.5 75l64 92l83 118l108 153.5l139.5 199.5h60z" />
    <glyph glyph-name="guilsinglleft" unicode="&#x2039;" 
d="M57 307l101 59.5l97 56.5l96.5 56.5l100.5 59.5v-82l-262 -150l81 -47h-1l182 -106v-77z" />
    <glyph glyph-name="guilsinglright" unicode="&#x203a;" 
d="M73 76v78l263 153l-131.5 75l-131.5 75v82l396 -232z" />
    <glyph glyph-name="fraction" unicode="&#x2044;" horiz-adv-x="212" 
d="M253 738l-104 -357l-57.5 -198l-57.5 -200h-73l219 755h73z" />
    <glyph glyph-name="Euro" unicode="&#x20ac;" horiz-adv-x="547" 
d="M466 128l5.00098 -6h-1l43 -41l-3 -3c-26 -24.667 -54.667 -44 -86 -58s-64 -21 -98 -21s-65.167 6.66699 -93.5 20s-53.5 32.166 -75.5 56.499s-40.5 53.166 -55.5 86.499s-25.833 70 -32.5 110h-39v57h34v40v22c0 5.33301 0.333008 11 1 17h-35v57h44
c18 76.667 49.167 136.334 93.5 179.001s97.166 64 158.499 64c32 0 63.667 -6.16699 95 -18.5s61 -30.166 89 -53.499h-2l3 -2c-8 -7.33301 -15.333 -14.666 -22 -21.999l-21 -22l-2 1c-20 15.333 -41.833 27 -65.5 35s-48.5 12 -74.5 12c-38 0 -73.333 -14.667 -106 -44
s-58 -72.333 -76 -129h233v-57l-246 -2c-1.33301 -10.667 -2 -19.334 -2 -26.001v-21v-5v-7c0 -2.66699 0.333008 -5.33398 1 -8.00098c0 -2.66699 0.333008 -6 1 -10h246v-57h-242c9.33301 -31.333 20.833 -59.666 34.5 -84.999s28.667 -47 45 -65s34 -31.833 53 -41.5
s38.5 -14.5 58.5 -14.5c24.667 0 48.667 5.16699 72 15.5s45 24.5 65 42.5z" />
    <glyph glyph-name="trademark" unicode="&#x2122;" horiz-adv-x="680" 
d="M262 704v-46h-87v-316h-47v316h-86v46h220zM324 342v362l156 -161l159 159v-360h-50v243l-109 -112l-108 111v-242h-48z" />
    <glyph glyph-name="partialdiff" unicode="&#x2202;" horiz-adv-x="581" 
d="M153 395c26.667 22.667 55.8291 39.835 87.4961 51.502s63.834 17.5 96.501 17.5c19.333 0 40.166 -3.66699 62.499 -11s45.166 -18.333 68.499 -33c-9.33301 40 -20.166 75.333 -32.499 106s-25.333 57.334 -39 80.001s-27.667 42 -42 58s-27.5 29.333 -39.5 40h115
c14 -16.667 27.833 -37.334 41.5 -62.001s25.834 -52.167 36.501 -82.5s19.334 -63.333 26.001 -99s10 -72.5 10 -110.5c0 -48.667 -8.16699 -94.834 -24.5 -138.501s-38.5 -81.834 -66.5 -114.501s-60.833 -58.5 -98.5 -77.5s-77.5 -28.5 -119.5 -28.5
c-27.333 0 -52.666 4.5 -75.999 13.5s-43.666 21.833 -60.999 38.5s-31 36.5 -41 59.5s-15 48.167 -15 75.5c0 40 10 79.167 30 117.5s47 71.5 81 99.5zM249.995 59.001c22.667 0 45.167 4.50195 67.5 13.502s42.833 21.167 61.5 36.5s34.5 33.166 47.5 53.499
s22.167 41.833 27.5 64.5c1.33301 5.33301 2.33301 11.166 3 17.499s1 11.833 1 16.5c0 40 -12.667 72.833 -38 98.5s-59 38.5 -101 38.5c-25.333 0 -50.5 -5.5 -75.5 -16.5s-47.333 -26 -67 -45s-35.5 -40.833 -47.5 -65.5s-18 -50.334 -18 -77.001
c0 -19.333 3.33301 -37.166 10 -53.499s16.167 -30.5 28.5 -42.5s27 -21.5 44 -28.5s35.833 -10.5 56.5 -10.5z" />
    <glyph glyph-name="product" unicode="&#x220f;" horiz-adv-x="531" 
d="M477 -255h-69v890h-284v-890h-71v959h424v-959z" />
    <glyph glyph-name="summation" unicode="&#x2211;" horiz-adv-x="574" 
d="M530 -255h-487l275 479l-113 196v-1l-162 285h488v-69h-368l236 -411l-236 -410h367v-69z" />
    <glyph glyph-name="minus" unicode="&#x2212;" horiz-adv-x="415" 
d="M357 296v-70h-310v70h310z" />
    <glyph glyph-name="radical" unicode="&#x221a;" horiz-adv-x="628" 
d="M611 755l-105 -226l-102 -221l-74 -159.5l-74 -159.5l-132 260l-67 -90l-20 -26v115l27.5 37.5l28.5 36.5l44 59l117 -234l44.5 97.5l48 104l48.5 104l46 98.5l22.5 47.5l22.5 47.5h-2l28 54.5l26 54.5h73z" />
    <glyph glyph-name="infinity" unicode="&#x221e;" horiz-adv-x="574" 
d="M540 378c0 -14.667 -2.33398 -29.5029 -7.00098 -44.5029s-11.834 -28.5 -21.501 -40.5s-22 -21.833 -37 -29.5s-32.5 -11.5 -52.5 -11.5c-13.333 0 -26.166 2.5 -38.499 7.5s-24.333 11.5 -36 19.5s-22.334 17 -32.001 27s-18.5 20 -26.5 30
c-21.333 -27.333 -43.333 -48.166 -66 -62.499s-43.667 -21.5 -63 -21.5c-14 0 -28.333 2.5 -43 7.5s-27.667 12.5 -39 22.5s-20.666 22.833 -27.999 38.5s-11 34.5 -11 56.5c0 18 3 34.5 9 49.5s14.5 28 25.5 39s23.667 19.5 38 25.5s30.166 9 47.499 9
c22.667 0 46 -7.66699 70 -23s44 -34.666 60 -57.999c6.66699 8.66699 14.5 17.834 23.5 27.501s19 18.5 30 26.5s23 14.5 36 19.5s26.833 7.5 41.5 7.5c16.667 0 32.334 -3 47.001 -9s27.334 -14.333 38.001 -25s19.167 -23.5 25.5 -38.5s9.5 -31.5 9.5 -49.5z
M164.999 296.997c17.333 0 35.3311 7.16699 53.998 21.5s34.334 33.833 47.001 58.5c-13.333 24.667 -29.666 43.834 -48.999 57.501s-36.666 20.5 -51.999 20.5s-28 -2.83301 -38 -8.5s-17.667 -12.834 -23 -21.501s-9 -17.667 -11 -27s-3 -17.333 -3 -24
c0 -25.333 7.66699 -44.5 23 -57.5s32.666 -19.5 51.999 -19.5zM488.997 377.997c0 7.33301 -1.16406 15.501 -3.49707 24.501s-6.5 17.333 -12.5 25s-13.833 14.167 -23.5 19.5s-21.5 8 -35.5 8c-17.333 0 -33.833 -5.33301 -49.5 -16s-33.834 -31.334 -54.501 -62.001
c15.333 -25.333 31.666 -45 48.999 -59s35.666 -21 54.999 -21c14 0 25.667 2.66699 35 8s17 12 23 20s10.333 16.667 13 26s4 18.333 4 27z" />
    <glyph glyph-name="integral" unicode="&#x222b;" horiz-adv-x="447" 
d="M314 688c13.333 5.33301 26.667 9.33496 40 12.002s29.666 4 48.999 4v-69c-26.667 -1.33301 -48.667 -6.33301 -66 -15s-31 -19.5 -41 -32.5s-17 -27 -21 -42s-6 -29.833 -6 -44.5v-531c0 -70.667 -18 -124.834 -54 -162.501s-86.667 -58.5 -152 -62.5v69
c50.667 2.66699 85.834 16.667 105.501 42s29.5 63.333 29.5 114v531c0 46.667 10.333 85.667 31 117s49 54.666 85 69.999z" />
    <glyph glyph-name="approxequal" unicode="&#x2248;" horiz-adv-x="453" 
d="M407 187l0.00390625 -1.99805c0.666992 -3.33301 1 -8.66602 1 -15.999c0 -34 -10 -60.5 -30 -79.5s-44 -28.5 -72 -28.5c-19.333 0 -34.833 2.66699 -46.5 8s-23.167 11.666 -34.5 18.999l-12 8h1c-6 3.33301 -13.333 7 -22 11s-19.667 8.66699 -33 14l1 -1
c-2.66699 1.33301 -5.16699 2.16602 -7.5 2.49902s-4.5 0.5 -6.5 0.5c-14.667 0 -24.834 -6.83301 -30.501 -20.5s-9.16699 -28.167 -10.5 -43.5h-56v16c0 13.333 1.83301 26.666 5.5 39.999s9.66699 25.333 18 36s19 19.334 32 26.001s28.833 10 47.5 10
c11.333 0 23.666 -3 36.999 -9s26.666 -13 39.999 -21c14 -9.33301 27.5 -17.166 40.5 -23.499s26.167 -9.5 39.5 -9.5c3.33301 0 7.16602 0.666992 11.499 2s9.16602 4.66602 14.499 9.99902c2 1.33301 4.83301 5.16602 8.5 11.499s5.83398 19.833 6.50098 40.5h55z
M407.004 369.002l0.00390625 -1.99805c0.666992 -3.33301 1 -8.66602 1 -15.999c0 -34 -10 -60.5 -30 -79.5s-44 -28.5 -72 -28.5c-19.333 0 -34.833 2.66699 -46.5 8s-23.167 11.666 -34.5 18.999l-12 8h1c-6 3.33301 -13.333 7 -22 11s-19.667 8.66699 -33 14l1 -1
c-2.66699 1.33301 -5.16699 2.16602 -7.5 2.49902s-4.5 0.5 -6.5 0.5c-14.667 0 -24.834 -6.83301 -30.501 -20.5s-9.16699 -28.167 -10.5 -43.5h-56v16c0 13.333 1.83301 26.666 5.5 39.999s9.66699 25.333 18 36s19 19.334 32 26.001s28.833 10 47.5 10
c11.333 0 23.666 -3 36.999 -9s26.666 -13 39.999 -21c14 -9.33301 27.5 -17.166 40.5 -23.499s26.167 -9.5 39.5 -9.5c3.33301 0 7.16602 0.666992 11.499 2s9.16602 4.66602 14.499 9.99902c2 1.33301 4.83301 5.16602 8.5 11.499s5.83398 19.833 6.50098 40.5h55z" />
    <glyph glyph-name="notequal" unicode="&#x2260;" horiz-adv-x="514" 
d="M392 622l-42 -136l-42 -135l-113 -362h-73l196 633h74zM468 240v-72h-425v72h425zM468 423v-71h-425v71h425z" />
    <glyph glyph-name="lessequal" unicode="&#x2264;" horiz-adv-x="518" 
d="M40 471l438.002 232.001v-83l-283 -149c15.333 -8.66699 32.666 -17.834 51.999 -27.501s36.666 -19.167 51.999 -28.5l90 -50l89 -48v-79zM479.002 70.001v-70h-388v70h388z" />
    <glyph glyph-name="greaterequal" unicode="&#x2265;" horiz-adv-x="511" 
d="M41 238v81l284 152l-28.5 15l-34 18l-34 18l-28.5 16l-159 82v83l438 -232zM428 70v-70h-388v70h388z" />
    <glyph glyph-name="lozenge" unicode="&#x25ca;" horiz-adv-x="400" 
d="M9 353c0.666992 -0.666992 1.33301 -1 2 -1c1.33301 -1.33301 2 -2.33301 2 -3zM387.999 349l-186 -351l-94 175.5l-94 175.5l94 176l94 175zM205.999 -9l1 -3l-9 2l4 8c1.33301 -1.33301 2 -2.5 2 -3.5s0.666992 -2.16699 2 -3.5zM201.999 115l28.5 55l32 61.5l33 62
l30.5 55.5l-124 235l-125 -235z" />
    <glyph glyph-name=".null" horiz-adv-x="0" 
 />
    <glyph glyph-name="nonmarkingreturn" horiz-adv-x="212" 
 />
    <glyph glyph-name="glyph19" horiz-adv-x="0" 
 />
    <glyph glyph-name="RS" horiz-adv-x="0" 
 />
  </font>
</defs>
</svg>
